<mxfile host="app.diagrams.net" modified="2021-10-24T21:33:17.747Z" agent="5.0 (Windows)" etag="4rSmbZQhq1pmBTUrv4D1" version="15.5.1" type="github">
  <diagram id="HpKwdK1oQVYr-Orpsduo" name="Page-1">
    <mxGraphModel dx="1038" dy="575" grid="1" gridSize="10" guides="1" tooltips="1" connect="1" arrows="1" fold="1" page="1" pageScale="1" pageWidth="827" pageHeight="1169" math="0" shadow="0">
      <root>
        <mxCell id="0" />
        <mxCell id="1" parent="0" />
        <mxCell id="6FGdKVEJK4fvtbT7j42c-5" value="" style="rounded=0;whiteSpace=wrap;html=1;" vertex="1" parent="1">
          <mxGeometry x="10.75" y="20" width="800" height="330" as="geometry" />
        </mxCell>
        <object label="" id="6FGdKVEJK4fvtbT7j42c-1">
          <mxCell style="verticalLabelPosition=bottom;html=1;verticalAlign=top;align=center;strokeColor=none;fillColor=#00BEF2;shape=mxgraph.azure.computer;pointerEvents=1;" vertex="1" parent="1">
            <mxGeometry x="370.75" y="36" width="80" height="65" as="geometry" />
          </mxCell>
        </object>
        <mxCell id="6FGdKVEJK4fvtbT7j42c-2" value="&lt;div&gt;Server 1&lt;/div&gt;&lt;div&gt;10.242.150.186&lt;br&gt;&lt;/div&gt;&lt;div&gt;AC-H&lt;br&gt;&lt;/div&gt;&lt;div&gt;&lt;/div&gt;&lt;div&gt;&lt;br&gt;&lt;/div&gt;" style="text;html=1;strokeColor=none;fillColor=none;align=center;verticalAlign=middle;whiteSpace=wrap;rounded=0;" vertex="1" parent="1">
          <mxGeometry x="348.75" y="116" width="120" height="70" as="geometry" />
        </mxCell>
        <mxCell id="6FGdKVEJK4fvtbT7j42c-7" value="" style="shape=image;verticalLabelPosition=bottom;labelBackgroundColor=#ffffff;verticalAlign=top;aspect=fixed;imageAspect=0;image=data:image/png,iVBORw0KGgoAAAANSUhEUgAAA1MAAAB6CAYAAABa8wn/AAAgAElEQVR4nO2d25XjIAxAve3QCpVQCIVQh4tjP/wYjAELhwSc3I97zkzi2EJIgEDgaZomDwAAAAAAANV0F+DrUMZ6N89+nmfvrPFqAJngKShvZ+eN6i3HU+UrY9zsnVHd5RhXvmfXL3oZFfSHXp5P//YZBqbNjYxbg4eEoSnj5MGF0t465+fteqP9NE1e2+X/2ereCiuijPPzbL1Wk58mtcjdQOYwQJvn2c9ue0ZnlPYmrC9h8Fiyl9FR2njr3mOLyrihbXws+bS3gU9IbGn0zrC3fKX6fXQ7ru3abprmehlBvlI9GCtrn6X1W2UHg+tPGTesv4V8or9cxi5vsMEBaKW/3u3ziXe1G6M+d2za3SzVMMWfFRsvbb1zzhud/36cgVwK5e08e6uDz5TxbravrU6t9xgieEqUdxsoLcGj87OTd7BDNUySenDOG6O9eostKm9cZD9vLUttQ/hB+SoZ1pZu6bkX+fr9inb8dl18yO5b24rS3s7O270e1sm9xDOk9VtlByPrT+llQuwwQflpP63Ty0fauEe1V3UM20c8tc6+2FZu0u5mZ2NV3s7W68N1yhsXfzb5adLeJj8PGD2YWo3rGEjohA4q0XbMGYBMfUg7iEc3bu+wxU/W852GcFQ7nAa2pSd1ONn6/ZJ2/G5dfMruP2IrqbQyaf3W2MHI+lPeRsG+Mq7P7H7FMwmmXmPYPuKpdfbFtnKTUDlLasZfOpnz1ujkKoPSNrpOnY1VGe8Snaa258G2Mu56AL52wqdnxzOgFeWYJnVIg1iutYGRhKlEayekTHDvYNXpMEgI098SnY0yh5kxZ7U3sV4OzzlyvO6ivPuSrP1b7j7oMZWzfaWXPKlgSmQv07SsbIWpW9Z4pcLvE3qI9eTMXs6T7sNrw7JI6iNhi1f2mtdvQt+lIDSeSY3SPMP0qWNKaOwfx9S4I6VBUUE+gb9J5ZOX49x+5DvKmnRAgd2L2pcaPVfId2EHh/SL0Ocu04JL9fsN7fj0N9llWullBPlqSQRT0vqtsIOh9TfEILDc3kv7y8v2oEZ/Cd0c+tvD5+V+evfzoJ9W2nj3Srpdq/Fp9XhI0D7fbnevyiwcJ7ZuN1o/V2ynj+bocLFDpPb8KOMWJW7XqsVRnYucPTPgTDW+xjlvVOjwiwOkDNaFFbFWUrwiJinH5iTu4JDK69Ms1eLENjGTpWL51mcsubXap1emVJR+sejQ5hrXyxksQXnXIMJZvaZ/rIM6lZqVk+olL2uoF6m9KOOWRi38rTZLfZ/s4Jw6ecxnLq0IxrOplfVRsO34GnEwldDboe7ixmftWExiIH3Q9Zp6ee6EKwcUJfmk/iaVr6Ycoe0IOmhJ0HVt99L2pV7PRfmkdrCmo4bXbns5s+m3pfr9lnZ8m0iJ9VJKS25h9++UrxKd2qMjrd8KOxhbf2q30xY6vUVBL+LxlbQ9qOnPo/ZqlyWWT9JPB3XqnAv21236r9Vbw/Fp1Xgounexfa5sdy/KKxqXNG83Gj9XbKeP5+KC02AgtdS/fH7anCdufBfnWhxO7w6nrT035plVnst9SYlBTd2yr173Q6lkA3MsbziQTw3qdd0JPnfSJOLyRimIhzpINaC3Zo4STiO2F+Wty9ShtqdB1mlWb9tXFvwu22CfbKGyPgq2fZfSLKW2GdliGTJB5maD5wZOblPVex5S95fKV1OOSpstXfdSGkhOnw2DKbEdKONdIpWrNIAp1u+3tOOJNuIlvQwgn5R9pb7Yb13U741galz9Ka+NWVY6Nnv94MAurxf5+EraHlS1a7v+18mrU33X9NN/9vG29Lq749OK8ZDYFm+0u2WE45Lm7Ubb54r7recTKSJavp1dYvYnY2gnpxE3vuvMQGq/UTxYzCj/WIGCciTlkBhZIR1ql0/tgVd2heSw7OkSQUh034uVqdp6KzUe9XrZ7uGqUioO9lJIadzSvsLfxrNHuRmqrRzGBfaVsqOa+riwxWqKg8jSClv0ndg/yvVSJ5/Q/mrkqylHUNevBlNyuxeWt1bPRfkq7CDzzOLkwtWq1Te046310lu+apbViNNE4LuCqSfpL7nf+U2U9CIeX8nbg6r+fO3Hz6vEoezyfrr6+Rf222x8WjEeCrlemWrsv5JxydDPrei3nk9gqG4+Ld9OOr3CcWmshWtTM5o2lYsa/17UCQvLkZSjjNJ2May5kI63yRflnF4+Z132TA7gi8HUvXprGkxpmw8+Khs3cWd2mAVKnKK4yWX1mutv99kWUflK9XFhi7WUZ+76B1Nl+eT+9h3BVEV5K/Vclu99wdTlzPG3tONN9dJfvrvc7qfFdvBM/bXWs1j/gjKcf/fGYGp23iZXpab6frr2+Vkaj0+fEkydnpEYlwz93F8MpsRpKhVpfuuS8PWJQJn3LcQbXiXpIRXpNlXvvgifrbY9VNfPqCHbyJaCKWl5KxqPGr2oLZDKXiNP86t1/l1f2fxz7a0zewO4XK/Fzyl2eq2CKUFqU7Yz+kSa35V8NeltD0jzu6zT2nS+pml+Qjuo6VwlqXXf0o631Etv+V7g3K5J61duByPrb7vfcc9PaW9XQwSrdfI0P1l7UDXOCXSY3r92r59+OZhqPT59ajA1ySdDRnmuuN96Ptsfa55k+E6K7ZSOVA6zizb4bbnHic3G4Qbk8szrlho3pQOW7Mbl8Dp5OU7PXMuyXB88Y+v8ow107mSssreZL42bOW/Iy/22uDIlLG9V4yHTS27vWOw8YntZV/6O76dR6U3TQb1kUxKmaX+OUaH9nDfUVtXH9uwGB1CI8slTe9FyB1C4SNdr7nsy8A/lUus7wqKO/lq+Cn+TyldTjtDGGh1AUbb7mvZFrmeRfFI7qOhcxfsZvqEdb6qXvvJJWFKhrdfBQQt6e6n83foVXjey/ha9uEO6mnOmnNYtoVF7L+4vpe2BVH8nHaYmyKfqfrrNylTj8ekIwdSFvYjHJe9oN1o+V2ynjydVueFxl1uO7LEBzh09mcqbDY/RTC4dHxR8vGdo7PuRyVdH6laUY1LhEeZrfmg4axUc7/m3MnXMG44Dh/B0k1QDszjk8mb6vyMlEy+5PDx7PsgYD6KL5U2UYdOnMyooT5gqdKGXsE4SSI9GP9lLlB45u+X407TNqHUPW94pj3ur1uvv1kchXzw381LsXJMbOCW+MaePFpUeOZ2pk9MmbKl8Un+Tyie8rmR/YR1Lr5PafVX7ItBzrXyio9EPshyP9j0MGirSLL6uHX9VL73kqyA8jjrbblTW7+V1D9Jfu/08U9P2Xt5fCo+cFrRr+/33/rKgP0E/nW3X7mbvtBqfHrgeD4na5zv2JwimLsclb2g33vLc3zsaHVpweAfD1QsN4Wdp/hLBxsvm3eT7vuX/Ifnal1iiF/QnpGkw9UV6AYBqugsAAC0YPQghmAKAgfhkMAUAX013AQDgRU6pCIMFI1L5Ri8HAAAAQER3AQAAAAAAAJ5IdwEAAACgxNULU188rALgo2DP8F10FwAAAAAAAOCJdBcAAAAAAADgiXQXAAAAAAAA4Il0FwAAAAAAAOCJdBcAAAAAAADgiXQXAAAAAAAA4Il0FwAAAAAAAOCJLH8Yt53pb70OLwjfBeBMb2EBAAAAAABGYftDexsHUjvKG5f7DgAAAAAA4Cf5+8c4541KXKSMd6xKAQAAAAAAhPz9o4zzVi9/G7ek9alp8pO2fra6t6AAAAAAAAAjEfyjrXdWLytR1no7LytV2s57kAUAAAAAAACTn47/aG+d8co474zy2s7eGZ1P/wMAAAAAAPhdjh8Y57zbgidt/TzP3m3pfgAAAAAAALBx/EAZFxyBrrydZ/ZLAQAAAAAAnOkuAAAAAAAAwBPpLgAAAAAAAMAT6S4AAAAAAADAE+kuAAAAAAAAwBPpLgAAAAAAAMAT6S4AAAAAAADAE+kuAAAAAAAAwBPpLgAAAAAAAMAT6S4AAAAADIPydnbeqN5yvFc+42bvjBpWvm/hfXoGGIbzh0obb93sZ6vFNzJu9vNcchi1XmO9LtxHGevdvNxrnmc/O+u1iu5j3f69s9qrkmxKe+uC602uTGn5tF3luNCF9Lq7erlE6UgvpqyXp6LtahemvywAAANz6Je3tlPQ1yjjbvRlnyOW727/+65B/uj6+zRPD6bu+tHHEY93MzC+eoWwIox3znljtFfaVjcGyri8w2jrZ+e8KxmgMsv3hdkc45y3Womf6ZzzRgucuCSfVBc3dCbSyxVKezuHelFL5/KtDqGMd99aNgCARmxBhtVTxUBpmeCzur/8VfLd6X8/KR88lnt+9GFqxrslGF/dJV8x7YIp5e08e2tMOWjQtmygyUrW3s42sQqjvXXSAOVCvrcFU0K93OKL0wxwdgCAS5ZB4NoPKLNkfVz1UVf9cG9y8o0STI2uP6jmlh99lJrx7gWMr+6S+eKiYVI6TMdz3hqVDaaUcUvjojJBw2acCQ6zOxXBlDJOPDN0Kd+qi1OZ4xkA6XXS506Tj9MaF11bgbEPFEytS89He8mlZwrKu9rBISX0lA4KAPDbKOP+BoGT9vZyEFhY9Ylm45d7B4PM8Hq1bhUI0vGNje67p0stnyttvBNuF0j27eL+d9XDXHhWWF5d089crEpd6UWo5zCt8bg1Ij3e0Ic+dd0GEJdDUB/7c8PxWTx+22UX6LnGXqZpHUuUtoHctavWfvR5P2+2Elozvrqqj9p249lkvigEU8q4RdmbItQyAHYuFUzpv0F9MWiYRDM62kYVoG2y8TDOeaPCgfkS8J3vKZBvNQgXGspqRIfySq8T62VxWncIPJTXWxBW0tNQOdvq1HBrm2qMhOXdGu9Az1tg+pX7xAAA7qCtn/fJRnW9d2Xtg5PtaGbGeulrw89UlHY++UkpbzNBhrbzMnbY9/mqxD0F8lX1vwvFbQLrtgcX9zPJTBiBfFK9SPW8lzcMjJTX9lgmZdxpb/kSYKTHYpf1cbCpUL6beq7SSzRYXydqU7ZSZVet/ejDyMe7AqTjK2l9iNuNx1MwnuRgXHmbHPinDewwaG4QTIWrHEtDl2q4FqdZHEnvDqCtPTXmIvlWR0qvqAWNivQ64XPLDVCabaPk8IFFwsHE5U3q64WGEgAALldVZIMiXZUVoa18YFqUr6L/3bgMpk7lKPcz5b1SQr1UBVOZLQ7BwN+6TPCnbbLs1/WRWH27GNuV+3aZXk4T6aEeEmPVGrt6NvLxrgjh+EpcHwRTmWCqkE95Mt64MXo5mFLnvNCknOsy7Cmg0N7GlSyRr7BKd5qxkVwnfK5OLXOLWFZz0oFmD+LUvdnP7ry6Ji7v7zgnAMBnKAQd+/fSdveQ/uPOM9gBVe3+1aqQpP8NuF6ZquhnruST6qUmmLoqb2ELRe70Q0l9qChbJJ1pItSzSC86M4mf/+7++OlpCMe7UkT2V1EfvzNey3zRIpgKclePZCrhhQMo4ijapvJj499L5WsdTAmf+2pjMMbMzLpiGR9hr891STAFANCHy/7ilXZ3zShJBVTSdv9Svs7B1K3+NqWX1sFU5aSqqD4OE8LrQVqF31Rn2Zz0QjCVRzjeFeueYOommS8apfmdKunV0/wSMplE7m/yPQ+Z31/K94Y0P8lzX31XxRDBVM6hM2l+ovL+jnMCALwf0apKbjJT1u7m+iP54P1Cvnek+YlX4gTySfUi1bMwza+2X6wObov7xAR6FuolK1chze83gqmb490cQrsX18eL7caDyHxRewCFyx1AEVXSi2l+cYUqbTMGo9fZklWedaaj6FzVB1BE95NeJ9ZLVIZV19rYw/u4liV367UKGp51o2z/l8qtThO+A2s7JSbpYNflJZgCAGiHbOLtOABSekshi/pk4/xszXljembwJBn0iuS70f+2CqYk8sn1ItPz/o7KxAEU53FJ/P4hlT2kShyErMFc6YAPiZ7FerlxAEVx/9/891Lb5ZTCdby0f9c7q6eGG+PdHFK7F9eH0J6fz9nALo8on/JHo+fycI27SKNLPjelbO1N+IbnOH3sUJ5jHm7pdJOcfIcjSAtHrkqvq9LLWoawvPN8PplnN9CrI0N7cdDHdizrZmtRma/Ke7CV7bfHI1h/ZTYKAOBlriY5A+Ljko3668O2dncZOOvlhN9gj2z8MtH4mO3z0dpy+Wr63+xzw7FLTT8j1J9UL1I9V72KJTp6fHbL60lu1ceOWvWRD2Yke7Vq9CI5Gl1Ujq8LpmLd3DzNr3Z8JTmqXmrPz6e7AAAAANCBOylYyDeAfKO8pBgA/DSAAAAAAAAghWAKYCS6CwAAAAAAAk6pbARVAL3pLgAAAAAAAMAT6S4AAAAAAADAE+kuAAAAAAAAwBPpLgAAAAAAAMAT6S4AAAAAAADAE+kuAAAAwMAobzMvJwWA1uBv8Di6CwA9UNpb5/ajVZ2pPFp1e1N29u3oAPAOlDbLW+cvjkOWXjdNk6g9qLrfqOVQ2pvwe2u8kshqXNPjp43b5BvnZbTKOO8q9cL9NpQ3NrQrnb2f9Lnayuy0tV56lTf+Dce9P6PexrbTj9JdgJ/i+H6IdeZlC0w+9c4Ibb1zzhv9YkeujHcEUwCfQZnFb432qvTCTul1G1ftQe39Ri3HpLw9BFhqGQi4q45deeNmb3Xb+lTGDRNMxbK8Ktuv3c84562+vp/0ucqsdrmuzCilvU3Yf+ty9CrvkYK/MeYYqt5Gt9MP012An0NqwO9Be+us1y3uRcMG0AdpUHN5XWV70CKY6lWOzD0uAyVt37ICP86AQnk7x7pT3tzuJ37sfsl+UHs72yhIlz5XeePOKW7K2OiztuUwbl0xuEqta17eiJK/Mea4z5fY6cAE/wQrJFYv6RUul46g1tSLYLnQ2Juzd2tqhgtWbKxJLz8qbf+uc0ulJVMmlD7INzvr9SD5t5Jgal/BstorY4+6eWFFSRnXboZ1dc6DfDk9X9VHIm1QGXdcwettpwCj0CgIqW4PBg2mXmnXysFUZpa8pr2aon5rdt4a9ZH2XoQy3iV0q2/35192v73uMnt4pINU8XN1YvCZGDe01su2UruOv4r6a1reowxpf9Tehtk7B1KD8mM621Imu8vd1d+kdtX6uq+x02E5f6jt7J1zQV5jHIEumwMPRqeUt7dTIdRpNkTbc7pbvKQ4qUUuF0fHyngXD9bXgG2EDY3ilam1w3ZhmdcG7+6M5lKPYUOzdOy3yqLM4ryBrvc6iq+T1Edm1ik1+9HHTgEGoVEQUt0eDBpM3W7X1lnwbJpf6Xthe6WMO7bhq5zOvb+9f6UObg92vu1+gsGstucJv9OgXPzc3Ix/tI+otV52u14nPp3Npsy2LW/0m5I/ilam9J7O+3cf5fU6Njk8q4e/VdhV6+u+yk7HI6Xwq42x+v0nrZycJrVUuF4XyXIymItK/TR1wVS8BLvpP/X5FX/B59/GQ+W1tfdn+JLLtzfr404w1dtOAXrQJAi50R4MGUzdbNdSkzwRxVUrUXuV6bfWGfj3tvev1cFjg59P32+aDtk1zq3B8wvPPUwcb8F3vJ/6zYPUbTU1mfrXuLwblym3gmBKnD7by9968oV2OhDnD0WFPKRtuctOqUy8JDv72UWzCAUnOnZe6aXH6+8+R1UwlRlA5AKMMutS+cmB0psGLxENJirq40Yw9Vk7BRiEJkHIjfagcL/j4ToRN+731nKsh1sU24J1sqh2lvzQXhX6rdNkUPP2/jVbGiZYGf1+kzrv10s9o/K5Oj51Lf698H63/HJn6z+jCYI3lPfS37ZrLoIpcT328rdujG2nX0BKOTcKuUa89QPVdYYuPqJRR05DMFUos1zXNrOv6NamzicEU83sFGAgGq3oVLcHg65MVZVDW9GkyuXK97cEUxkZX9qT9PP3S/R7Lz43uRelZTni5+VWpt5U3utMk/w9b5X/14KpL7XTgTh/eLeQImcQVXDq85o0v3zu8whpfuJI/Q3L0Mn3N2Q2CN6tu3Oan7A+ss7eMJi6a6cAI9Hw4Iaq9mDIYEpeDrUFUlfPuz1LHrdX70vz2w+8eLk+EjPWWbm5X9IOkqdEJp5x+7mp0ypb62Urz8WeqXeUV+Jv23WCND9xm9LF3zrxbXY6HucPrwapi7Ga84ECt/anrL/bnVZ5vZ2uEjnNvpE3fOYDD6D4O7EmOHc/5dja+tlFm5fXDZL3I/olJWZ/9qqXljN8p1kdcX0cbUhpU9xQ+Vk7BRiIlkeK17QHgwZTknKc+o+VVDsim3CRtVfJAyi2PV5xMFXR3ptT+tVr9RAe2FHcdyLZEP9T9zvvE1bapickpM9V8cnEGZ+sKYeAZex1cZrfG8ornuCMJ8/VdgJhOHaK2oLtOmOXPd7qT7Zu/ia106bXfY+dDsrfP9nc2lRQY/TfZrN1j9Ptl8Aejo3dlpW3jukYvaaPRk8Yz8BHo6fkS27yXAcQp2N1X37Z7nEf0a3T/HT4ouGtjo7Hlx6cSlgf8THr4dH32/262SlAT/Y28czR14TX7ddftAe19xu0HKW9I+fnymZNJe3VNOWPRj/MdNe095tuGga28d6H7LXCwd1v3U9746K9I7efq3Ybyo4N7pSjyOI7ovdMtS5vhb+lfMlZnTwgI5Rvvy6q157+1uM0v+fb6dB0F+BlvjK/dZrGSUsEAPgRus2a1rT32radJQfoBP4GX0J3AV5CXb2X4MkQTAEA/AYV7X3qPYwAUAH+Bm3pLkAdh/SyAdP3GnFKScGRAQC+Etp7gM+Bv8Eb6C4AAAAAAADAE+kuAAAAAAAAwBPpLgAAAAAAAMAT6S4AAAAAAADAE+kuAAAAAAAAwBPpLsCLqMNb6AFgBPBL+CawZ4DxwC9hGN79AOWNlb1xWRm3v4naWdm7o5RxX3+s5R29cL/gftp4666PP5VeN02Tn5T2NnyTuDn/pup+Le1lgHK09svtTetdXu44GNjz58vxC/Y8fDs++v16+KXS3oTfNyhH6/K+sxy/4Je96NXPPJj3PsA4563+M8zc267jz2VvxVbeuNlbnao0450zvZX7Mvf0wv3+bMB5Y/Tycuecs0uv29B2uV5n5Kq9XyuGKUfBL1/gVdt6PNhzp3J8vz0P3Y6Pfr9efjkpbw8DUuW1dX52bw6ohinH9/tlF7rZ8+Op/5Fx68zB1dJqMqDR3s42chLl7Wy9jj4zLv7sXDlzLmD6imDqpl64X9pWJIOny+u0tzXyNBh8iv1tlHKU/PIFfr6Tu1Mf2PPr5fh6ex69HR/9fjfsqoU9Z+5xN8Do5pd3y/H1fjkAvfqZZ3LnR+vMwey8LS3TSYMpZbxLVIS2JWfKzUpob8M3Wx9IVeYxDXEpk93l3t+UbbVXxu5pAfN8XHF7C7f08kP301t9CHKmGzUKyri6sjWZyRf62xDlyPiltovfBO2BMm73pbj+lI58zahDJ9fVL2vtr/V12DP23JLe7fjo93uCXwbcX60ZwC/F5fgBv6y1v2/qZ57JCz9WesmVdDa7dKdtVGHano0wUxHFxnKdlcguA4tWpvS+vPx3H+W1cccZj9VBnQtnbZaG560zGHf08kv369AoGOe8UWEAvjTALz9XgsDfupej5JcZn1xk+ftfGXf0tVVO5yJ/6+WXtfY3cCeHPWPP3dvx0e/3BL+U2KuUnn4pLccv+GWt/X1TP/NMXr/JFt0nl4jXDWdunhcjTTnAjcbycvZFEEyJl3O19fMpNXHy6ZTFhvTuRJ5+P8G9665T3ri1sd0PUlFeW1sO+hvvMSn6W+dyFP1S1MmlUnA2medEJ9fBL0cAe/5IOX7Cnkdvx0e/3w27am7Puz1arxudbNfFL4Xl+Am/HIGe9vw8/v7ZlzRTXCp0nc2YI4ON8yRTSq9t3JTx7sqIBcGUuPEsGEo829GU0TuR0e8nrEP5dWsK6WlCQHub+03hfu39rU85dq78UtLJFfxW20Qn18MvRwB7fls5Dvb6C/Y8ejs++v1q7eryuhv2vB4GkApAHuWXhXIcrvkFvxyBXvb8TF6/SXYGo7Bn6hBgZQw717idjD3FNwRTlXrhfvfqUH7ddupQZHslWxt0Jv8d5bj0Szq5dmDPby/Hz9jz6O346PertKvr6yrtWdumK1IbH/dLYTl+xi9HoFc/80xe+PFVbm1mo+f51JzEClZuGVayKiWsKPE7CiqXefcNjy8POir0wv2u67DRRsrT9xk7r3quhIa57M3LcXu1WEcvXXxf+kU7vxwA7Pm95fgpex69HR/9fhV2JbxOas9qC0BelfvwnM/7pbgcP+WXA9Crn3km936ojfXu8tQXdd70p21agdoeNqTl9jOJVqW2igqdR20n1YTGvyw/Hg7EUGotWzBDoq2fXbRZcd2AmJrJMqVl8VqEetmuvdxY+Gv3C65t0SicbGbdE/juPSYyf+tXDplfHjs0pU2y/pIbg11mY3Avv6yxv9bXYc/Yc2t7Hr0dH/1+tf7RwJ53u0rY7t0Vth5+WVOOn/PLGvv7pn7mmdT+YJm1kL+PIH6ztc7OKmh7vO50zTorIZ2FiY+9dFYnD8gI5duvSxjK6RjN3Gpc41mJS70Eckqc5Gfut9VFgoMTS68LbMa643Gqt57b2t96laPCLw/Hyzrrjfp76/yhg419bT2y9jDj19kvP97JYc/Y8xvtedh2fPT7dfLL0l6oJ/mluBw/6pc/0888n+4CiOn2MrWa2Vhtr40Z4IvAL+GbwJ4BxgO/hMHpLsD4VDiTto1nJQAgDX4J3wT2DDAe+CXI6C7A0JyWoHEUgO7gl/BNYM8A44FfQgXdBQAAAAAAAHgi3QUAAAAAAAB4It0FAAAAAAAAeCLdBQAAAAAAAHgi3QUAAAAAAAB4It0FGAx1eHs2AAAAAABAhugDpb1x4ZvBjVcfEkZps7whWXL8pNLehnIaffr+TjmUcU2Pv9zeut3lZXMjoO36FnLTXxYAAAAAgLaE/yhvD4GJ8to6P7s3B1TKeOecN0Z7JYWsaXEAAANmSURBVHlBmrbL9ToXoNwth/LGzd7qtuXr9ubuUVDGO4IpAAAAAPg+gn8ygczdAMO4dUWoJmXuMpjS3jrr9Y17XJZD27esoBBMEUwBAAAAwFdyfdH91Zp1RWh23sZpeDkugill3O2Vo3I5MqtSiTQ1Zbb0wfPeKqWtd/sbs523Rh2Cqf2N2lZ7ZaJrsyttH2ZNoTyWQ2dW9ZQ31gVvCXfeGnsMntZg6lBeZ71mXxoAAAAAPJuLC9bVmpfS/JRe9kI5W0jNC55XCKaMc96ocAC/BCwvl6P0fWZlZZHl739l3BI0bJ+tcjoXrUytAdrh2jXwHGMFS51WE7VN7WXTezqlCn6rjTuu8CmzBFFBAKXMB9JHAQAAAADeS+FLZbxruIKwrdoUU/+KwZTyxq3Bid0G8Mpra8urVYJyFFetRMGU8nZOpR8uK17nYMomAgntbfLzAUjoQJy+qIx3J92oUzAKAAAAAPAwMl+sh0KkApA9VS3F5Ul46ypV7vjxYjC1rIScVzS0t7nfFMpxuKYUxEiCqcK+IG0TwVRG3jECjDh1b/azc6f9ZNoK0z+FK3sAAAAAAA8j8aG2TVekNlqsTNnUMeO5QEZYjlOwE/NTwdS6kmajPVL6XD6CKQAAAAD4cY4fqC0AafmQhnumku+BUsa76DNxOa5WpbZrTsGAjl7u+yVpfrmgMJPmJ3snGMEUAAAAAHwlf//sByhEF4lXIBJoY71reJrfluq3n3y3njwXyldTjstVqf2ZfwN/pdcDFWbBARQucwCFc8kDKFq/46qetax70KvWOky9eDeqi7XMy/XBiiDBFAAAAAB8J3//lPZC1Q/yl9Uo0XumttPepM/dVroyp/mJy5E8GCFNfKy3UcuhFfE9c0ejH/aTrQHj6dpRjkY/yLXV4VZHkb6U9sYdj0Y/pAhuR8sffrvufbttWwAAAAAAQ9BdgG50e5nu5eobAAAAAAA8gO4C/B4EUwAAAAAA30B3AX6KUwoiQRUAAAAAwFPpLgAAAAAAAMAT6S4AAAAAAADAE+kuAAAAAMCj+Odl9JYTAN5OdwEAAAAAHoUkUCKYAvgJugsAAAAA8CgIpgBgpbsAX0f4gl9nzd8LbAEuUd7OzpurF10j3y2Mm/u8W+4x8j27ftHLqHyn/gimAGCaJv8fXeQY+/MU+CMAAAAASUVORK5CYII=;" vertex="1" parent="1">
          <mxGeometry x="17.5" y="196" width="782.5" height="112.19" as="geometry" />
        </mxCell>
        <mxCell id="6FGdKVEJK4fvtbT7j42c-9" value="" style="rounded=0;whiteSpace=wrap;html=1;" vertex="1" parent="1">
          <mxGeometry x="8.75" y="480" width="800" height="670" as="geometry" />
        </mxCell>
        <object label="" id="6FGdKVEJK4fvtbT7j42c-12">
          <mxCell style="verticalLabelPosition=bottom;html=1;verticalAlign=top;align=center;strokeColor=none;fillColor=#00BEF2;shape=mxgraph.azure.computer;pointerEvents=1;" vertex="1" parent="1">
            <mxGeometry x="367.5" y="490" width="80" height="65" as="geometry" />
          </mxCell>
        </object>
        <mxCell id="6FGdKVEJK4fvtbT7j42c-13" value="&lt;div&gt;Server 2&lt;br&gt;&lt;/div&gt;&lt;div&gt;10.242.150.183&lt;br&gt;&lt;/div&gt;&lt;div&gt;MDZ&lt;/div&gt;&lt;div&gt;OTG&lt;br&gt;&lt;/div&gt;&lt;div&gt;&lt;/div&gt;&lt;div&gt;&lt;br&gt;&lt;/div&gt;" style="text;html=1;strokeColor=none;fillColor=none;align=center;verticalAlign=middle;whiteSpace=wrap;rounded=0;" vertex="1" parent="1">
          <mxGeometry x="347.5" y="570" width="120" height="70" as="geometry" />
        </mxCell>
        <mxCell id="6FGdKVEJK4fvtbT7j42c-15" value="" style="shape=image;verticalLabelPosition=bottom;labelBackgroundColor=#ffffff;verticalAlign=top;imageAspect=0;image=data:image/png,iVBORw0KGgoAAAANSUhEUgAAAx4AAAFCCAYAAAB/6QubAAAgAElEQVR4nO2d2ZXrIAxAXQ+tUAmFUIjqcHHMhzdWWzhOnHjuxz3vTeJgsUsgxDAMQwAAAAAAAHgztwsAAAAAAADP53YBAAAAAADg+dwuAAAAAAAAPJ/bBQAAAAAAgOdzuwBqjPNBxjGM4xjEu2C+QCb4FUzwowRn7pbjV+Xbx8kYxJnb5fhe+X67fikX8gsAcBG3C6DCOAnj6IM1QxgGE6wfw+jt+TSNDc5LGHcMGevH9fsUH+xOul6idN2+jE6W5/aVouZzxgYnb8hHgzWtV8q+VR8H+Xi5/Vwt82Pls8FH7USjsN+v2H+3fHv1a5zoF1Qa48vb+uWN5fJ5+tv9b+c3zrcPdv33e8sPAB7BzQIYF0TcwXMm+HEM3ma/G/055dTY4EcJ3po1fevHMGZyWF8bPHcGZ+uDiARn+wZc40Q1SJfPTeWyGTcmWC9hlFR56c7HEdZfPHnq8vFK+k6y9vMuVO35Rvk60bbNj3OqnO+iXb95+e6W99H4cnm/vK9c7q7f97T7C/r5O8plnUtfNTzeXX4A8BBuFkAzkM7PpErodYPkhHILvDm52+DlnDynDY+GLKrJ7RUl5WoF55V8aNP/lBJzRjH4pHydfK0C8UuGR7N+TWUMM8FVxxHF+PJrhsdeu3+i4XFFP3+X4SHu0rS/dtwAgG9gmAbEeXvU2yEY64LsuPZ4idx1ZHF/GjqfS7dld12Akgk1dskpJ2IbuU+trgsqf1qd4WF9e+VSoyQbu51TGUcJ3pnqIK19roZGYW/lQ1V+c30UMuYrsbNbSJoPq97FaOZjfa/GV/pglfGgncYuLPEZozK/He1ZK5+i/LTy6fNRtut2m+txrTCJa+OUF58qOqr20lPOHfIdjVfLGCkuan8745+qfl2QiqFQ65uq8eUt/fKg3i4vl85+dNl81NPup7qL0xNvg2uMqVeMQ73lYrK6cGbHXXeZXy80XK8vPwB4ENsf1o9BRCI/YxOcRMqdcUHyAXGexBIFUPvc+uzBKks0IE6+2jbUdjyMkyA+nUAnI+p4J8KqfG/bxslUTvEkPRkLQy6fRIr8/LxIxd1C8VyzrA5dlOr5UJffrGwkdTxPnLkrWG60qM/m7OWjx/DYS0fbTtf8xkbY5A5WGuadq4a79aUsP618PfmI28QpN8AYu7rSmShv1km2AtzRXjrLeVe+rnFNkmeXs2fN/nbQjmt5qxkemvHl+n6prLery0Vbv++Yj1Tt2WSuukMYjAl+z7C4YhxSlouZ6yeZP2SaP4pyaRgzrxoAl5cfADyJ7Y/6WYD4+8ZAnU2g2ueGYeg0PGJjIzc8TPDSmOisb+ZrWQVSnSfYcZlYBvZNcTfBeh8NpDW3iuW3cblrn6tQm8DU+egoP+sbq4+KczdnFYqT7K0yqtvpnN8yX1MbTD7vVIi73clq6Wvl68nHzBWGx0tuF63yvNDwULcD44IUxm62ONNTv2rDQzO+DJf3S3W9XV0uyvp9y3ykyrvtjkx1yTikKpfG/FGtozSvV7pHXV1+APAotj9a7jcTe2cq9gyCgzS6DI/lkLkp09pZvTmO9jKt4pXnSFLag+m8DV47h7K8dyeficGnfS5nXnXUKOvVfPSU386EnSobuZvGGEbJV7nP5+OQXYWro52q86tszyr5OspPK19PPg7bvP65/XHlRH57y3lXvo520HhnU8E+ql+14aEYX7rqV1fO6nq7ulxU9fum+Ujb7hPXKNlfKLlqHNKUy873R338c4ZHZ/kBwNPY/vh+w2MofENXeasH0Ps42vFpr+AtUZl23G7eaXhY3zVwV/PRU34qBWfeoclctwa7U9+d+XitPu83PPbl6yi/Rxgene3lBwyPo/GklV5tx+NwfFHXr76c32V4HJaLqn5vNjwKeSfXqNrYddk4pCmXHsMjOtv5WVervvIDgMex/XE00TS/L7a2dc8Nw9AV1Wo/I/tb+xqOdxTaink1PntyePQ9rlZmUda1+Wzmo6P8NC4dnS4y3fnQ5PNgVVXdTt/hanUkX0/5/YCr1eG5nl6XqktdrZTtoEfBVoX7NpVIVfX+fzy+DJf3S/WdE5eXi65+3zIfKdrLnjz1neSLxiFVufS7Wi3v1+9MHnNZ+QHAE9n+OBx43nW4PB4QzXyHQzJYd4S6HfM496Y4OD4dvvPBmijqz3JBYSPt40nYRm5gW37j8qweGl98t48Ol+89l8myV4+7+VCWX/sQa5zf2Y83vitliaZU8yXvyYficLl+VVV5uFyyOpkPZRfyqdqzRj59+anl68lHXDcXHS7PD5NO+VnKvyO/HeWskq9rXNMp2GolyvrkkPiRO+fe+HJ1v9TV25vKRVO/Nx0un8ZQV6ZXGY8uHYeU5VKMp0sUs0Z+l3p6deHuHeUHAI9k52br6oR/ffjCPPyjeFtEXdmMhenvZhSqzBVrlClUZPnOLWSwJryiajUo81stos5U8rqEyc3PUWiea99IvneQ8di43Cu/JCzrUdjO5PslNO9ylmQz8rrzcWR4zKuMqt0TTTvVhinVtmetfMryU8unfG6vPvKVZPWZquxm+rVczuRXWc698qnC6SaypCFOE7fPjjuG4hDWtfC6mvHlHf1SVW9vLBfNvHDlfKRtL5NSbadIg9E4WVzsePU41FEu9XC6tfHyqlvL31B+APBUbhdATXLHxJVuOfAoLr+86uKL2W6T79cumPtRuDyNcvnG/O67vl19IS8AQJPbBQD4br5dYcfwAIAdjOp+JwCAj3C7AABfS+E+8GWKu1a+b88HAFxIHrGKcLUA8D3cLgAAAAAAADyf2wUAAAAAAIDnc7sAAAAAAADwfG4XAAAAAAAAns/tAgAAAAAAwPO5XYCfwInyxl0AAAAAAKhx38vXm7hrN6R/TIb0Ft9W2MF9wyO9qRcDBe7GCW0RAAAAvo5Uad6Q4O0HlBbjgtxleMy3tl4Z3/zbbquF/wttEQAAAL6M6T9OJLhEATfByRi8fbMAdxoe822uV6aJsgffAm0RAAAAvozpP6XhMYRpN8QHE39mbPCiuRHVBOcl3UFxvjQyMsMjuWE5+VySHRnxLpj8vdFtrd4OwVgXpOZyYlzqXhWRGlr9LlRHyp4qHwCdGBu7DErwztTb4hv6b5yeeBuc/8CCBQAAAPwi03/qhsdkCKxKhHFBckXF2OCL304KuzgbGS0mWCflDkNmeBgnQcQlxo5xEsTb9DM7y1LJlPVjEJFJqZ/fXc1fx46HdvV477nefABoWPvM0r7NZDSISGlwX9p/TfC5S6YxwX9ipxQAAAB+kek/e4bHorxYX39msD6M3q5/d7l4rIaHCdZPinn6jAlesl2X6L2198Qy7/JRw6M/HwDHmODHmuFqioAI1/dfG/zYSBMAAACgZPrPseFhGwrOUHxne1wtjAsiEnwratSOW9Q4jonCNPS+/5OGx4l8AByyc0YqNcDf1X9j1y0pd1QAAAAANqb/HLtavdHwGCX46m7HsCpW1Z2CBl9reHTmA+CQuw2PQp7JdQvjAwAAACpM/9k7XH6okFRcNdQr+JHiZH1t5b9xPmOHrzQ8TuQD4JgeV6s39N8KaldHAAAA+G9M/ymUYjMpyomi0nk4NT90ap0v781IVmxLZWkYhjlalQSX3CsyH3b9FVerE/kA0FA9XC6vHy4/6r+TgeLK9Dj3AQAAAHUaFwhKriDPaMNxGhucpOE4i4hOxc3lqSy50ZO+V4J3qbKehOJN8pIZF1HY3fzSxFhhaqaXncnQPqfNB0AvrXC6RRu8uP+Ks1MEraNxAwAAAOALBAAAAAAAgOdzuwAAAAAAAPB8bhcAAAAAAACez+0CAAAAAADA87ldAAAAAAAAeD63CwAAAAAAAM/ndgEAAAAAAOD53C4AAAAAAAA8n9sFAAAAAACA53O7AAAAYRhs8ON2q7o4bkAHAAB4GPFkL8GZIQzGBVk/88EOQ7B+UwjW56yPPhvD6G0YhiE4GdPPRx/Mq4IaE5yXLU3xkwzr97HMFcRl6dngRYJIlJ51QfLndjFbXsWleYzlmculKK8Ib6ffGSeNZyR4iyIG/wPjBMMDAADgeQxhMj4mA2P7ovyspQy0Prd+Urqt3xTrc0zGkXi7KvfG+iCRwj6Y1GhI3pl9N/0tqeEymGCsLw0UlWySGA9LmYwiTUNmV7HK5R2GYKxL8wvwYDA8AAAAHskQ3mN4mOAXRdn6bdX/BIsBU3xn/bab0mF4vG4IleXknERGy7QTIt5fZngsche/MS74aIdJvA3u0vzBL2B9ulMm3gWTGNbHO5vrjt2yGxjvtrnN6F937sSvO37i7boYsKY/RDul3gbjfJrmzg7ekeFxnN8lL/QPAACAL2IIbzE8YqOgmr6W/d86mZUIteHxiiw78hkXJHFBmz+7dMej3KXxuQJnTPCCYvWfME6S3cC1vUilT0vaXsxsMKeukKZQ4gvjfzZaxNvJUFncMs2W5vrsbKiIxMaBCda3+8Be/9Dnl/4BAADwZQwhP9QZn804a3jkikp1tV7DjvK+J1NzV+MgvX42QyZ2LRu93X3XoeFRqY/y+cnNy9VWeuGfYIKXxhkq6xttZgzemqkNFkZHg6q74vbbXdfGZBEil6Uue7t/9OSX/gEAAPBlDOHyHQ9TWZ0/dX5i+IDhURpdfQZSVE7R4fHaLoxG7maezXyQPXc5MzZyJZFp1RdF6/9wFFSh6uIY7VBU080COYxjGCXbxeg5U7XjaumKs1YTzf7Rm1/6BwAAwDcxzJP5dYbHXmSm/tVHpatV9nn7HMdOeqd2Q9L0Jp/3+rmTvTLTyWGOV3Bn/3yUq39CtvOgwVg/KeHVYAXL+aTUlWnII77daXh05jf9Pf0DAADgRga14dFSIHIl30l91+BspBrV4fIDmWJaxsoVhoc2vbOGR0tRy/NORKD/gq5NrCznj4ZhVcKTvtBqew1Xq+XvT7padeW3Av0DAADgNga94TGvhiaHU3OlouZmFX93arVSEU43YzdylXFVl4vz4XQ/Y3jY7CCwcRJG79J8GPza/x3zDoZLokSZqb3EBvsa9CD6rbFZaOm5/axpmWCXaFSvGB5zaOn8cHmrj+72D2V+6R8AAADfRnKpXS3MZqbAJz7TWRjLxoWCw5BfQHgiqtTRBYIz5eWFjdXNLB+7ITmbMmX+5mt+TSZHeQak/wLBKc+xEjUpZzY4H4U+lVwhg39BFjZ2lCkE7vp90vaWHY9GP7c++XzqF8uzPthKWkv/FmeidKN2n4TbrYfTTceIo7MbB/kd6B8AAABfyO0CAMCTefEeHwAAAHgMtwsAAE8GwwMAAAAmbhcAAB5K4T6FAQIAAPCfuV0AAAAAAAB4Pje89OgSsNbBduQDAAAAAPhVbhcAAAAAAACez+0CAAAAAADA87ldAAAAAAAAeD63C/AWnDQuDgR4MLR7AAAA+GJuF+AtoIDBf+S3270NPr4xvZkP7XMAAADwZcSTuARnhiyqkw/2fiEB4BsxLoi4y9M1TlQGhfY5AAAA+AqGMBkfuYFR+wwAIALDAwAAAPQMQWV4WD/tgERKhnGS7pQszxobvEi0ayLBOxtMlL6Txo5KvNsSvct6Se7PEO+CMXlmcMGA/4ii3cf91/qoj/lgi340hMG44CXubzY4H99bk74zJe/Tx+NBzqcMj/VmdW+DcT6V0UbpLuXXHAO5lR0AAEDBENQ7Ho3VTSeZ4TGYwiiwPp+Y93ZUTHCyfWecBPGpomKsCyLtHRlWQuE/stvujQsiMvUbsz0/jj4zAkzwueJtTPBSuTBTteOhGQ868nHiuV1mo0IkXswwwfo0beMkjOIKg2n5/O66BwAA+AGG0F69PGt4VKj8tvm75FkTvOSK0Yz1TaUDwwP+I4eGR747OZhKP7TBF881OOtqdfC7zxsetTFmWhwxyd+58VX7DAAAABoM4R07Hi5zjRqlXBU0TtYJ28m4rSZav62GJgfdKzRWTTE84D9yvOOhXDgwNnK1SndJNGmm6MYDdT5OPLdLPN4clE2+u9HaBQEAAIAqw6zcX2V4mCmkZ+YaNdjKb60P4u2UrvfrKquNfcnnd/ZO7Bge8B+5zPAofjud0yiMj0PDo2M80ObjxHO7dBge6Q6HYbcDAACgj+FFwyNzy2gpIq3filuVB+vHIM5WDBml20cEhgf8R95meAzD3D+NKs3D73/S1Wp75yguGOvZ7QAAAOhj0BsemZFh7OIGFSsu8zPrwVQT7BItpqH0yKL4xIc84+esn94RH3YdTLBOcLUCiLjC8DBOwuhdurthGuc+8nMjxswR6BaFvW88UOWj97k1ilfDwLI+jCLVw+X13YztTBxjDAAAQA9xmMjqBYKpK0ESclJ8cGYLjbs+F4frXEPfLmmmxkzqMz25LlSNiSy85yhTSM74mTU0ZsdZEIBfR9Xuk36+9ME0qMTSfydl3gbnoxC4khv+G8amYWjF2zSKlXI80Pbf7n6uMTy8LfLhG/ldyqi+SwIAAAA73C4AAMB97JzxaOGE3Q4AAIAT3C4AAMB99BoeVddUAAAAUHC7AAAAt1C4bTUNkPpdR0S0AgAA6OJ2AQAAAAAA4PncLgAAAAAAADyf2wUAAAAAAIDnc7sAAAAAAADwfG4XAAAAAAAAns/tAgAAAAAAwPO5XYBD2jcV12PpG7fduCzeNW8Xvvo5gKfiZG7/py7NS0PRcvEeAADAv2WYLtCqKvaVOPXGBi/RM+KDc5IoE05KAyFV1s32jGSKvHGrkr/E1Le+pqzY4CuGh8lkyf9+13MAT+eKtk//AQAA+NekH+wrBjZ4keBM9Lz1QRqrmNZPxoP1tYu2bPCjFMaNcRJGkSDi9gWv3jZsKsaICU7Kz659DuD5YHgAAADAi6Qf7CoG1oexYhDUdyRM8ItRUTUSph0L5yRKc9oJEe8PDY+qMWNckMrNw8WzVz+nYHUX8zYY57ddnVGCt1HZxbtPURkYJ4rbleFfsbQV8ZsrlLfrYsA4posEwzBUdyxt/swwRGnMbdSZdGxY311ro5X3Rs/sGR7WS7JbKt4FU0vLuCQf4m1wJ/olAAAAfJT0g8Mdj3GclJCjhK2PXKxqblHzZ8YFWRSV+TfWuAPDwwRfU26qBk7FULj6OS2zsiYSK1MmWF+6cxUuaNHnX9Bo4FuYXRPF28moWM4+mUp7MS5IbmiYyi6mk7SNGhOclyCSjQ2NfurknOFhnEyGU/yZnWVOnp36f2KwGxO8YHgAAAB8OekHh64Qxk5KSHzGw7bdrOK/03Q3YyR2yRq9bSo0K42dl98wPPLzLltZmOTv/B21z+DfM/eVpe0kbTPrR9Y3DIKkndfcC6fPnYxvNDxM8FLrG5N85djRfgcAAAB8LekHfT7YZlqRzBXieBdj+awwFqJdkMi9yNvh0PBoyvgLhkfDTSpX1vLV6tYuCPxzCuOiZXjUgzEU3+30vWLx4ErDIw4qUSPvN4nLmJQ7OQAAAPCNpB+cOfxpnCSKQXIeISFWSFJFaPJRn1c8DwyPpmLT+F317MaVz2npMDzSHQ7DbgfUeZLh8YphPbuMYXwAAAB8NekHe4ZHS+HOf1O4ZFSf21GE9gyPXQVlctfQRKa69jklalerrbxGccHMu0XsdkCB2vDYMZgvdbXad4Pac7XaM1g01INcAAAAwBeRfnBkeIyjpGc68sOpNTerIfpuVaDPGR757kqB9cFr7t24+rn52WY0ofn7JVRwfri8vpuxXbyGQgVVOgyPlw6XS+VweWZkLG6Xp6NaWV+OL4MJtraj6l2ZD859AAAAfDuD+gJB68fgXeUCwWWyz9PJDpcf+2+b7PLB0jDRuDnFITlr4XDf9ZzK8EjCnVbC6WZMbmuNQ7fwv0n6WxSoYTFU13MTUT96MZxu3q+T0NDzWLD04aWf6vr+Ip/L5JPgXfrMZLzkQS5ygwUAAAC+kNsF+D/snPFo0XJbAwAAAAD4MW4X4P/Qa3gYF+TseRIAAAAAgO/idgH+BYW7SdMA2c51tFzeAAAAAAB+kNsFAAAAAACA53O7AAAAAAAA8HxuFwAAAAAAAJ7P7QIAAAAAAMDzuV0AAAAAAAB4PrcLAADwFXBvDgAAwFu5XYBD2jcf1++4MG670Vi8a976ffVz8H9YbudGSf0NkhvWd25sx/AAAAB4K8N0sV1Vsa/cH2Fs8JJO4M5JMlk7KQ2EVFk32zOSKfLGbQrCfNeF9TVlwAZfMTxMJkv+97ueU2Ns8CKZAhTnJb7HQ4IzWZlEeT4u59hom9Oq1Xd8p8gsn0hUv9YFEVf/bau9JDJXZCjKxQTn03KpPnsk3wd5uS3AZ1gu4my1PQAAAPgU6Qf7ytSk9MUKobHTSmLtN9ZPSq31tQvwbPCjFMaNcRJGkWNFsnoLuKkYIyY4KT+79jklxgURH6yNysosRlicZs2oqhtax+U816lIGLMyLerauCCSGwcmGOvT3+Z/R3LU6/movCZjS7xdDaelXSXpaeX7EBgeP8JN7QMAAAAK0g92lakdhbP8jQl+URyrRsKkkDoXK8STEi7eHxoeVSXXuCCVG8GLZ69+Ton1rRX/XDnvMTyOynmpU7c916hrdb4uNjwWw6n6nmgX52y519Odd0sWlylvV2OntjOzfTd97535CsNj3dHyNnMnkuBjAzfeqYrqzjhp7Hy5ZGdTvA0uLv+1DF0Y4rKJXZg6ylmdjx6qu261ndx4l7HlanW8E4kLJgAAwCHpB4c7HuM4KV1HCSdK444ibVyQZSKff2PNkeuMCb7mttNQvAuF9ernVGhW/veebfz+sJy3OjWzkWeyz7vliw2Pw7o6Snf/eydLWfeUn4JZaRRvJ/etxY3NDGs5JeUnLpilvc1uYSL3Gx5bGxhTGQcTrC/dBAvXxqHM79K/fLYz56W+AyWRsTEZMpES3lHO2nycKh/ljodmxzcul1aZAgAAQJX0g8NVXGMnpSv2xa+sSOar2OWuyKZIxq5Co7fHymxLkfhmw+NQQY9JV2D3DtMfl3NcpybZ9Ujquke+/JzHK4bHwXtXGbvKT18f1d2U5F01d7vp8685iJztDOVlb5K/66v95Wc753HiMiyeM8HF7nDqcu7Jx4nyucTwiMvLbAbp3fUPAADwO6Qf9LmPmGCsq/vi5wpJMflHCmmkyHo76JXR/LtHGR6KHQ9VOWflNX9v8s8L+UrjJ09Dl693GR478p2oj6ZCvCNf3cXwBhrtdBiG1AgY6rs51RX7JIhEuqtxVHc1w+OwnDvz0V0+lxkecdu7cAcOAADgf5B+cMZv3ThJFIbEb7wZ1ShVSJcD1mYYDpXRphLS+F317MaVz6nocBVaovAc/F5Xznmdbiv1alermoLY2nEqPq+nu9XhBa5WZ3ZD/qnhke5wmMpuR6u8JjejxPj4p4aHsX4yxrRlBwAAAAvpB3sT727UpCyc7nFo2pOKZOa6kWKCV0amuvY5HdaLUsnTGR66cq7U6XKWplJvVfneanjoD5er5dOgVoif5Gq1tYdR3BoNTOsqVBha7zA8vt3Vauk7w7AaYxgfAAAAatIPjgyPcZT0TIfJQuxW/b6j71ZF55zhke+uFFgfvObejaufU1EeTh0GE6zzkytLnP8jw0NdznWZnYzl4egl3G8lopMmnO5Zw6MvnK5CvkieVpSqHoW4erhcvuxwuWQyzoey60rx5qbWMlxH77Ldjcq5j3cYHl356CmfCwyPNfhFWi5liGcAAABoMKgvELR+DN5VLhBUXEzXvn08fi66WHDnMPWREmKji+hq4XDf9ZwOk6Q3Zgp3Woa1sJ1j8F5bzj74rNzzcKiFkpVfEDnOt7W36jgndlHae65QYnsuENyRL6ZleCR5iAIcLOWxyr61v1Y43SIM7R3MLkqFjDthaIvoU9l34vIgEtmCQ6UM83M3aTtVlPOJfByWi6LtqcamWn7zfsnOBwAAwBG3CwAAr7BzNqLF17iJvZgPAAAA+CluFwAAXqFXYa+68n0BGB4AAABP53YBAOAkhZtQU3Gv3w3zLe5B+nwAAADAD3O7AAAAAAAA8HxuF+B3OTxA/X0rywA/C/0NAADg17ldAAAAAAAAeD63CwAAAAAAAM/ndgEAAAAAAOD53C4AAPwTvvL+EAAAAPgUtwsAAP8EDA8AAID/TDVSjARnKg9br48iY2zwItsz4oM1Nvjl4rKdtOL0tvj+kUz5b+OY/8YGL2PyXudkU3aU7wUAOI1xQcT9/nvvygcAADyV5T+RUaDAxMp8jnFBxAdro++NCU7GMMbvsD6MlUnN+tQAME6CiBTPljJMxk5sNBnrg4zZKqvyvQAAp8DwAAAAqLH85zrDw/rGjkn+jh7Dw7ngx9rnOoMCwwMeS7SL5+0QjHVB5l2/vI9aL8kOn3gXTKWvLgb7stvorQnGybbDuLwz6kfr98WOaXprenPB4qp8rLL5ebFjDOJtlKdyfDoslzi/cdmID3YnrymV8dW4ZIdWvA3u1DikfW/83FwOya63D+ZMPgAAAHQs/7nK8OhIJzYAdlbWlncZN+16mKYM02TpnVmfeeW9AL+E9WMQkUlpHoYwDCa4aAfQOJkU8Og3k3Kf9tfluTVtY4Lz065j0t8afcdJa+HhYKf0ynzMyrR4O7lfLgqzGdZxJM/vUblM+ZXp80iWTVnPnz0aV0zws1EXl7WXFxZAVO+ddobj9+Zja196AAAAapb/XGR49ExU+XmLA8Njmqi3Sbkqg7GTkhSf8bDm1HsBfoliZy/BBC8VBXkYphX89XemMQ6Y8mD4Ow2PV/Mxy2aiNFdlPpFbWy7z74rdElPPr9YAaJ2nO4t6/J0XaeadLKkZHV3pAQAAqFj+c5Ph0bHjEf/G7MmwYqaVy/zQODse8EB2XQWrQSQqARp2+kNhELzR8Lg6H03DQ5teb36140oSDCPdTTlF13gW7QRdkh4AAMAhy3/qhkdLibjc1Wrn8/Rd28qrRolZfp8oEPlk2YgAACAASURBVMr3AvwShwp7a1W78lwr/a8wPE7kY9fw0KTXm9+zCvscDfC08dHxXmP9ZOzsRfPD8AAAgGtZ/nOV4TEd1FT5KJ8yPObvRx9s9nlLYdEeQsfwgF9mPzhCwyWo8txrrlb77kMvGx7afGgND3W5tPJ7seExHLmanZOxYBlDh2E1dqpljuEBAADXsvznOsOjdnhxGEywzqcHNs8aHsN8EZmUhsc4Snqmw5QhdjE84IkcRmWbV7hd0S/LHUHV4fLMyFjcGpv3AA1XGB7KfKgNj45y6TU84nIwZo6c5ZPgGKN36e6G2THcdqJy9bx3NTqy98rJfAAAAOg58nHeu7hv9+I9UwlRabPJb+e98wS/XSCYvWf+fbHj4SoXCNbCYh68F+BXyPvIblvOwreOIsE7WzzXCqebGw3GpaFlnRnWELblJaD7Zyguy0fSx6eFjiVtcSY615FGwdotl0qaecjZfAzMy1C8TUL0TuWZB8PIDaAhkeHQ8Dh6by0f2RzQmw8AAIAObhcAAH4A7ZkqAAAAgAa3CwAAPwCGBwAAALzI7QIAwBdTuED50jULAAAAQMHtAgAAAAAAwPO5XQAAAAAAAHg+twsAAAAAAADP53YBAAAAAADg+dwuAAAAAAAAPJ/bBQAAAAAAgOfznoSrtxCL224ujzBuu7lXfP2ZdzwHAAAAAAAfwknDKDBuVd6XuP3rsyu+qdRbPwZvjwXILyVrXVJ29XMAj8K4IOL+z3sBAADgF7HBjxLGMTUUjJMwilSVCusnY2TPuNAZHib40Qebfeak/Oza5wAeBoYHAAAAfD82+NEH5ySMqwJhgpMxiPcVpcIEvxgp1jdvMVYZHsYFqfy++O3VzylYXcW8Dcb5bfdnlOBttINifeJKtnxunHDTM3wAG3zu0hjtSOYGt/WSPCPeBWMq6RoXvMTP2eCSftT3XgAAAIBhMTyscUFGCc4MszI9f5YbHvN3k4uVrewwTBRnPMRPaedpaQyFq5/TMhsVIrFyZoL1pTtX7fyKSYw5gDei2HkwToJ4m7RTY12Q6s5hZmAbE7xU+hE7HgAAAKBnMx5iF6rR26pSsX4X/a06Q2Fs8CKp8fEThkftHMtUZib5O39H7TOAN3FoAJjgpXEmy/qsD0/ul8VCwan3AgAAAKxEuxaR25C3Q6lUxLsiy2fWq1f1i4Pev2B4NNykXGZE5bsbrV0QgLdwZADEwSJq5O3c2MjVSqZdkYZLFoYHAAAAKEndpabIVfPKaKZUJOcWEnSro4Xh0VBaqmc3rnxOS4fhke5wGHY74LNoDI9XDOF5x7IwPjA8AAAAQE/7nEauVDipu1VpQ9aWblmT+4cmMtW1zylRu1pt5TCKC2beBWK3Az6GwtWqNJb7qLpVYngAAACAHqXhUXOzyp5bFO1JAffBmk1JsU7q0W6sD15z78bVz83Pyt6OjfVrSOH8cHl9N2OL9MPdIfBR8v5pzBzBKjKQrZ/auk2Nf+sk2dkzTsLoXbq7YRrnPjTvBQAAABiGMEjVz9tULgus+4On0as2w8LYLBynuLqP+JCG+KyFw33XcyrDw9tg7E443QzjULrgHvJ2Kt6WoXKzMLmjSPAu7SOTsW6D87KlJ7nB0vleAAAAgC8Q4HvZOePRouWOBgAAAADwz7ldgO+l1/AwLgiXpwEAAAAA1LhdgK+kuACxaYDUb3AmohUAAAAAQMLtAgAAAAAAwPO5XQAAAAAAAHg+twsAAAAAAADP53YBAAAAAADg+dwuAAAAAAAAPJ/bBQAAAAAAgOfznoSLcLTjGEZx1Ru9jdtuSBZff+Ydz8H/wc23dXO5IwAAAMBNLApZYRQYtyrvyx0W67MrvqnUW6+7y8I4SZTB/O93PafG2OBFIuPJB2ts8OtFgfE9HhKcycouulBQU36bwTanNQzTRYatO0Vm+UQ2+Zx1QcTVf9u6bySRuSJDUS4mOJ+WS/XZI/k+yMtt4Zsx95QpUG8AAAAd2OBHKS69M07CKFKdFK2flN8940JneJhIgd8+c1J+du1zSowLIj5YGymrxswGRJymrby39pmu/IyTICJhzMq+UJyNCyK5cWCCsT79bf73bh215U6fGYN4uxpOxvog+cWJWvk+BIYHfB3UGwAA/C8mRdO5WNGdlGvxvjIpmuAXBdP65o3eKsPDuCCV3xe/vfo5Jda3Vvxz5bzH8Dguv0lBdttzyecmdOfrYsNjMZyq74l2cc6Wez3debdkcZnydjV2ajsz23fT996Zhxoe8Y5buaOW1GO0++XtEIx1605UatDOu1RJ+dlkd27dmfM2GJeVtT1fxkm9zbtoNTc5G++2LS6VppJXcWHI0rSVPn2Y3sXl11Vva5qx22olH1r5FKjrN95RjcYY46LybMwRAADwL5kVTeOCLArcrEDa2mpcolwerOqP6URZKPENxbtQWK9+ToVm5X/v2cbvFeW3KMhmNgZN9nm3fLHhcbjCepTu/vdOlrLuKT8FsyuYeDspYYuCZoa1nJLyk0hxnN3CRJ5oeETlo1w5t36cymI9/2SCS3amTKF0V43NWelMynowwfpz5by297jeRIpdM+Mk2W0bhkXJztrbvOMmkZI+KcSpi6M6vavLT1tvy85rnOZs3NQWRo7lU6Ks33ycyj+/vW8AAMA3sSmIsQvQ6G11UswnUOuVq2m1ifKbDY8uF4jW6mWpuGjKbzMwTLLrkRgePfLl5zxeMTwO3rvKeLULyZxedTcleVfN3W763MmDD5f3Gh695XC4CFG2ob6gDo16ixdEluekkbb1pStisRtWGgnq9K4uP2W9NXded8a7S9q5un5tsTtb/wwAACBWNLOt+mJSrE3kHf76havLowwPxY6HsvyScpq/N/nnhXyl8ZOnocvXuwyPHflO1EfT8NiR7zKF7BvpNDz2+0MWOGAcw1g5c7Tnatm9wr4jf5JWNQhCK/BCPc3T6V1dfqp62+uP9e8udXFU1m9t17EVxRAAAP416eS1HJw2w1BMionfrjb6UUT9cLTi7MHVz6nocBUyLojC8NCWX1pO20q92tUqL4eWcVj9vJ7upmhc4Gp1ZjcEw6OrfPbY7w/L+a7sTEItEtldhodWodUaHp0K8mXlp6q33zA80h0Ow24HAAC00CuILVcV7aHdUvGb3Bw0kamufU6H9aKbPJWGh7b8qjtDow82+3xT8vfr7VrDQ3+4XC2fBq3hgavVIbuKaY9L0E2uVmqjRmN4nDj/cFn5Keut+b5Lz7Q10u+o33WXI9qlvaRtAwDAk1AaHlV/6fS5+BD0FHUlikIzH+qsHbb2mns3rn5OxXQuJY3SY4J1Pj14qjE8Ossvl9nJWB6Orh06HQZ1ON2zhkdfOF2FfJE8rShVesOjcbhc/sHh8rjcjJkjNdXvimkrplN4bWe3HTe7RDWqGR6SlfV8+PiM4rvW25qn5Q6YintiIuMip/S7WvWkd3X5aevtxOFybbS7Zn87Vb+bO+Vj+xkAALyGVP2Zl7sqjv2e0+hVm8JqrEvCP4q4ahjLKY3NBakWDvddz+kwoQy1GblRJAe3axcIjsH79gWAefn5LBrYOsEvEWbyCT0PszlmoUAPLhBMzn7sPZcrJ10XCO7IF9NShJI8RIEQlvJYZY/bXz2c7pPDe+Z5Fm+Tci4izbWCDSTpLPVVlvGy4l6U9eXhdOuGaBpedgpZu9dm8nNGuZG8m947yk9Zb9V+VDHo1fId9bcX6rcWNQwAACDidgEA4BfZOQNwJadCwcIt9ftod0YAALiC2wUAgF/kA4YH5wV+qH6rLqcAAAAJtwsAAD9G4dZzlQFS3DlTv2kcvqV+63cYEdEKAAAa3C4AAAAAAAA8n9sF+ByHB6hZsQO4DPobAAAApNwuAAAAAAAAPJ/bBQAAAAAAgOdzuwAAAAAAAPB8bhcgDAPx3wEAAAAAHs71ia43RLduzK2A4QEAAHA9br71njkWAG5ni9ce3Q6cx9I/E6PfuCAdhgcAvAD97Tf59nozNniR7F4VG/x6UWB8j8c8hyTRzLYLBRfld4y+yy+G7J6PZvlENvmcjco0/20rmlo1AlskQ1EuJjiflkv12SP5PohxguEBAN/APCCJFDsULw1U3z6hAjwJ+ttv8s31ZlwQ8cHaaA4wZjYg4hvKY0Nk77MJ6yfjwfp6GGX1fGRcEMmNA7Pedr9+lv8dyVG+vy13+swYxNvVcDLWB8nDQmvl+xAYHgDwJSwDkgs+GzirA5WxwccrV62bhbMJNbkJd/08vfW2OSguq0bRSpR3tlgtA/h/1G+Ozlebh2FIVn+9HYKxbl2JTRW64/629mdvg3E+fdaeV24WBS5eRa65idh4tXkcg3gXjKnkVVwYsjRr49VheheXX1e9rWkejLta+ZRY31rxz5XzHsPDbPOM9dXddO181DJcCi42PBbDqfqeaBdHLZ9G/qU/LPXpbdRXynpK+tEowTuD4QEA38I2oBs3rTKtqzjVFaZswpsn2WKCygyPaRXLNY2F/UHRFEpAc/AH+I90rJxbPwYRmZTrYQjDYIJL+rCyv80KkUispJtg/TkFZx1/lrTMJFe+amycJKvNw7Ao2ZnCOK84x2PWdP4sdfFRp3d1+WnrrWfcVcmnQbPyv/ds4/eJcl5/RjcfdcgXGx6H5X2U7v73ThZjo6f8FMyuYOLtVPeLgWq2fpOUX96P/NSPMDwA4AuIB3STrDKVK0yNyau2crUO8LMicmAkdK/GfLOLAsCn6TU8ehWQWvrZCu/GpHT17UiauqJmXJAxVeq9NNK2vlwoKVaDSyNBnd7V5aest65x96x8L7Sn9u5NWZ+5AVaTVTUf9ciXn/N4xfA4eO8q49Xz05xedTcleVejHw2GAC4A8C1kA/q8OmTyz3cH5Mp382qjVw52RzseLnOFGCs+wAD/lk7DY98FRNnfGorvMAz9K+w78idpVQ8Btw4e19M8nd7V5aeqt85xVyXfte1JveNRMwQrblCq+aiQrzR+8jReL+/j37cNjx35TtRH0/DYke8SgxQA4HVypX9bGXnZ8BgleMVuRylDzCxP5gox3BQZBOAruczw6OhvdxkeOy6bmjRPp3d1+anq7SbDo8dVyLggCsNjDbN+ED3q5fkoL9PWYe7q5/V0tzZzgavVmd0QDA8AeA4VpX92obDaw3y7rla68xhNw+MFFwWAf8NVhkdPf7vJ1Upt1GgMjxPnHy4rP2W9dY27R/J1YL3o0lEaHi1Xn3zs185Hm5J/UKaXGh76w+Vq+TRoDQ9crQDg+6kr/U7G8jDa6cPlx4Nee8fDBj9KcHZbAbNLFB0MD4CJXEE3Zo7UVL8roa1QdvQ368Mo2UHW+UzXGcW3CECx3oFQcc9JZFzklH5Xq570ri4/bb2dOFx+STSlYXqHL8rFpwfvNYZH9bxNWk/NoCZDx3w0DOpwumcNj75wugr5InlaUar0hkfjcLlwuBwAvoQkzG08cC4Ra06E0y1vLk/9W5d35O9u+lYnoQGXUJeLb/aFkUMAfpg8hKZ4m0RXava3ikGh6m/zinsRuvPycLp1RSwdh6aQtXEeykPO9XFIld47yk9Zb5N8x+OuWr4uFkMozk/kRpaUc+0CwTF4374AMJXZB//qfLSWd02+nbI5OuuTGwNdFwjuyFdtNzXDOG3LS7mt50myttUKp9s6twQA8EFuFwAAfpGdMx5X0h8KFgAAAL6U2wUAgF/kA4bH4pbCZaEAAACP4HYBAODHKNx6rjJAijsX6jeNAwAAwE9yuwAAAAAAAPB8bhcAAJ7I4YHdxkFvoD4AAOCp3C4AAAAAAAA8n9sFAAAAAACA53O7AAAAAAAA8HxuFyAMw3B4szkAAECN2+aPvRvZAQCgxvWJljeXH4PhAQAAMcalt8C3witjeAAA/AhbPP5o8Mxj6Z+J0W9ckA7D4+MYE5yXZEJLJo+jCDB53owNXiSIROnZ3jIwwcmWfnJpWizPUh95PVWi0qxGYIEEbzH0HsO39zeg3s6Uzcg9LgAAD2NSTkWkUKaNk/OrSF89odrgxzGIt6tyb+y0sraGkczkt7793fR3vupl1luX+2WTIqSlcRJGkWaZ7tZVpS6MdWl+4bf56v4G1NsJTo2fAADw5SxKqwu+ouwWyqyxwct4uPVdU9zL3YLJAFg+byvO825CvFrvbLoj0IH1jV0c68M4+indDsMj+e5lbPCjD87FhuC0EyLeX2Z4LHKX9euS+hVvg7s0f3AtaR9K8cHGz0Y7ZN7OxqdU+p6iv6392dvMHea1nbRlASDehXQVGa1Pd/LEu2BMJa/iwpClWRuvDtO7uPy66m1N82Dc1crXRbYzPErwrjIOHcnXUx87u83pOKScPzralQYnFdlaBpJ2PL2y/AAAvptNaTWzsrvuAuTKrHFB8oFunmQLH9dM2Z12VVzTWNjfXTGFEtA0Hg6ZFPtiYp9xMk8KasNjP73T8sW+w7NBZHdWR8/teJS7ND5XHI0JXjA8vp6OlXPrxyAik3I917tL+rCyv83KkEispJtg/bmd0nX8WdIyk1z5bqJxkuxWDsOiZGf9cN6JjMesyfXQp7/Vpnd1+WnrrWfcVcmnZd4ZTowmE6zLdse18inrI2lfyja9N/5p29X1fU85nr6r/AAAvpN40DbJrkc+mFvfGKitLyfVdTCeFZEDI6Hbreusi8LB71pyNHc1LneV2AyZRVlZlZZXDI/K6mH5/OTmxUHJH6TX8Og1DGrpxzuECVMb7lOGTN2ALw7vmuClragWCyUV4zo3EtTpXV1+ynrrGnfPyldBOyar5VPVR/b7lw0Pbbt6gWYd6sbTt5UfAMB3kg3a82Bv8s93V/Yr382rM14ZbeRox8NlrhBj5UyKircbHqULRZ8SEJVl5jrxkuFRuEbMB9kLgzHe8pdyJQ6+k07DY38HS9nfGorvMAz9ytCO/ElaR0EfckWtkubp9K4uP1W9dY67Kvl06NLpkE9TH3n7etXw0LarV9irw8Px9I3lBwDwneSDtllDE75seIwSvGK3o5QhZjnfkPlId0eM2pE1wjXcitqT8E56p3ZD0vQmf+L6uRNd+e39zhyvyM1b/hgfX85lhkdHf7vL8Nhx2dSkeTq9q8tPVW8YHhpZv9bwKJ7Nx1MMDwD4d1QG7eVMQeFq1ZiIdl2tdOcxuieOF1ycVIfLK79pTcItY+UKw0Ob3lnDQzNpXeW6AW/kKsOjp7/d5GqlVrRUilq/q8pl5aest65x90i+DowT1Tk6tXx3GB63ulq1y+vUvIrhAQDPoD5oO5kPKF5yuHzbRWkJ0p44Zj9Zu+3I2CWKzumzFYpwuhnHykbpknQ+nO5nDI/lkGgcTGD0rqxfzn18P7kiZcwcqak0APYV047+Zv0a4jk/XH5G8S0CUKx342Ttz/owJjIucso5RU2b3tXlp623E4fLrwkGYeczf+nh6Ck/kTxdh6M/bXh0tKvovTK7Rr1i4KrH03eVHwDAN5KEuY0V7yVizYlwuuXN5em5h+Ud+bubvtU2vb12CnW5+GafjCh1dIHgTC10Yn1nJiuXVkjOXZkyf/O1DEwmR3kGpBV2sn2BYFl30+Rtg/NRKFDJFTL4VpKQoeMcqSmq32Z/qxgUqv42r8jm770+nG59YSMdh6aQtXEeyvC09XFIld47yk9Zb5N8x+OuWr4ejA1O0nC6hRuZRr6e+miOa2k7UM8fPe0qqb/XDQ/1eHpl+QEAfDe3CwAAv8jOGY8rYUUX3sEtZzwAAOB2AQDgF/mA4bG4K3JPAVzJle1KexYGAACGMHyBAADwYxRuLlcpXrmbDeGc4QoubFd5298uagQAAAW3CwAAAAAAAM/ndgFe5+gSsLsP4H27fADvgHb/XVAfAABwP7cLAAAAAAAAz+d2AQAAAAAA4PncLgAAAAAAADyf2wUAAAA4jZPGxa7vJr95Hv5nOwCAHm4X4JEsN40zCAIAnMO49Bb4VhhcDA+4tR0AgB7jpB7ZRHyw8YN5HPSdKCiL0r3hK3HObfDVtCR4uwwcZksrv+wpjtDibZd8n8I4YRCEz8Dtyb8J9bZfNiP3uLyHeP6dDack6lk2/wMAXMcwKe3Z5Ge9lMp+5bnp2bpib/1kFLS+H4YhOMlXiyZjY3veBj9KYTwYJ2EUSSftTvneDYYHfAwU2N+EemvTGM/hKmzwhYFR+wwA4FKGxgBvSqOgS7E3wS/GgvXNm41Lw2MIy+Bnov87J9G7J+NEvH+P4bHsnojfXKa8DcYu2/6lzNt3866NMxge8AFaO4eVVctoV9DbIRjrgtRcAo0NXiRrzzZZhFhvb/Y2c4eJdyz7SfqR+OBM3W3R+nSnVrwLJh+r5p3SIUuztoJ+mN7F5ddVb2uaBy5HWvm6MMElZSPBO18aS0fy9dTHzn0j6TieluFeHrXtSkO5oz+2DSTjknIRb4OrzUdXll/X2HFgeMTvXcpy9ZLI5kFFu9/KLntvXOfRu1T9sqMdAMBXMJwzPI5W6qyPXKzaqyh1wyM2Fubfxr60c9o2l6FHviPmgVC8nQbUZbA0y25LOhCLRAOimSZrEQwP+BAd7d36cWqbftnRzPu6KSb3ZfcySWtWSpK2P5hg/bl2v/SrpB/J1I/iMcI4mRYC4t9aFyR3DzVuymeknE1KU+r6qU7v6vLT1ptxSR6mzyYlrzV27sunZRr3JFEeTbDZ+KeWT1kfSftStum9RR5tu7q+75ngc0PcmOAlMzzeVX6q+lXseDTyV/NWOG73ezsqJrioz/X2y6N2AABfw1AO8GY+W9FQNA5XeYZywLG+vhKxZ3hMz28DVey6NXpbDogd8h0yp20iedbJInmvaQykhoNu8Dl6DY/edllLP1lciIl3LLU0+lFxeNcEL21FNd15qB38LY0EdXpXl5+y3qxvKMiNneRT8lXQKnFq+VT1kf3+ZcND265eoFmHk5vw0TveVn6HtHbdzhoeurJp/i6fVzv7ZU+bBYBbGaoHs8VVVue0Owq1AbIxifQYHrkrQdXwuHLHI9nybRgeO++5SgEAOKTT8Nh3Pczda8YwipT9t9uF8pz8SVo7bjhroImDNE+nd3X5qeptb4W4/t1VZ9p06XTI16vAXmF4aNvVK+zOhbELlZQ7G+8sv0Ou3/HQtHvjZG1XTsbtLGk8npzol7vtAAC+iaEY4CfXocpg2JoIKr+vDxjlAKl2tVqfH7dV1j3DQyP3Hhge8EtcZngs56eyMwm2seNxh+GRB73oTPN0eleXn6reMDw0sn6t4VE8O7lQbcbHjYbHEjXsqD5V7+0bN2TxWPB+3RWqzbG9LmQYHgA/wVAd4Fe/2PhhpWLfcjGqDQp7h8tt8f+MbzA8cLWCb+Aqw6PHJegmVyu1oqVWmPoUt8vKT1lvzfftuFpdYXgYJ03D8pR8dxget7patcsrDZTwpvLTyH3a8MjcyLratw1e3FpnU3nYl/vlfjsAgC9i2I0GlXRijWK/N6BXVjGKwWU++JeG032T4bETpUpveDQOlwuHy+GD5P3OmDkiTGkA7Cums0IR3aVjl6hVNcNDsrY/Hy4/o/iu/WjN0xwlpxbkIpFxkVPOKWra9K4uP229nThcfk34cDtHJkwPR0/5ieTpOhz9acOjo11F723OC62+V5FzMtxcWS5FNKg3lZ9GblU43VRmY12lfPrafXK4Pw5Skdd/R788agcA8CXkblHl4cwthF/T37L1THa4PD281jjYJtFAk/t5rulFFwsu6WnkyzPfmmCStKKD7Uv5rHJFETga4XT3/FEBriRvg+JtEmUm7YM7fcOmt0VPISzLNr+syBZt//JwuvWFgTT86BS6M85DeVg2HXPyyEK76b2j/JT1Nsl3HE5XLV8PZlqJHnP5Ks+pwsFq6qM5lqftoJnfypirbldJ/b1ueIizU4TD2vz2rvLTkKRXu0AwvzerHY44rjdtu08jQ06h91tR3073S+ZegG/ldgEA4BfZOeNxJZf54gNE3HLGAwAAbhcAAH6RDxgeZna3OXdPAUCdK9uV9iwMAAAMYfgCAQDgxyjcG65SvIq7eF65mRlg5sJ2lbf97aJGAABQcLsAAAAAAADwfG4XAACeyNElYGcPxgL1AdQvAPwqtwsAAAAAAADP53YBAAAAAADg+dwuAAAAAAAAPJ/bBfgJnIzciAoA8IXcNj7nN8/Db9QbANzJnS9Pb1795gGIARIA4LMkN2bvhMHF8Lgf4+Yb7jsuU2ReBfiXzP8xNnhJB3jn5GODgvngu74hvwCXwu3Jvwn1tl82I/e4vIPtLpLIaMrvOjlzNw/tGQCOGcIw2OAlXbUxdlppeqbhcX9+AS6FCf83od7azLeL3y7HQzFOgogUZfzSXEx7BoBjhuYAb31NETfBeYlWRiR459PBxkyKvSTP2N3bXXcHO2160YqNt0Mw1gWRihuXOr8HrmDL+8QHt7zH29WIGU9swa8rUd5mbgYSvDXVvMZ5Wbe7r7xNGr6YtI2m+GDjZ7X9Q9Hf1O20k63vzP3KDFvfimS0yRg03x5tKnkVF4YszdoK+mF6F5dfV72taR64HGnl60Ix3mvk66mPnfso0vsn9K662nalwUlFtpaybVxSLuJtcL5yj8aV5afta06COBd8Vq7VuVjT/pa6i8oiueV9/VxZbyf0CAD4CYawDATemYNOPT0nSec3wbp81cQUk7b1+4rw/ipLX3rWj0FEJuVh/r1Ldji0+VXIN0+S4u00UC6Kg5mNgDOrP/MkIxIrPyZYn8qwpJ/n4fR74XfpWGk87h/K/qZsp1rW9rykZSa5JN+ddDIZ+PFvrQsimcJu3JTPSEmaDHOf/lab3tXlp60345I8TJ+Vu7Z6+bQox3utfMr6SNqXsk3vzR/adnV93zPB54a4McFLZni8q/yUZZbPI0VZ9rS/rCymXZVyjtLU2xk9AgB+gvk/xgbnJV0VylYu37kF2532Tnr1nZr898f5Vck30pnCRQAAE9FJREFUy2Gid6+TytltZ+sbk4kNPvncFqtV9c/g8fQaHr39uJa+up1qMMFXV/rzw7smeGkrqoXCVOw6lkaCOr2ry09Zb9Y3FGTrq0rYKfkqaMdktXyq+sh+/7LhoW1XL9CsQxu84h1vKz91mZlkzsjLsqv9rWUxL0AcGAlXzvsA8DPUPjTTil+mwNraFnHj9y5zXRgrvqQxRysfPenp5dzPr0q+ytbyJYZHY8DOJ5l8d6O1CwIPp9Pw2O8fyv7W0U5fkT9Ja8cNp3AvbKR5Or2ry09Vb7auOO981z/+nW0nnfJp6iNvX68aHtp29Qp7dZi4KEm5c/DO8usps7msTVGWne1v3pXxymhVV877APAztL80TpKJVzcRmSlEXua6MNizOx796Z2dePP8quS72fBIdzgMux3/lcsMj47+dpfhoTWstYZHp6F+Wfmp6g3DQyPr1xoexbOTi9JmfHyJ4bG029n16iXDY5TgFbsdu/V2Uo8AgJ+gPcHkg8KeYr5y0qWge+I4cLXamzC1+T0j32ddraJ6ERdMtGr1BQ0LPslVhkdPf7vJ1UqtaKkUtX5XlcvKT1lvzfftuFpdYXioxvse+e4wPG51tWqXV+rK9Kby6y2zuT/bwtWqo/1FMmrOY1w57wPAz7BEnpD0jEP18Niyup4elrPOR/HWZ79Wu62k2CXqzakdj/70NIaHLr8K+c4YHkdRr6wPo0j10G49X1uUEMIB/1NyRcqYOVJTaQDs94+O/tbdTvcpDqIuUW3yfml92X+XQ89nFDVteleXn7beThwuv2bXUzPed8h3i+HR0a6i93ZFJWzkazLcXFkuebrvKr8TZeZkDkxwyeHybRelv97O6REA8BPME5WrXKhXDZdng5M0vGK5HZreNjuFplx8qbfVpyTU3p5v9avpZQOVNr+H8iUXLk1yLL8RZyL/8TKs6aHhkYTlnUMJHhx+PxvdBJ5B3l7E2yQqjLZ/aPvbmXbalYc17GldwUn77xRqM85DGZ42DeOZRxbaTe8d5aest0m+43Cmavl60Iz3Gvl66iO/yC56t9O058rZHHW7SurvdcNDXB7EJDdw31B+CvKyy8v+TDjd8ubyunxXz/sA8HPcLgDk7PjOtzhaWQK4nBPt9AyX+eIDRNxyxgMAAG4XAHJ6FTrjJteHu+WG/8UHDA/OLcE7uLJdac/CAADAEIYvEAAiim3o5oRWv/mYiFbwCfTttJPczeaFm5kBVi5sV3nb3y5qBAAABbcLAAAAAAAAz+d2AQDgiRxdzsdOHfUB1C8A/DduFwAAAAAAAJ7P7QIAAAAAAMDzuV0AAAAAAAB4PrcL8BNwTwYAwHfC+NzAuCDaixABAD7DnS9PQ8J+88TBxAZncPL9bRvgWzEuvb26FQb3Y+PzEpb3Vy4MxPAAgO9j/o+xwUs6wDsnH1OYzAff9Q351ckn2YRrg18vCoyNtnliSaKabBcKOsmjmvgi7vwWmz6apPLY9/FdDbN8IlH52egG3/y3ragq1UgsOxOlMcH5tFyqzx7J90E+0ra5Pfk3od72y2b8wntcqDMAgFcYwjBMSlqswBk7rTQ90/C4P7+7GBdEfLA2ksWY2YCIbyiPDZG9zyasn4wH6+vhFI2TICLFal5RN8YFkdw4MOttwOtn+d+RHOX723Knz4xBvF0Np6XekvS08n0IDA+g3k5wU3+lzgAA3sqwqyCWClO24jxK8M6nA/Gy2pw8Y3dvd91VzrTpRavs3g7BWLeueCdpq/N74Aq2brv7zaXG21UZ3l2538H61u9y5bzH8DDBLwq69dWbpqc6cNtzjbppGS4FFxsei+FUfU+0i6OWTyN/Z/1u3y3t1LzZ8KjfYJ/venX1D0V/W3fIvM3cYSR4ez6vSfnNu1k1dzWbjEHz7dGmkldxYcjSrK2gH6Z3cfl11dua5oHLkVa+LhTjvUa+nvrYuY8i7dd6V11tu1IxGx5Ju9/L7yKDk7UMk3HjxHy5R7nDveMaZlxSb+JtcLXx88r6BYD/zhCWAdw7czDYzSvOyaBognX5KrkpJu2m0jizr5z1pWf9GERkUh7m37tkBVybX4V88yQp3k6D86I4mHmi6V4Z06z87z3b+H2inNefWfK4yG2yz7vliw2Pw1XCo3T3v3eyTJY95aego36nHaNIYZ3dwkS+a8fjuH8o+9usbCR5Hkyw/lx+13YXl59IsXtlnCS7XsOwKNlZvc87XxIpP5Pyl7oaqtO7uvy09bbsgFaU1doCxbF8WpTjvVY+ZX0k7UvZpvfmD2276uprmVKdj5l7dVvWRf982S1vtRxN8PlCgTHBS20H+Q31CwD/lfk/xk5KUrwqlK1cvrRyezDBdqe9k159pyb//XF+VfItq1/Ru5PzC72GR9dvWqumpcKUT2S1MtryaJJdjyTvPfLl5zxeMTy07edqNwh1/ZrmTtNHDr72Gh4nV3nL+q0pFVNd9ikbjfIrDsea4KWtqBYugcWuVGkkqNO7uvyU9dbcAW3sXJ6Sr4J2TFbLp6qP7PcvGx7adtVZl0WalXyoDY+O9nKGZlo2eEUZvK1+AeC/UvvQTCt+2da23oUl354fw1g5OxBztOPRk16/q009vyr5skH984aHYsejNiFUJvUkj/P3Jv+8kK80fvI0dPl6l+GxI9+J+mjW76uG8Kt0Gh77/UPZ3xqK7zAolSul/ElaO244ZQAEheLXk97V5fdyv6h/d5WroS6dDvl6FfErDA9tu+pBm4+OHY/e+fIKeafvYheqdLfi7fULAP+V9pfGSbFKfjwRzSu8mevCcBBRaG/Fqje9sxNvnl+VfFcbHj2uQtWVt/L3m29xTsWFZc3jtlKvdrXK89tSHKqf19PdJq0LXK0uMASfb3h09Le7DI/cpaUzzdPpXV1+qnrD8NDI+ruGx7n58gp5689OLlSb8YHhAQCX055g8sF8TzFfOelS0D1xHCh6exOmNr9n5Hvd8Ji2tlWKg9LwaLn61Oq3OIQ/+mCzz13uA9yqk0sND/3hcrV8GtT1+1uuVs321dPfbnK1UisyasWvTzG6rPyU9dZ8346r1RWGh2q875HvDsPjXa5Wpw2PzL3phXbxqrx79akKJvJq/QLAf2WJUCPpGYfq4cX5UHZ2GM06H8VbnwdWu62c2yX6x6kdj/70NIaHLr8K+d5geCzhftPoQHO+JVthOjI89ibYbLW3lkcnY3k4unbYcBjU4XTPGh594XQV8kXyNKOQddRv9XC5fPBweaLQmDlSU/3Olnb/6Ohv1odRsjzPh8vP7jgmuw/rXSwVN8G8/y6Hns8oQtr0ri4/bb2dOFx+SVQ31XjfId8thkdHu+rpa6p8pEbG4s6bjjMn5sveqIkNeSfD0pX1VkTdelP9AsB/ZZ6oXOVCvcbFbC6+2G4sI8Ik4fTGJTTlMuhuyuV2ad2Bb/Wr6WWDoTa/h/Ilh6cnOZbfrOcNGoe9j1kUkDTUoYnKpHCZyvzVvW9fAJjmzQef5XVVXJbIRfmknodXXOulJt9OnRz52BeTYM8FgjvyVdtrTSHtq99WON3WeYEryd8t3ib51fYPbX9bVjyLPF8eTrduEKb9dwpBuld3+Xmf3FjdTe8d5aest2p7rhjWavl60Iz3Gvl66qM5dqTtQD1/9LSrIzrbVR5yNw7jG+e3p71caXiIy4Os5Ab4G+oXAP47twsAAL/IzhmPK2HFFN7Bv2lXV0f6AwB4jdsFAIBf5AOGx+Iexz0AcCX/qV1pz+oAAHyI2wUAgB+jcHO5SrEp7n7h5mO4gH/UrvK+uV0kCQDwFdwuAAAAAAAAPJ/bBXg+hweoOYAHD4R2/11QH5QLAMD93C4AAAAAAAA8n9sFAAAAAACA53O7AAAAAAAA8HxuFwAAAOA0TiqXnH4Rt8lnXBDtRYMAAJ/hdgG+kyX8IhcvAQDcQnLz904YXAyPBhgeAPB93C7A98KNr/Ar0FZ/E+ptv2zG5963AQDwT7ldgO8FpQB+Bdrqb0K9tZlvF79dDgAAuJJrE1xvTfU22yaX4G201RzfJBtNLsZJ4zZkE5yPvhsleOfTSdvY4EXSdzrbuLVVk96kFCT5aGz12ySt+bZYVurg7djgm/cO+GDjZ6M+5+0QjHVBZG6vsRuIoh+p+3knxqZ9zZnJTSWX8bC/xa6S9qL+e2H5ddXbmuaBy5FWvi4U46RGvp762LlXI71HIy3DvTxq29URThp1FMu8lo1Cvs522idjXB8NA864pN7E2+B85b6SK+sXAP47b0h0HoRE4snbBOslGXyNkzCKKwyD5fPts2kAl2TyNsEWz5lCWbA+N2A60lsmk2jwrMlsnATxqWIxTfoVBQLgHXSsnFs/BhGZlOthCMNggpPYD1zZj5T9XMvat5a0zCSXSOqjru5vxk35zPvv6F/qv5eVn7bejEvyMH02GTc13/1j+bR0jJMa+ZT1kbQvZZs2rt3mtO1KXyatcd0E12gze/J1l0svzTZmgs8XCowJXjLD4131CwD/lTckan1jsJkGbZP8XV/Fij/bHbSPqAy66vQWH+Pk81LJ8NKeOL/5wCM8iF7Do7dd1tJX93MNpq7QFYdjO/pb9WDt6/33svJT1pv1DQXZ+qoxc0q+CtpxUi2fqj6y379seGjblZ6mvDt1eWh49JRLL025bPCKMnhb/QLAf+UNiTYmxGEoB+18d6O2o2BrW79VcreAMYyS74p0pNcYsJM87LgFlO5iAG+i0/DYb/+6ftTTz1+R/3R/e1P/vaz8VPW2t8Je/04/Xr7aTjrl09RH3r5eNTy07aoD42QtFyfjNl/t9IfjHY+Ocullr40lLlRS7my8s34B4L/yhkS7FJJ4h8NUdkC0E6CZQhZmLhODLQfDyw2PirsYwEe5zPDQ96PbDA9tf3tT/72s/FT1huGhkfWThsdgfRBvp7S9X3cN9srraw2P4tnJhWozPjA8AOBy3pBopwvGussxTzTV7492DjpcGVTp7aSZu2owsMLtXGV49LgE3eRqpe5vb+q/l5Wfst6a79txtbrC8NCOk2r57jA83uBqNQw2eHHrOyfXNrvbjn7G8BhKV7231S8A/FfekKj1YRSpHjqtT4hb9I/64LzsiqSH4KzzUZz32V91fWb5vhbRQ5PeoB9IrQ9j8u7l/UoDB+BVckXKmDlSU2kA7CumHf2ou5/vY5ykuw9LdKiz/e1N/fey8tPW24nD5VcYHn3jpPbw8acNj4521UFyOD0OsnBCvjPlIrNr1CsG+GRYurLe8nTfVb8A8F95Q6LzSkgSwvAgzOZh9AszrSjFYR1Ld4b0ltspJObiw51HvDlILw73u/42DY+YR/5Iww1OITS/oILhn5D3N/E2ia60hsA9CrWp7Ucn+nlXHtawpxXF5ai/vaH/Xl5+ynqb5DsOp6uWrwfNuKuRr6c+kmfH5N1O054rZ3PU7UrbTpOziZOLcP5OlXy97TRpX68bHuJscD4K/Sy5Af6G+gWA/84bEt3x/W7h5JpILADwIU708zOwYgrv4N+0Ky6pBIDv4g2J9iok1bC1APDVfMDwaJ37AniF/9Su1GcaAQA+w7UJFtvLzQGvfnMv27EA34++n3eSu9lw8zFcwT9qV3nf3C6SBAD4Cm4XAAAAAAAAns7u5VknYMeiwtElZZQzPJGOdk97pj4oFwCAf8HtAgAAAAAAwPO5XQAAAAAAAHg+twsAAAAAAADP53YBYAfuNwEAAACAh1D/ws23lL5T6Z1uKx9fu1n3S7mq/L7O8FjCUj6wzgAAAADgrbS/NE7er/Q++FbVj5TfHTy4zgAAAADgbbS/xPB4DQwPAAAAAICV6T/G+iiWuQTvTF1xNjZ40dwAa4LzEsVAl+CdLxXWTIlNbl1NPpcknrp4F0z+3uh2Wm+HYKwL8orLk7HBi2TlYqu3wO6W3+qe5DcXLG+j30hwSV7SW92rsscuT/G7X72R17ikfsXb4HwWv36uM+MufC8AAAAAPJ15ZV4iRd5MRoNIZngYFyRXMGflvKY4S6Kkm2CdlGcDMsNjlSV6xjiZFPX4MzvLUsmU9eMku1/SMcEVMmowhXFj/RhGb5PPVOU3X1Il3k5lNo5hHKeyNLVyidNuGU3GTe+I6mQ6N+OrxpEmv36U4G1c5yZ4qRgembGx5OHcewEAAADgH2CCH2sKvCkONlvfUN6tT5TxLhej1fAwwfrJwMjl8NJQpK2vvsf6Nx7ILtyMlOW37BJEMq7K/I7r0qHhUeyWnDWyhjAZjIrfGhekyPMr7wUAAACA57Oj9KYKvG0o2OV3NnfN2WNetfet6E3L6nqLwlDpfP9+4WTuYmMYJdud0JZfxaXsEsOj8ruXDIDElU7KHa53vRcAAAAAHs43GB6jBF/d7RiKnQIN1xge845F5uI12Ky8nmZ4FO+YXOlS9zoMDwAAAADopsfVqqHQV1ytajsRVSIltnZ+4owLzyWGR8sYeNHVqirjNxseQ8V1DcMDAAAAAPppHI6W1w+X54eUrfPT2YDm6nlp7AzDMEdwkuDi9JbD6m9ztZrPO6zvXOQvL89Tld83GB7NKFrbu0bvyvrNn8fwAAAAAIB+pv+0wsEW5yi04XSNDU7ScLpFZKri5vI0jGweSSl97xTaNn5nEoo3OZdx8s6JpEyWEL7LmZN0l2O3/BKm3y2yijPROZb0u90zLVHo4E2WnfJL8tM2PMTZKSJXVM6JwXfmvQAAAAAAXyAAAAAAAAA8n9sFAAAAAACA53O7AAAAAAAA8HxuFwAAAAAAAJ7P7QIAAAAAAMDD+QMznG3TRYMMswAAAABJRU5ErkJggg==;" vertex="1" parent="1">
          <mxGeometry x="20" y="630" width="770" height="180" as="geometry" />
        </mxCell>
        <mxCell id="6FGdKVEJK4fvtbT7j42c-16" value="" style="shape=image;verticalLabelPosition=bottom;labelBackgroundColor=#ffffff;verticalAlign=top;imageAspect=0;image=data:image/png,iVBORw0KGgoAAAANSUhEUgAAAw8AAADPCAYAAACz3O3/AAAgAElEQVR4nO2d7bmsrA6G2e2kFSqhEAqhDotj/0AdvkkUR531/Livc961HQ0hQAIBlFLKvwEy1rtl8cuyeGeNpwfIBN4Cebs4b+huOd4qXx/jFu8M3S7Hc+V7d/1CLygvAABk3C7AEDLOL4v1mpRXiry2i1+sPv5O0t5Y55dOMKLtsv97ivW6817roveavozGbc/1HZvmc6S9cReUo8H+rjO6b9XHoByn7We2zD8rn/Y2shOO032/c/5s+Xr1S8bxJ0Ua/ctl7fJGvXwfud2/u7xxua3X+//eLY8AbUN9OXO/LF+kOqa7et/B7V9mPwf+BDd+nIx3w4ZP3i6Ltzr73WKPGS5pbxfnrab9/dqWHZC2tQGk08Fq651z3mjZoEPGsQaq8rmgl0+AQl5bV3Qi4nKM0HbyAMgrx5n3G5fZz1Ww7PlG+YRwbfPrHNLzXbTrN9dvV9+j/mV6u7xPL3fX7zV2P6GdX6GXfSx9YPDAKe9j+wLaJ/2KsYzM7oBvbXZ/Nprca41/2vLsiNu/zH4O/Blu/Ligc0gb0uyOjrmc3BygtbfumDyHg4eGLKwB6oyjMdtJOVMO7vu/NbgcGci+KZ+Qxw4Oj3UYJPVLlT6MvKn2I4z+5W3BQ8/ufzF4mNHOrwoenLld54fL+0S5d8JE5ZJNfpJxfnGuKveWVdELEHjBA7d/mf0c+DtsS3+rgZM23nXSZGwcIbstlUgJn0uXiLvpNMmgGKe3lEaro1SkfVmNlV/KCx5ajZaM480E6M++jWVx3hqqDlTc52pwnO5WOVj6W+ujkDGfEV1TLNJyaPZqQrMc+3c5ucOD2b6BncbpIPGem7K8AnvmysfQH1c+fjlKu27bnCTNg5I0wVAWmw6eLHuR6Fkg36i/itMjYrtv9X+s+jXeVZz9Wttk9S+XtMtBvU3Xi7AdTRuPJHYf6i5+n7Pam65Dd64fkuqFsrow1El93cbXE8Enu3+JfI04kAppyfFMvKC82+SiYdjfZe28RZjkNMZF5Q224KytBA9RlkWnPljBA7d/mf3cLfZypG7ABD4V6pyL8tjIGxc5aGS8yxvROhAlThz3uf3ZwaxB1IhC7vLWuaSdCBnnnU0HwRAIjSNjzcpFbQcYQU/xQBscfpXL5yJnfH3eucpSIOO5pq6G6T71crD1tzbopI7XTjlPq8oDD/ZelV45JMFD7z1cO93LGwdSIbWqDK6Fs2Dd+mLqjyufpByxTRxKqYvRe1oaRWXTyYAqtBehnrvyifo1lzy77cVqtreBHdfKVhuMOf3L/HbJrLfZeuHW7xXjEcueKUt7VV4RedsLDmb0Q0y90Fo/yfjhwvhR6KXhoB9a8WX2L7t8DbkP2UHm4Fe/cWU7b7L6KWS828YrbUMAVCvb+m8U/7by3mLPwxogFu/i9C+zn7vTXsC3+RhBz1HQttHZZkbFfU4pJQwe4saUNyzy1jUat7bNcjVzEltyNNIPts7543yT19ZGjaq25Lf9NtY797kKtc6RXQ6B/rbOr/b9UQd71Ck4SG+2j22nSYceE2ywHKD4HZo4NWs44HTkk5RjZUbwcCoFpKXPicED2w5iB2B/LptgkdQvezDm9C9qertk19tsvTDr95LxiFV2LT4xaUo/xNJLY/yo1lFa1tOpWuz+RZd7GKt/49nBZt9lOk1a3ivbeZuPnxKnIy1WV8uWB/Ejn+wjc2PS6/HBw2R7Ad+GYwS9PQY9p37wDlHwsC3pUfmuzizKeGkrzKaV+ypS2p3rusRa25exfbdTzqSD4D6Xs86WcBzuajkk+usMumkHm6c8LH5xg9kCQTmGdJ0mgZ2yy8u0Z5Z8Av1x5ZOUY2jz/Of4g4vAXqYFDwI7aHyz6VSM6pc9GDP6F1H98vTMrrfZemHV70XjEdfuk/QX15/smNUPcfTS+fdRG58SPDD7l3zWuDW7fGbPQ/rNC9t5l+jdWXp48Z1a0CLYJ8PdE/mo4GG2vYBvwzGCJwQPqsg13eWtbqqWMYry253HdlpQJ4XlyuBBW9FMfbUcEv2xGv2W15nlUutOfQvLca4+7w8e+vIJ9PcTwYPQXl4QPAxnDRvvq608DPsXdv3y9XxV8MCaTX168FDIG2Z+a33XtH6IoxdJ8BDnk89KW2L3L/HMceU0RbYdcO3vAcGD2jId1kAy+06Sx5/A+25hs9z+ZfZzd9oL+DY8I2j+e7FMzHtOKTXxNIWjy4pp+foz+/2zj6tl2/92TdoSbQ43t5zNcgj0x0mPEKabiMvBKedgdpNtp1ekLY3kk+jvBWlLw30u0vSkqWlLTDuQOBWc2fU1VXB8ogmnf1HT2yX7ToLpeuHV7yXjEcNeevLUV3Qn9UMsvcjTlrbvH3YCM/vj9i/77PFwP8iM4OGidj6kE7Rk32mlJXNtsbQ/bv8y+7kb7QV8m/B/hp3HVRum406N1jP+E+MRHKO65OegU7EZOhih9Zqi02i2S+ga7x4PpFtkvK0ghPLmx7MVG6G3XObRhunec5ksvXrsloOpv/bGzLi8a15wfJfGdqpCLbdaUg7Ghmn+7CZzw7TL6mTd2FXN0R3aM0c+vv7Y8knKEdfNpA3T+QbTUJ5N/4LyCvTMkk/Ur/GcCnausrbJxudRamSvf5ndLnn1dpFeOPV704bp0Iea8n2V/mhqP8TUS9GfbqdrNcq71dPZyTd5//I5UanbNll2wLC/C9r5GGbw0Anu8gk/kf/C7V9mP7c+2x2nr7AX8F2aNxBXB+35R+PlRws6q4vTQD4NJvx383SkLK1pceEYwvKbxjvB0X28o9HSPNjiNJRKWbcjWPN9BZzn2jdHnzgfeqC/5Ii10ZGQyb9vx75ueys+HZ24HKNOqbqBjlNnDTvgHoHJtWeufEz9seVjPterj3xGl73HKLtBfNfLkfIy9SyVj3WEYyJLepxkkkIpmI2Lj0euHYXI6V+uaJesertQL5xxYeZ4xLWX4DDpcAJe1E8Wl/fN7ocEeqkf1VrrLzfntpfWw0TYT266HJ1i1C2vxP5mt/NhnWb7CKMshPJCOE4f+6kf0tlRwc407YXbv8x+jhU8XGAv4KvcLgCL5A4CXEwCGky/4KmT3vAq+SaXA3ypfn+Ev6aXp5W3n0Y2L3iQyYRZ5D8L7OUXuF0AAJ7L051uBA8AgA5fyROX9i/ClSjwY8BefoHbBQDgkRSpDA9zvrnyPb0cAICJ5CcpTTzFrga/f6nfHI2Tc/4WsJef4XYBAAAAAAAAAO/gdgEAAAAAAAAA7+B2AQAAAAAAAADv4HYBAAAAAAAAAO/gdgEAAAAAAAAA70D+o9nn7eL83mfx1+rj6eV9unwAAAAA+FPIf/S44GE7mq52K/ZEtpsh3+rIkUlvl20d4ffXnNWnl/fp8t0F154fx5f6K/AujINNAABeQrjym3dd+qMh490XOt6n3Rwq0s/yEufqJbYAbqyPJ9szp7x32ihpb10adJmoX/ucwx7dSpzfHWDNPplSXEBG5hPUreNHa5xx9uLLy55uBxEIHgAAL2Lt2GtBwptupUXw0Ge9ZfR2OX7IFsCN9fFke3508KC9dVFQoMINxC5bUSXjvHOu0HHa/2lvF1dc3ETG+cW5snyV8YSM/d22KqxjbV80WQcA+Otwg4f0tr+qAx0vx+sopaCaTsB43waZZKbMWe2NzW4aXDvqJJWhkcagrStnvyrPUVyGxXlr6GTwQN4k33be1gbPysxgUg6JnuNZwO5Njfz6oOybhrKUrkpaxmfmMXVc4hlNq5UnbbyrpYdRcHrS+tDZrGX9RspAfrW9xP4m1gebgXz7N+1H91ZHdfPR8z6TbHWW6uO81ZVyj8rLrjdJfTBh2/PMchyrs255L+ivWDSCLm0rwYMx3lYCg7R+w6rF550U0uxspV9rTEaZLJjh2QGnP1hlHvVXXD2z2/kxu0fwAAB4EVnwwFht6DrQZLxzzruoQw2Oo20uT/cdcvI2d3KIvHWV4CHryGkd1Cj/lk0HmeAwpJ16mHmLBg8Kjr9zR4OHMKC4ZIAjr002u0cm0V34WzlbKNazYKa2Vx+7TmO9uKCXUr7yey1HQdsllGdPY6DsWSocpuZgK5zxG9vzBfUhoCnfavPO6iDT5pzQp56S+l+W1KYVeW2zd3PLy643eX2wGNnzFeXgwl15mNhf8Ql2Yg117XKzuVymWvCgyXi3BavarjZY0UF1bDmqZ15/wO2v2HqWtHOsPAAAfpdKPurZ4CGfXR4MEP3gISyNDweXLQda9b5L3rq2c/2RgcKgWDxHhzevclcstG2UNR94pXqeEjw09FKT5UjwINVra3CeGDxcVh8zbGebvY50uAfUuQ5Wp660/eAAft7BLK+k3m4IHi4px1m7zJ+Z1l9J5dNhIiSejc9WoD42R8nqQzV4UB/Hd3eAmcEDmYmpscU3uf2VQM+Sdj5zEgMAAJ7FFSsPfKdx+D6lsvQDV84ocr/bSXlIgqZOp3/UydB5mlUV3QhaKv8m1fOM4KGjF+5scy946OsnT/la/FLJyR7JKbO/C+tDALc+hsFDo11/ZBSUV2LXXw8eLioHlxN7Hg71V6egMMPeS09adU2FLUa6zNK/msFDVoZ8tl8i97A/4PZXEj1L2jmCBwDA79LZ89Dg68FD8Y2QfqClzmo2U9t+P4KHZwUPWx515mjoq1ceEDyMdIHg4WB5Z/ZXE8jHgNTmPiuuzeBBbfsI1hl8dtrSEZj9gSR44Or5wuABAABexAuDB1Vx4lnf5aaRXJO2xNFx04mppcl8O3g4nbbUTkHrOm/S9KSpaUsX1YfQdqYED6y0JWZ5OfV2sD5YDNOWLigHl1nBw6S0N045cxsrbG7by9AJHoblmxU8sNs9P22JrWcEDwAA4JVSzw4egmym3Ph4NMde23ASTZLju25czmfeGhvtzmyYzjd+a2PT8+pFG3S/HTxEeslkKzZMZ4HClhpRnLa00nfe1nfpz0yo3k6paTkR8XeI1pNU6nnN8zZMPzx4cJlNrxumy1PLZBuNWcGDoD5YXLBhemrwMCrv5P6KSzh5K3tfRS81mzNuyfq/m4IHQX/A7q+4epYGD2y7p/3Ag5+99wIA8DvULu+pOSqfi4M6OaFJTus2qKTH1m0DNOt9ahvE8g1+WScv+O5a6OwIx3DMX17m1lGth/ONSXvj0qNaqzm/3KNBOeWt5Blv344HO259FHrZjz4sB8/8GMr4iMShHVQcjzgvORyjuAUkpQOT152zOjmdRVLeqfXBZChf5Zvbb5yhKI87yklPjnJdbfrgUa3semPWBxumPV9VDi7d8l7UX3HtyprKJXGdtpH3Jal95W2GPpfHReXjjjMSO+D2B9z+aqjnA+2cb/cIHgAAr+J2AcAPMDu9AkzmTRc+AnAx6K8AAOAUtwsAXg5Fp7HcLQtogOABAK8U+isAAJjA7QKAt5Gnjpy6SRlcTZGagyAC/CXQXwEAwGxuFwAAAAAAAADwDm4XAAAAAAAAAPAObhcAAAAAAAAA8A5uFwAAAAAAAADwDm4XAAAAAAAAAPAObhcA/DjGnbwQCoAHAXsGAADwx7ldgNvZbkT98w4BhZu8k1tbJ+n3Ubrdjm48eYvwU/lZe35Ivc22Z+PuLxMAAAAgQHlF2luXnoNtjCsHSDLe3THIfeG7VCsvW76+/j7n7Ee3muZnj1uzO33FBUZkvMvO6Cfj0t+fdfhJe7s4b/WmAwpyv9Gp4djLXbb8JU7Z8w/U2/T2cSEIHgAAALwM7a2LnFoVbuB0tZlLBA8VePoj47xzrnAS0u8GB35ZFm91+sziXKmDyq3BZOxEXZG3S1q2V4Dg4c8HD0qpL7SPOWiLi/sAAAC8CW2rs17aLplTW87iBazX8W8pONP7TPnivDW6nO2LZt6tVp608a5ItxB8VymvrStnGSuO7+bcf+Sj484WS3+bM2e8rQQGaXnDqsXnnRTSJGzF6ak4R0opb9ZgJr9Z2GqVrmIMU0DOBA9p3VV1G6ehxHVy+AZYiZ0GJ5TM+LtcuxraybYqtdm51ZEtVvRcWdGqyce15ynlkLTzSprRZ0UgLu819TZqH/x+iGfPR9sbggcAAAAvIwyK1tB4OZ8160eFQ9IbHLVdvHMuSiegdHBnfpeMC85Y/DdtvHOp8xFWACKnicgbG1YFDq88MPS3OXO0BgaU/f3zLus1Ge8250rb4EDVdFB1jqjiHNlCNk7etjZuilPTDczIBN1HDmBwMEuZ2XBnsDPHM68biV2x5VqDhpAmtjrH9Pl2WobMKabKKhfTnqeWY7UzVjtv1EXRxifXG7t9RLIP+yGOPR9obwgeAAAAvAy1b5SNZ/KMrgx0R1M9Or/LZ+ilvw+Qt67hbGobvZ+Cc175/alNkAz9fRwOSlYfqsGD+jgUu2PBDB7I5H8LZYtXO4ID1nYam3svDjIMHopZ97bjdtbe+jrIv8u1K5lc2/u0jeolk1nbRvmTOufa8+RySPR+SfAwqrearjZbrK9GsPohjj0faG+vTDEDAADwl8n/QGFGMkuvUUqxVx5Mlh6xVHL9NxIHqsXou3lqQM7mLJwNYljU9Zc4CGuqE+V/j4KHPJ2iGTwUG0LLFLF8Vps300leb7PaJ3UyXnlgOpdcTuTOJ9/l2tVBudrBg24EBdm/ce15djlW+2C18yuCB+77mO2jqIsz9qzk7Q3BAwAAgJdR/weqpawwVgBCfn6e+9x3cqYEDxwn9yvBQ11/qYPwmRluBg9qWwFYZ4zZaUuNcu+z+1Tsu+gxQy+vDh4mrb7UvvnV4GFmOSTt/O7ggRkYzQwezrQ3AAAA4PG0Bs3qAMl04tl/V5OCB3aay/y0Ja7+Cn1uexk6wcNQB0LnyBlKVj1EvzthZK8NHs6mTw2+2U9barSLg2lLV5aj+/fqs7q+Ef9Xggd1vL0BAAAAjyecEOLSHP3Kxszw9yw/nWg9wWXLp16dgviugO1UlLPBQ/e7anXGs3KsqTfFCkC+wdQd3zDN1V/N4TBuyb57XfCwBSu2ESSFVAvrNX3+Ta8bl49tqO2XvVsuNSF4GNkL97tMu2LLxQweTm2YrtnzzHKI2nkaKGwpffXTpSbWm7B9zA4eRu0troNt4zwCDAAAAK9A28VbU7nkrOG45cdCOqvTU1eSf9+Og9wcho8jmh9rODo6dPhdpbwik5UjHB85etd2tOWR/G+O/qpHOK662o99zPPSo9llE7971WHtEiyek9J2yuNjKs8dmdqp37hsSU76ZhvpkZhH0z269iL9LtOuBg2t+Oamo7T+o2Dt5FGthT3PKIewnSulimNVDX025ef1O6veuO2D2w+x7FnY3tLnEDwAAAB4DbcLAAAAAAAAAHgHtwsAAAAAAAAAeAe3CwAAAAAAAAB4B7cLAAAAAAAAAHgHtwsAAAAAAAAAeAe3CwAAAAAAAAB4B7cLAAAAAAAAAHgHtwsAAAAAAAAAeAe3CwAAAAAAAAB4B7cLMA/S3liX3np7t0wAXA3sHgAAAADfQ3lF2lu37M7H4qw3xnlnyCulvLbbvzlvaP2htp/nl8Uv1nizvcNlzgsZ7/bntFdKeTIu/f1Zx4e0t4vzVtP6NwpyO3O3gsFTIePd2+0Ddg8AAACA76K9dVFQoJQnbb1blj14UCo4+865wimhKMhQKjgyy7J4q9NnFudKR03bPZj4PGsnOnTk7ZKWDYCdXwgeqsDuAQAAAHAV2lZnKbWtBA/GeFsJDNLgIaxafN5J3rjFO1sJCirBg1LKmzWY+ax4LJ+AJF7FWEYzrAedqG1VJXr3Z6Wk8j4yycqNs9obm+op6NSVqyz5u6IVHauVJ228W98d14e4HGtAuK0s6aIMIYj86NZ5a/RnFWh/l91XmJzVe6BZ0wurvPcYvbeVVa+A9fpIfYz0pyJ7tjoEyfGzmsrnvm33AAAAAABjgiNlDXXThbYggdbAgLK/h+dC8KDJeLc5L9oGh6w2y1sNHmgPHvZnFlvIZtzYmdbGVYMTFo1ZaeNyp4yytBHlFZG3rhJk2dSZDI5o5qxustvFO+eiNC6qfJtbDhe+Qx9ZSp1S4dhru6T6Wx1YZ/WaLrM626R2uzha3i55ilyFPFA7U8dVWxrWB0N/UVmciwMp8tq61J7vsnsAAAAAgD5q33AZz0wbnToonyCBktWHavCgPo7T7kAxgwcy+d/CykXiHJLxLp8hjmjuvZDADh40Y5aXvHWlI7jpoOYM5is/h4kDuUSnjEAk18H63xTJuNdL8qy8vLcgDR6kcrdsvhIUbG3n8/eb7B4AAAAAoE/+BwozxL30pDXVifK/R8FDnu7RdqTyDdO6cHzyWe3qjG6lHNq4xNkVwQ4eVLbhPJ3l39/VmzmvlEVX0p4OIVhBMVma0ZLvccne1QweDpT3FoTBQ78+GPrbbL5R/rxObrF7AAAAAIA+9X+gLPUhDRJoT59oBg9qmwldZ1PZaUsVktlzKvZd9Dg8gy8JHorfhvz3PYDIZuy5cn8veNj2pWSBm66vPFRlzIOHmc7rQ9KW2t9g6m8rCzN4uMXuAQAAAAB6tJyiNCgo/3vfy9AJHhLOBA8qcoaiVQ/R76SKqTqWnBSl2nfl+xW+Gjy0nOhG2lJVxixt6dD+jG8zK3jg6k8pQdpSZkffsnsAAAAAgB7hZBeX7nGgyvGtefCg1s2b7jvBw+Z02caG0ZDiYb2m6NSadWOweIPuXpaPDrZUrvxUobBCY7I0pUqQoW2p5zXF5P60pVXe+K6A7TSgQ8GDvLy3kO8HIVpPiKo78e36YOpv08t6bHG+Ybr6/q/bPQAAAABAB20Xb03lkrjI8a0eHRl+/DmyMs9z3x1E+mzkjI7CrF0S158ppfV0n/aMdnyMZvNIUgHJcZqrTraypBvG8w3nudO8kh3purhwnGf8TK5r3tGczcqtHEGaHlMa12Vcf+FY1a1OrdeVd22ypvUfOa2M8t4N6fTIVGd1cmoSuz5G+ovrJDnitjyq9W67BwAAAADocLsAAPwdJKttAAAAAADP43YBAPg7IHgAAAAAwLu5XQAA/gRFChSCCAAAAAC8j9sFAAAAAAAAALyD2wUAAAAAAAAAvIPbBQAAAAAAAAC8g9sFAAAAAAAAALyD2wUAAAAAAAAAvIPbBXg8pnG771N4unwAAAAAAOBnuOGj223FR25NvoGnO+dPlw/EpDd8o94AAAAA8CqMy86eX6ynsy8l490oMOA8cxV3fvsX5Hs6L9EfGfew4CEObJw3tOoy6hu0Ir/3Gc6kfUX87HqHhah/Ie2tc59nnfWatLeL9fqQHWhv4+87602ic055lbwcAAAAwG8T/o+2YcDXdvFWn3wpgofflu/pvER/zwselA8Ode6s53/T3i7ByY/7CjLOL85VdT/sX8h456zXOtIHbYHKkeAhBCKGIvm09a5Y7eGUV1AOAAAA4PdRXinydnMEtC1vvq2kGZFx6YydUj5Pychn6pLBeHXwyNjPTJ+zXlMppLYueZezxhM15NO99wnkE6WXkDeJjM5bY1Mnap1VdckzOpu9vEi+ygysPqQ/HvtNylan9bs4b3Um5/bt1f5IG+9co0yjcoj0x3mfoH5F7/u0ofcGD2EW/9MnBEff2YpeRv3L2sZNVVcHVx60raZFansmeBiXAwAAAPgDqNWB25bhGwNnYzbXuMqgz115yBwsWp2R2KEm47yzqZMdHMxaMOLC3+P31dILhDPTfScvOKwuCQTI68SxCn+jTE/bLGZVN7Pk22Z0429TOSsr0h+HNShwLg70yGtbl1XbJXzfbvVPqW1xyyGxP9b7mPUrkY9lV3wd95DPjvODB03Gu23yYO1DdE33w/7lRGpStxyLt4YG9iuQh9NPAgAAAL9P6cSWs3PqouAhH3wzh1GRt67hvGqbyhg7Ms33CeSL6Dl5pxzAlhwT5WvO6OYzpxL9cUgcrZjgdOV/r9rckXIw9cd9H7d+RfLNsJ3LaK3eVIIHlabxLFZXdT/sX65KMyPtjXXJSprJV75Y5WWWAwAAAPgT1JzG2pL/FcHD6H3J5sUKufM7U76IvnPOnd3NU18Wv7h8dWK2fL3Z0ezfJPrj0HGaa+/s61FQDpb++O/j1a9QPoZd3Ydg5WGr53iVI9c9p38R2PueEjfqDwoorFgWqzHMlQduPwkAAAD8Op+9Czm1tJYbgof8RJcz75PIF3E+eNjywbM9DvrqlQcED2ff9+jg4Yq0peqKYCd4UGrf1EwV3fP6l++lAJFxlRW3cfDA7icBAACAX6d1R0Dh2FQdsnDqymXBgyRt5qbgoXBGBLJ9J22p4UDW0pZmBw/CtKWeo8suB1N/3Pex6lcqH6PebuNA8NDTPbd/0dZNPb2oVR/Vfo0RPLD7SQAAAODXKfPcV4pZ/zRQ2FIAqjNv+RI/0XpiUuQ0cp1VbcM3klzldcPqmbSlkXwRnA3TNjtiUhsbnBKKdLc/s/370k5bmiWfaMP05OBhPbYz3zBdc+qGM/zSDdMs++NvmO7Xr1A+ll3dxMzgobqPJn0u6V9cfhrXquf8cAQGIb0p6zdadj8qr6gcAAAAwI9TyxdO84o/g2h+rKqhz+VJueNHOj2i01n9cSKTdIvt/enGxeR9ZLIjMMMxp/u/S983kq/QwSC3mrQ3Lj3Ks0xRssn+jXDc7BaAlc7RbPlYR7UK9DdknXHPy5Ef1dosRzWo4h+FOtKf6H2c+mW+73jO/hdI7KB2adrircn2Ie0yR5fHDcrW6l+24DL+XVXPDLRdvDWVS+Kadt8or7UHygEAAAD8NLcLAH4RnIMPAAAAAPCL3C4A+EUQPAAAAAAA/CK3CwB+jCI1B0EEAAAAAMCvcLsAAAAAAAAAgHdwuwAAAAAAAACAd3C7AAAAAAAAAIB3cLsAAAAAAAAAgHdwuwAAAAAAAACAd3Ddy41bnneDLgAAAAAAAOAo170cwcMvkt48jfr9TUivt7r3jtnNbt521jRugyZvrMaMRdwAACAASURBVDt9azQAAAAAHgAZl57JP3QEwGMg450zt32fjHtm8EDa28ipXZz1mrS3i/U6kr1m9/HdFO1nnLf6WLmNy99ly3ambVc2q2vlXZLymqN1Q8Y757wx2lP3oj/ydlm8M3r/b22dX1zZbxiX6uuxdgMAAAAADqp6GzAZe6tjChggeGjoxHodO/dEq9P+CR42+avOcdweKjombbyrOfECtA0BiraN92jrl0rdls+HQMlQLJ/1bsaqUC94aPybcZl8VRsNgRwmJwAAAIBXojqOQOSURLOhVq8OlKulrozTWvIbiK1WwcmIZ1g3h2OdRXbxrK9ppT2k6RHh2SgIimd0I4cmmWEW3Ia8l8PqEGz1ZqbZ+lPVmWRNqqnjfCZbS/XC/m7KE4MHbVNHOtXZnOBhq/vjZQ+z9la32x47eOg8d2nw0ADBAwAAAPDzqIaTQGnwsKLt4p1zUVpT/TmlBs6lttWUjXKfBHmqyFDKq/c0Cop+q40rA4VKagVlz7FZgwLnTCRnSOFoBU5d/W0z53GZqZxd/jw7kpmnF9F3OfUr0J0oRWdY1lrw1JZ/t6OWo9xceWjrhVfuzfYbMsdBQbeeQ/1aQ/OdcWnwsMqcy1EEdNoeTvsCAAAAwO2oZtpSzXGQzGj2nUuqz1JynL+aQ8d2ZPVn1rf7NyaNIKg1uzrSX3PmvObIMYIHrl5E3xXr/EsI07iKPQ2t4KG2J+hEufPgt2oTeWDVKxdpb2y0OuesNzOcc0nwUAs+I/m21UPnXAi077YVAAAAABxFVWeAWyeiNHO0K4ycy3y2v76ikKfcLH5x5SqBVC7OagSLjoPVWrlpy9mbOa/8G8NZ5ulF+F1m/X6dI8HDgZWHfQ9FFgD0Nl8n78tXLWqpR+yVhxyq7slgy8e07VJHrpHiRt66zH4OpEMBAAAA4DEo0WA+M3hIHSmqzP4HJ60IZHTpTEnkSlcaat8VgODhuPE9KW2pZ6NVHZO3B1KXeic4DQOK3t+PlI1TP6N3aNtecWjqT1ZPAAAAAHgU6r7gQUUpG7V86Zbj1khbkjhL+2pDI0+bzYG0pZ7+uqfvHExb4uhF9F1B/X4bbZ1sBepE8NDa69OjdfdJoUtm8NCqtyl1M+gXaAscRvqrHsaA4AEAAAB4KerW4GFzvm3VqdJhdnfP3yavt1ONqrOZS7oRk7bnazOjnxOLTs+eb3nc2Ybpmp6G+pNumI5nrGk9az8JWph6uWPD9CUEmdMNuWt5HfO0paI+KqcZHUl1q6UsZd/Z3ycIHpakjYzrTWTbvcCxujm6tnpYOUoWaUsAAADAO6mlUXCOV21t5JTnVtPqxLc37MYbVp01nvZNrHkaT3rj7bK47m22oewnj4xcHSzS/aNaufrbysE9MjX/rrO6OJ2KrRfGdw/lzn+dLYhq7+Hh2H33IrnBMbZVO2noKtWp9XqUzpWvPJjKJXFHA4fGBvE8haxnB2VwnN9EjRumAQAAgBdzuwC30UohEYHNnwAAAAAA4O9wuwD3wD0WdgSCBwAAAAAA8He4XYAvUr+Z+ehJS0XqBoIIAAAAAADw29wuAAAAAAAAAOAd3C4AAAAAAAAA4B3cLgAAAAAAAADgHdwuAAAAAAAAAOAd3C4AAAAAAAAA4B1c9/Ip9yi86LtgBIUbw8/efPxn5Xtmea9rb3+tPp7O0+0FPAu03yfoRd7e0M6fwAv858ofJ91d8LTC70er4khVHj072G9B5ncyZNyjdV+XLz3e93md4XH5ZpX3qvb2GHvZbL12G/w3IO2NjW/oNidv6Kbsfbwbv2fVB5yKTKd32tbVZXtC+30Y39aLtL1d3c4v9cMYfom27+h/XuA/5z8mb4u7D+r3IyyL81ZfVTjyxi17x5oMbmS8O3q3giQwIu2ti8rrrDfGvcLwZui/tINaHXAv2gv1efROjW+UdyQfPbzuZfJ9qbyHJyK+aC9kvBs5b5xnLpFNe5v0sxQ68ROyGJf227x6flh9/BI/Wd6n9/fQy63yXXW5LscvmXVBMJuf9Z/TfyTjyo+tGJdHc1cbWhg484vcgozuWIfLNlrtbVZe0ta7R84+z6dnB5+6ETgx2j57do0h308FD98q79FB4pv28uTgocqJtIJqObS3i+2vPjytPn6JXyzv0/t76OVe+a4KHph+yR2z+j/oP/OVWhZ+EzAeeJhpD/vyUigYaeOdy38T3m1WRzZWuLM2K7zgu1bvgUAzAmw0ouqSV2WFQlOlrNH79uXq3Alg6SUyvij9YFmctybXi/I6eWZNexg4HpzGZRw3cm00EolelPKKTKJnZ7U3NnuvSH+yRjx0pkd2IKk3CsFrYqOmn17Cd/ZnlHdye2PIFy+bkum8L7KBum1tdtuaEarMXK0OXvLdVv1K+gPNeF9FP98NHgb2wmmXLHsR1Ic61q/VYNuVuF3y+ue8TnZ5YvsVfJcymzKk9lnIWO9s/bHq9472y5SP0972Z+xHV0m/9WlvInuZ1Y4E8vHbG0O+q74rGReE9sfxS8aTo/P5Nf9ZFZ3Y0quU+oClGxXJcWa0XbxzLsrjpeg7ofCajHebkWobBpLObE33u6vSXdxxrIN9+pugTGuob2Bk0nft78t01ZC3p9O2Xj7yuWQAIa8TQ1l1keU0B0MbLeuNnUttmcHDGohV9cjWC2XpG8orIm8bnfFYf0z5uHbFtQNmvSlFxUA+0jc7eJhRXu5z7PbGlG9/X+zokNc2laE1OFCh57YN1tpE7HBUvyHqD1zybHCOBisASgVbOTFrp205YdF1err2ImuXLLti1Mehfq0H06747ZLbzsvykgmzgqm+ed/dbXJva6Hfc/kqOlt/8vr9bvtlysdpb2sbd1av6YJr0EqV77LtZWI7ksgnaW8j+a74LntckNsfyy+JfcqRXibxa/6zKv+hrdCuo1v5GLvw3dnN0JltBrEbxqnCVwaYNQ8udQTCRsVkFicbZIuBOP5ONjsiDh46uuPmKVvXcEa0HehoXsMazbbw9KJFs62STVHcpcOezrl2cCoVaOBUcd89o7zs5yTtjSPf+r7yd/UZnNrsd/FudvBQOla5nYr6g8KeOwGu+swen54xi2axnas5qhJ7kbVLll0N6+Ngv9aDbVc8eUXtfP/96nyy9+Tl36V9vCxtN64jif7k9fvd9suUj9PettXF9d8Tpy7X9QF7Od2OJPIdsMWmfFd8lz0uyO2PR2MsuJAf9J8ZFXpx4fsNapUnW6Y5VfhG59wbuJWiMDOTGJyud9a1fzsQPPQMe/Tv+zebaQCd6HxgByI6TqJYL0k6SDqLdEg/HPlYdsW3A7ZcRcrD4hfXnuUZ2v3U8gqek7a3kXyC9+WzYs2l6hN7HsrVwGv6g9gudHVmmktwHBMZe/nHHHsRtEuWXY3qQ9CvJSlAvf6PbVe8dslv51t5XX81jvPdjt4KJ1kyLkjq95b2y5CP094q6WPd4GFmv8Yph0Q+SXsbyXfFdyX6E/YvPH4neLjRf87+4eDKw5llF1bh1Tbzthr414OHz7s/v39B8HDEyZi48jBcATjsRKl9BrXWkXAHb8kKxfeChy0vMctp1udXHuaUV/CcsL0N5RO9Lx4gOqeHvSp4kNfjuBxtuQ99p9MuWXbFCR5m5yuz7IrfLsXBw+K8ba46ML8rCR7O6G/Q7369/XLkuzl4mNKOLgweuvLdHTwI7I/Ps4KHl/rPmZGI9zy0B57Zhe8ZtKjwjOUyboU25WelLbWX5EaDD+8s5n4aRBPmngfee+RL/pKlylanx1+Z4c3Cj+yKawesemvZ9tm0pYnlZT8nShNkyCdMF9hnKw/su+E8U6YtnekPvhQ8VOzP1PYKCO2FK9+MtKVD/dpZuxK0S9FZ+dHvq/na7O/y05bO6q9+cMhN7Zcj3xXBA7ccs9rRVcGDMDvgu2lLAvuTwNzzsG/Sn3Lvxc/5z3kBBactrZuxDm+Mu63wtY06aTnCcrdL9zg0Nz5yN8p+/ralQLVm+MfO7xY5pxuJtLEhNzs5RSIrx7Zxr9MgZhxlxmvgPL2EwdiUej6sP3kHNHPDdL/e1nLFZ/tvp3qcCB6mlndye2PLp+1+zFy+UbFe359TJLp1F9sR0XoSTbaZkuPsizZMj98XnCfrNUUTFutGz2q/2DwF5aOr4hvaVgMKTn1I2yXLrjj1cbBfO2dXknbJ7J8LW6BK38v/brHZetvfktsfU3+S+r2j/bLluyJ4YJZjWju6KHiQZgfMCx7G48KR/oUD97SlMFs/Z6Li1/xnxVNq4wg9l3c+/BzT5nNbgfK8zP230eUX265/5neTI9YGR4Rpu3hryiMXq0bEPKIzP+YxPkJvM4ChXrLvGpceBVi9LZZMJl845m9G42pS3WDa+tZYL8Gg8w3sAvvL9ceUj50zLbADVr0l9rkdo7i1iTQNiiXf5PLObm9sezlw9CvnFKP8fc7qj1MQHx25y5j2ienJLsyjWpnvi4/h69pVYje9AS+1v1afwamP0+2y1o5G9RHJKO3XTtsVs11y2/k+s7n3Tw07EHy3flTr+Ojrmv649XtX+2XJx2lvtnxms1lnKPJHohzyif3asByVMvTkmzYuXPBdybjAtj8hrMnRrWynVx1+039WZUEFuYXghzlnBz91odoP8PTyio4TFHbmd1wI9Haebi/TOWBXb2J6mlfGn2u/zHI8vR09Xb5LkAS6Xz7O9WXUlcY+Lg78LrAD8DSkzodgBQz8YX44eJDuF3iUnp/afn/YXn4dbvou+x6rv8vtAgAAwJBiabXZsdeXibGaCmrw7eolJKkmi+Dm8qfo+dnt9+fsBYBj3C4AAAAAAAAA4B3cLgAAAAAAAADgHdwuAAAAAAAAAOAd3C4AAAAAAAAA4B3cLgAAAAAAAADgHdwuwIug0zcb/m35nlne684R/2v18XSebi/gWaD9PkEv8vb2K+28X4775QNv4gJ7ub9Ql9E7i3k/zo7fyYSr0p97LFtdvvTYu+d1Nsflm1XeVqOKb1ScVx83sNl64zr6y6FwQ2hyO+6pd1L2vsoNyRfWBwbtTKd32tbVZXtC+30Y39aLtL1d3c7PjguzyoF+6Asw/ETuvRF3g+CBzeCG5Py6ecb7jHvOWdNH5Hv6bZIy+b5U3sOXAX3RXsh4N3LeOM9cIpv2dnHe6q0eKAy+J2QxLn4ft54fVh+/xE+W9+n9PfRyq3yXXxL3QD3/ZDtnlHnkJ379IsP6PSjLko6Lcwn2uE0UrZN1D6igCyDjBrdqrhXAbQzrLZ13l+uMfD8VPHyrvEcHiW/ay5ODhyon0gqq5dDeLra/+vC0+vglfrG8T+/voZd75bs6eHiinn+xnQ/h+Yl3rAIZl4+hVwecYSIwurBRhdlBF0Uw+Y2UlbSHfbk6dwKi2y2tVp608c61UkjS9INlcd4aWxioTp5Z0x4GjgenMo3jLj02KkWiF6W8IpPo2Vntjc3eK9KfzGiGzvTIDiT1Rtpb59aofXumn17Cd/ZnlJeZ3rQOEqRtWpZuhF+XL17uJtN5X3xDbNW2NrttzUBUZkrWjj/5bqt+Jf2BZryvop/vBg8De+G0S5a9COpDHevXarDtStwuef1zXifJDbzb3wXfpcymDKl91ivWO1t/rPq9o/0y5eO0t/0Z+9FV0m992pvIXma1I4F8/PbGkO+q70rGhUn2x5ZP2j8P5ZOMM4x2Lh4/JvuJwvrg+Injyer5lMHDVlfxWCiw5/WZtt8Z3m3WsqrQ8WeVthpAIlgj6qwXYM0Dcy7Kb6bs2VAolxgWeb0L9qmUPKc5FGy0jDR2LrUdG8Wu2JZhsPVCWfqG8orI20YnMdYfU77MwJvGw7UDZr0pRUXDHembHTzMKC/3ubVRJbpZnevub1ry7e+LOzby2qYytDojKvTctsFam4g76Oo3RP2BS54NztFgBUCpYCsnZu20LScsuk5P115k7ZJlV4z6ONSv9WDaFb9dctt5WV4yLsiR6Znz3d0m97YW+j2X2R9ff/L6/W77ZcrHaW9rG3dWr+mCq3NHle+y7WViO5LIJ2lvI/mu+C57XJhsf1z52P2zQD7WygOzf2HLN9tPlNcHy08k492XD1fo+d61snDaUd/vDMGDXsuqioE4NuBsdkQcPHQE5eYpW9dwRrQdNOx5FTmabeHpRYtmWyWbcLhLVT2dc+3gVCrQoPPhvntGednPaVudNd7yHGu22ZVvfV/5u/qMQW32+1CnXs3LLANSUX9Q2HMnwFWf2ePTMzTR7FYYgPrv69uLrF2y7GpYHwf7tR5su+LJK2rn++9X55MbGBbfpTA4VW03riOJ/uT1+932y5SP09621cX13xMnItf1AXs53Y4k8h2wxaZ8V3yXPS5Mtj+ufOz+WSDf0bSl2u+Y8s33E+X1waMxNl+I1PdmBw/dbI1g89ouXlU76+zBnuFIox/uv38MrLVc1okGWw37CB0nUayXJB0kjboP6YcjH8t4dH3QrvwbW65iqXHxi2vP8nCNe055Bc91clvrdTyQT/C+fFasuTR6Ys9DuRp4TX8Q24WuzkxzCQNFImMv/5hjL4J2ybKrUX0I+rUkBajX/7Htitcu+e18K6/rr8ZxvtvRW+EkS8YFSf3e0n4Z8nHaWyV9rBs8zOzXOOWQyCdpbyP5rviuRH8z7Y8r3xV+CXPlgTXuM+W7xE8U9vc8fid46E8QrGOvti8IHo44GRNXHoYrAIedKLXPoNYMlzt4S1Yovhc8hJzN4ghNfX7lYU55Bc8JB9mhfKL3xR1S5/SwVwUP8nocl6Mt96HvdNoly644wcPs/FiWXfHbpTh4WJy3zVUH5nclwcMZ/Q363a+3X458NwcPU9rRhcFDV767g4eZ9seV7wq/hLGiyh73ZwcPF/UHfJ4VPJxJW2IFD0p51XyYlbbUXgIaVTrvLOZ+GkTXmGZUJGu2RaaXmp5aZ0nzIm7eLMXIeLh2wKq3VidzNm1pYnnZz0nSljjyCdMF9tnKA/tuOM+wO+uTaYxcux9CpuqgmtpeAaG9cOWbkbZ0qF87a1eCdik6Kz/6fTu/mfNdftrSWf1V6/eu9suR74rggVuOWe3oquBBmB3w3bSlyfbHle+K/pk5KcL6O1O+S/3EUXklMPc87IcmTLmHpL1hujaRNj14CJXI3Sj7+RvpbanoWPDwidTSjSva2JCbvb1zW0VINkTScNPljKOzeAbF00toBKbU82H9yQ1+5obpfr2t5YrP9t9O9TgRPEwtL/e55sY4Vz2NZfg9bf2y5elnGxVHp2uw81uJ1pMnss2UnMGEaweSzt9Zryk6JWfdGFdd4WiegvLRVfENbasBBac+pO2SZVec+jjYr52zK0m7ZPbPhS1Qpe/lf7fYbL3tb8ntj6k/Sf3e0X7Z8l0RPDDLMa0dXRQ8SLMD5gUP43Fhuv1x5RM558z+b9ivCfoXdnAz10880t9z64IzORD2/c2ZOCrHblrvQDpgL7W2UVAEJpvRxzlq9Ryw/JjH+Ai97YPNHN1qRKq9cekRXNXbYslk8oXjv2ZUZpN1FoCzb4Kjl1Bx4aZdF5XDZKfEsPXHlI+dMy2wA1a9JUfYbcembYFVmgbFkm9yeTnPJUcajo7k49rLgaNfOacY5e9zVn+cgvjoyF3G9Ai39GQX5lGtzPfFx7517Sqxm14Hm9pfq8/g1MfpdtmYRerWRySjtF87bVfMdslt5+UN0w07EHy3flTr+Ojrmv649XtX+2XJx2lvtnxms1lnKMoL/+Qsz+zXhuWolKEn37Rx4YLvSsaF2fbH0ougf2bLx+3XOO38wHg0y0+UlpcLa7J608PpVYfG0bknxq2h35nvKwm/PVOIJyPIMa01kjOnCn2Bp8v318orOk5Q2HnccQHN23m6vUzn6kurbmZ6mlfGn2u/zHI8vR09Xb6/Vo4/iWTi4cvHuV7M7QJcRyOdAYDbkDofghUw8If54eBBul/gUXp+avv9YXsB4Jtw083Y94q9h9sFAOBPUCwNNjuS+rLkN09yAO+Bb1cvIUlrWAQ3lz9Fz89uvz9nLwCAO7hdAAAAAAAAAMA7uF0AAAAAAAAAwDu4XQAAAAAAAADAO7hdAAAAAAAAAMA7uF0AAAAAAAAAwDu4XQAARDzy3HQAAAAAgL8AjmoT0Dsbez9e8KcuAXkkreAhvvnzkrof1K/kvGcEPwAAAAB4J5LLYkhn139bb/7MzYiDG6vzK9jBPVx1+RGnfrkXQj314igAAAAAgCFsZ0t769JZV9LWu+VvzKKScYNbTteLgZy5XdY/zWU3p/Lql5tShdQrAAAAALyT1dnaAoEtNcPqzLHRtuo4VVMwKisUyQ2hWwpI9D4yrp4WEt02arXypI1367tL54u8sS66PdN5a6x3mdw6eWbxzhpPg1QjjrNnXD1lJk6nIdPRc3yzalU32fvJJHp2Vntjo9WRWM9x/cb1sT9jg/zrez728KkPdjk4CL67Gmpya2uzLrj2zNEfs35jxkGm7DkAAAAAgGexOnEudihX5z910ILzZg31HR4y6bv292XOIJnCqVdKeZM/t6Lt4p1zwdFXyitF2bNBPmd0JB95vTpp23vIuOCkRu8OAckoHaWTshTJONoT4VwcqJDXNk37ajmVlJUjpFFlTjGRty6Tk0zQW1QnIRixn2+s5XNWh7ra0nOo8l1mOVhIvpvpohs8sOyZqT9u/SZlYux74T4HAAAAAPAotK3nca952YkTS9ob65IZbJPN6GrbcIjydJIjwUPHOe06lDvkrbP14EfbgUN60tFb9Vx+W3ub/F1X9la0/nbUSc0Cr7UuNhl0PPue1xO7HAwk3+XWNduemfoTU6urM88BAAAAADyJTo54y5EPUJixTxyg4EDWZ/CzfzsQPPQcrdG/79+MUl8KuqsGJze4CvScz7o3U1yS9DBXrvhw9Zw9MwweDtlLoz64340YBg9c+Tj6E4PgAQAAAAC/zElnkIyLfv+C4OFInvmslQe2nmPHcnDKU1K+kB6mpelhfzV44OhPDIIHAAAAAPwyzDSPlnOeO3JNJ56VttROJRkFB2kQ0yLfJ8GEueehizDdZ19tWDeqcwOeIr3riuBhctoS67sdm6vpmZWGx9GfFOx5AAAAAMBP09xg6hJnOZy049I9Ds2N0IwN01mgsKVAtWb4xysL20xuugFWGxvO1E9OF8rKsW2s7gQfp4/W1NYvzlU3GtfL9TldqPbdECyZUs+5/q4IHkTl6HBZ8DC2Z7b+hOC0JQAAAAD8NPvRm4OjLbVdvDWVS+JqjtboqNaV5LjP9V3bsZ2bo7cfD5pTcyxJe+PSo1rzk5XCcyaTz3lr5hzB2URyhGj8zcZseXCg8w3sWVAUH/26z8anR55aWz6z6dwZKi9HO1COpj4E323aQbRXJTlKdiAfS38HwD0PAAAAAPhxbhfgJQj2HtQ4cHnZIx3Myy5h+wFwwzQAAAAAfp/bBXgP2oY7CQ7+VuR0P9XBRPDQhLtf4vS+CgAAAACA+7hdgJ+nSLlpOt9pSlF8s/bdZZCVAwAAAAAA/Ci3CwAAAAAAAAB4B7cLAH6J0UV8D1xRAQAAAAAAbG4XAAAAAAAAAPAObhcAAAAAAAAA8A5uFwAAAAAAAADwDm4XAAAAAAAAAPAObhfgdrZbrXH2PgAAAAAAAF2UV6S9ddFJOM56Y1zpTJPxzpnvC/mF71KtvGz5+vr73I/gvKH1N9pmdyaYPYhZnPGUlz+7W4GMq55g5Gz2WybG5e+yh97zdjsAAAAAAABdtLcucmqV8qStd7WZeAQPFXj6I+O8c84vWTnS72pvF1ccY0rG+cW5UgeV257J2FO60jYEKNo+8ChVBA8AAAAAADejbeHQKhWcyNSpbZ3Xb72Of0vBmf6c9e+8NbqcxY5m3q1WnrTxrkgfEnxXKa+tK2fhqSz05tx/5KPjwQNLf1uQYLytBAZpecOqxeed5I1bvLOVoKASPCilvMmCGT70ka/x7kJ/znpD9dSvYX1sNuCMV9k7dSK/zA4AAAAAAMBlBMfMGhqnqbBmfqlw2LfZ7Nrz2i7eORel21Dp/DK+S8Z5Z9MgJQQkqXMZVgAiJ5bIGxtWBQ6vPDD0twUJtAYGlP398y7rNRnvthQnbYODXNNB1cGv6I/L+i2KZamUY8n154L+ktUXZn2EunXh7xR9o5Y2hZUHAAAAAIC7UV6RDg50PJusK470Ueet87t8hl76+wB56xo5+tpG76eqQ7zP7p/Y8zDS3ydIoGT1oRo8qDR9aLG6roNG2lIrUBuRB3ll3TT0Fwc7ovqo/Xarj0oAhOABAAAAAOBu8j9QmCFeKjnvzJUHk6WrLJVc/w1Wbv3ou/GG4hqbQ3w2iGFR118SJKypTpT/PZ7tz9K6msFDsWG6kiLGoebE5ylZHf0lzj63PjrvRPAAAAAAAPBI6v9AxpUz2IwVgJCfnzmwuu+0Twke8hOKhO+ZFzzU9ZcGCZ+VjmbwoLZ9BOsMPjtt6YS8VWc/Cwq4wQOnPjrvRPAAAAAAAPBAWs57dQMx04ln/11NCh7Yef7z05a4+iv0ue1l6AQPQx1MDB5a5c+DHm7aEnvfBYIHAAAAAID3EO4gcGmOPpXHj4a/Z04i0XqiTrzJNn4XeW3WU3TOBg/d76rVGc/Kocjr2gpAY8Pv0eCBo79aMGbckn33puChuu8g/W6ywTteVdhO18rthVkf4uBhZAfyBrCmWA2CndnPAQAAAAC8EW0Xb03lkrOG45Mfc+qsLo7fdEkOvvG058B/HOPPxWkZjSBj+F2lvCKTlSMcEzt613ZUa5GPz4Cjv7yse7C07llwhsp9ArsclF3gFnRYSzM6fNRsYz9CKven7upHtdad/W59JN/e3p8ey5oHliw7EJYfwQMAAAAAAJvbBQA/wPG7JQAAAAAAwIu4XQDwcig6PepuWQAAAAAAwKXcLgB4G3mqU3EjNAAAAAAA+FFuFwAAAAAAAADw8FpcOwAAAI9JREFUDm4XAAAAAAAAAPAG/nnlR9wuJAAAAAAAAOAJ9B9A8AAAAAAAAABY6T+A4AEAAAAAAACw0n8AwQMAAAAAAABgpf8AggcAAAAAAADASv8BBA8AAAAAAACAlf4DCB4AAAAAAAAAK/0HEDwAAAAAAAAAVvoPIHgAAAAAAAAArPQfQPAAAAAAAAAAUEr5/xOY0nwp3AkmAAAAAElFTkSuQmCC;" vertex="1" parent="1">
          <mxGeometry x="19.25" y="820" width="770.75" height="150" as="geometry" />
        </mxCell>
        <mxCell id="6FGdKVEJK4fvtbT7j42c-18" value="" style="verticalLabelPosition=bottom;verticalAlign=top;html=1;shadow=0;dashed=0;strokeWidth=1;shape=mxgraph.ios.iBgFlat;" vertex="1" parent="1">
          <mxGeometry x="10" y="1210" width="790" height="700" as="geometry" />
        </mxCell>
        <object label="" id="6FGdKVEJK4fvtbT7j42c-20">
          <mxCell style="verticalLabelPosition=bottom;html=1;verticalAlign=top;align=center;strokeColor=none;fillColor=#00BEF2;shape=mxgraph.azure.computer;pointerEvents=1;" vertex="1" parent="1">
            <mxGeometry x="364.63" y="1220" width="80" height="65" as="geometry" />
          </mxCell>
        </object>
        <mxCell id="6FGdKVEJK4fvtbT7j42c-21" value="&lt;div&gt;Server 2&lt;br&gt;&lt;/div&gt;&lt;div&gt;10.242.150.183&lt;br&gt;&lt;/div&gt;&lt;div&gt;MDZ&lt;/div&gt;&lt;div&gt;OTG&lt;br&gt;&lt;/div&gt;&lt;div&gt;&lt;/div&gt;&lt;div&gt;&lt;br&gt;&lt;/div&gt;" style="text;html=1;strokeColor=none;fillColor=none;align=center;verticalAlign=middle;whiteSpace=wrap;rounded=0;" vertex="1" parent="1">
          <mxGeometry x="344.63" y="1300" width="120" height="70" as="geometry" />
        </mxCell>
        <mxCell id="6FGdKVEJK4fvtbT7j42c-23" value="" style="shape=image;verticalLabelPosition=bottom;labelBackgroundColor=#ffffff;verticalAlign=top;aspect=fixed;imageAspect=0;image=data:image/png,iVBORw0KGgoAAAANSUhEUgAAA0kAAADxCAYAAAAeCPzFAAAgAElEQVR4nO29Tc70OpJmqchGN+7N8c1R7IC5jP6pRrIrUagF9JwLYe/DRgUECjWoqfaT22AP9OMkRUpGOeUudz+Dg0C8V5+cNBope0SjafjHP/4RhmEAAAAAAACAYQjDJ4ok43yQcQzjOAbxLpgbtAk+BRP8KMGZd7fjU9u3j5MxiDNvb8d92/fZ44td6C8AwM/waSLJOAnj6IM1QxgGE6wfw+jt+XsaG5xIGI9El/a6DCfz9ZvAzATn4/vZ58Rec/vM3DYfbM3W1gUvB/Y1NutH+XetH9drVqR0bWe7lPznGX+5mHu1zwYfjZdGXLxfhNy7fXvja5zoX/4YG3w83910z3We3caHnrfL62n3+8/ub9xvH+z6v+9uTwPWr8+Ut7cFAL6H24gk44IcLnAm+HEM3mb/bvQnA+npfkuAMYkuKQTv2uvKGCebB60TCd6a3Wv69yPC+jCKBCk9DI0LIhKcs8FYX3+YGxv8GPdjFq2FcbQ+G7cKfe2ytZMTXTte489vbF8jfcfh3XZ+F/Xxze27a2/rp/lp6//9fgH4Obu8e3yv8fsO8/wKu6zP0huKJE1/P2Et+IQ2AuMGDz5KJM3XpIH/Ewt6JZjYPMC011XYPGiLfZ36cUrsNbdvFpvOlUWS4t51ymkkKpHU2y6lvrxqoTuzqL6yfY0gkjpQHV9TWMNMcFKamzb44t+z3/kkkbTn998oknrM86tEkri32/x0f+/Y7k9sIzBu8CARScuW9bxbY6wLUksXM3ZKxVpTp5YUuKHxujS1ISULBpKHf5xetg0abJSytaavKPO/teKndJ2xj/NS4yjBO3NeJM0pNen99Olne2+tx+Vh+MkiabW1Jrf/4O3tgZ/GaUzxmbhxTHe+mvxZ2z6FH2jbp+/H1mfqwWJLelKaTjn1xafjrvL7Fjs3tO9ovYrTeuK5Xlv/VOPrghTmWGnOGCfH82ies5u1KB/fpvXlYNy626VxHnV7HrX4/TR28f3E2+B217rn1qFWu5hsLJzZSQFf1vonRLZ6fYlijVgwTun0ccpoQ3+Xl6hO4X+XzfMajXGOJg7r+FxoRetXh3FYo51VcV1H+12yDrXE2S+fb+f84asp7SRZPwYRifLiTXASBaLGBckHf3a4JFjVXrdee6DUo8V7OluwLKKpsxonm7MskyMqdpzmt3yHQqRwnXEyLdKrnabAQmT7oLU+s4H1hUXLbBYA9Rmsaj/sQ8RcIJJsJdd+cyZpXli312ns8vhvapG0N65aP50XmmSM59TG7UuExjdPu36n9ANt+1r6Efu2YgHXiClJHkRm8pnEVg1+32jn3fY1rWuSXLucldxPb62Mb2WOlUTStA7HgmV6EVP2g6gv88M77bvWzspx620X7fhe8TxS+bPJ0o2HMBgT/J4I6rEOKe2yvAxLnkcyPY82dqkEgqdSApXry9q+SrtP+UEWmBZ/48p5fkTDenUYh/V+LijR+pU6DlPauTWu62a/Fv9rWF+O2/fG+QYPqiJpZ/JsAtl4sCIH016ndsL138XCKBdJJnjZ2Xk4eCu4cXL1daWUmenvxcPi0VuMaYFQVuk7O1mjsV1t31EkLW+RtOe06g//k3ZRtK/2wFf7qfWVB2RpF7AteG8+o1C6v7Z9Lf2Y6SGSnkpdqtmzo0hS+4FxQTbCfP8Btzu+apH0CEYewYIJ1vttenDtrOFRgFewp3rcettFOb6XPI9UfbfFXfM9uqxDKrtUnkfFMUr7+nSKoXp9sdszxsW/6fyg/Dzb+t+V8/yQVpHUOg7PPBdUaP2qIQ5T2bk9rutmP+W4ta4vp9pX6X/3+QYPaiKpbrS9M0B74uXgHk0iaSngYLb32nkrtrulOL/N0AmkwnU77d9OBrM9V1CcSHmKyxhGOVD9e/3IF6PuO0nT22WtsNk+jLV2aWQ3OGzw0522bB6cLcH7YfCq9ANt+1r6UR0r7Zim80C3GDf4fTeR1OAHld+sBk9H46sWSXPqR+lcZi7mVeOrs7N63HrbRTW+Fz2PtH6fpNfI/ku2XuuQxi47//1ojncRScr1JX+LXXvb/cyZpPQ3L5znGhpF0v686/xceLL9m2wjbRymsfOJuK6b/VTj1r6+6J+HB1wx3+DBZ4qkYZMLvra3WNzh2MlUO0h717WIpJ2zN/GOmJNCCWy7Y6ejfsR5qUe5tSWbK9G+IWk5q/VMpaX99rxfJO23r8EPvkIkNfr9B4ikw/lQuV9pJ8mX8tbzf68aX72drxJJqnXi7iJp095pJ7y2i99lHdLYpUUkVZ8LT6TbqdeX+E12oXqt2g+0/vctIumC58KT7d8eyXguO+b0/XrbTzVunyGS1PMNHrSLpJ3/vklv0F03DMNTi2BK23a4WYTF09c1pNtVDmon1awat321/djcq3vhBr1IKorHI7u0onhbrfbTK9LtjtrX4gcfkG536Eut6Q5d0+2UftASPGl2S0o7qJX1pGjDfN5o0u0a7Kn+pk93u+jG95LnkcJf9tpTFLK91iGVXdrT7Zbffzp4a1xf1rfZh+e1eoiki+a5ll4i6Yrnggp9up3aTio7t6c5drOfctxa15euIqn3fIMHZ0RS28HHhoOoSSrY/K2fZJCVXym3fjrMb9NUrryogKmkhuX9b76ucKAxTyvbbINanwmEOd89/gbRUr2kdGZA0b7iOD4hkqbJ5oM1UTWb5WO/J67T2SVt21HhBv3bamXhBsnGeD4gWcyhP/RnTfv0fqBuX0s/Yh/rVLghP+g+9Wexf0N/G+ysal/TuqYLntR559YnBRj2d7wiG87t255JKhVuiK9rsbNm3C6yi2Z8r3geKfxlEo9ue79Kdc9u65DSLpvnwnLes9LfZZyeEgGL/zWtL48KYrtzU+UHCv+7YJ6raVivjjN6Oj8XlKj9ShmHqe2svV9v+zX5X1vhBpX9j+KcK+YbPIhF0qYCWaFkYDr4B6UOW64btuWzxdtN9ZFHwD23ufaWM0vHG2Uq75g7qSbNQHtdqQ9LCfBt3mxcwryw7ZtMjuUaF8yam/sQGC3tW3CxbUqpHOr+uiCK8TU2K5UrruIHCrts7LN/5kG1C6Ut3akpraz1Z237lH6gbp/yuj2/yt/Qq3PFTTq+q13O9Fdp59b2qUoDJ21Jy8Qmqb8NqaJxedvqi4FNG9PqdklJWIUfqO18NG4X2kXzXOj5PNL6yySg7FTBNHrObD7y23sdarBLuVRzab1cUoKeT29uXScXWx5Vjdvtb4v/9Z7njZxerwrip+tz4Wwf9vzqKA5rHrcn4rqz9uu8DjXF2Uk79wtD9J5vMHObj8k2kNTKfyYVC76a7h+C7FFE4g7t69wPeNH4fgm/Zpe79Xc//bGfSGprE2+1L+NF6/3TO5DwsvFlvjXwiSIJ4C3cXVwgkgBgh5ecQ2hdXxp3FuHi8TgB51s+aHyZb20gkgCO2WyR30xkaNt3934AQEfyynWaKq5PoF9f0pSqZ1PY4NnxuLdfwbPjy3w7DSIJAAAAAAAgApEEAAAA8IMcfaiVnQf4ZRBJAAAAAAAAEYgkAAAAAACACEQSAAAAAABAxKtEUu+67O+q8059eQBYYD0AAAD4Un5bJKVlETX3e3dQ5ETfVgC4lnevBwAAAHARiUjKa9+/sqqJcUHEvc0Qd/sq+hVtNU6KYyv+iY/AGRu8pN9LcFH7HnX8o69x537m3Sr+Nh+kiyvvzN8AuKQfv8ab59tt+/trdgEAAIAytZ2kl4sGRNJr2lr4OrNx/qTtbfASiZ9h+vK2ZDtdxkkQkTBmv5H2wwY/ykaQGydhFNm2r2s/fpBfEwOIJAAAAGihWSQtuwDiwjAHxPUvLmvS2cpfAp7wwTbfb5h3NySq/S/BO7u7y7AvPLRpefW+5Dtx1st2F6TwxWoT23iU4J3pLpKGYQhuETvxLk8ULCa7N8u/t34jfKa+FUSSc8EXBFAqkqZdqMc9zZTO5Avi56gfSnusO13eTiIrtrXNbKz1q8iG3g7BWBeklCZ5dL91rvlHmqW3kU9s+3rsVy3zTemn2v62YFyyQyneBufPzCNtfzuvQ03rZDbPxQdnKqm1SrsAAADAk5zaSTIuiEiQ6IE/BdG+KkQOA/vGN7j79zObQM76sRhUq9unum4K9G12fZ5CZpxMwW78N+sme+bXSRT0GROcn3Zl+ookk4iLUpvjv6f9HSfhprBZft+SSLLGBRljwTb/TSWSTLNIWu81jqmtBxOsz+3c5lfWj9NYrWmAefsU95vTDcXbSVQtQbvZjofWr7Tzrel+qv5qMcHnItWY4KUgsjv2t+m6og+X7nW8Tq7zIp7nMs3z1HY6uwAAAEAHToukzVvs/YDotSKp/f59RFLGEuQnfzfBS0VMWh/d22wE18POT7yhr6SppX+zm12f8t+GMBg7Cbf4LXi2A/OwmUnuURRJw0MorIJBKZK2/WiwSVHgT23aPee041f5jtopP53/v4nuuY5Bcq3Wr3Tzofl+Z/tbZEq93BdXvfvbeN3Gtyv3OlwnK/O8+G81dgEAAIAunN9J2gYS9xFJ045LkjJTOBPT1L7G68pBzrDuDNQKZKxBfu/ge6FQnCN/G7/0c5NuV9hdyu1u7NS/alrdnKJnNraMduGy9K2qSFL0Q22TirjKA9oWv7KHaVCK+2V9r4okrV9p51vr/VT9bSApCJLuxlzS39brSr6tvFfiUzu/V1xPj+wCAAAAffg+kbScY8kCZvvKnaRtQYO8n4fB/JUiSbXbEu8cmfIu0o6N4t9IbfbYCauKpGE5jzHvFKjT7U6iEkntfrUvGpT3axFJGr9S+Nep+x3290nm81s2Exfd+tt63VDybd29nhJJR3YBAACAPnydSKrd52XpdlM6zX5wrEmZeV263V5fR3HBRLs/8X+vBcW5jTY2W9IQd0TS4dj1FklH6XYn/GpXNGjvpxVJred/FOl2Z4pgXHk2Jn050Lu/jdfNPL9OtqTbaewCAAAAXbiVSIqDAmPmylXlcwf1+815+/YRTNmlatnlIqksYMoiQbKzOybY0g5M5UD3K0RSXMWrdgZl0w9TKAtesJmTMevHm0WSZLaeCzc8gv52v9oXDcr7qUWS3q/U863lfof91TPtRLosva5wHqd3f1uu2/HtXb8dtuvkOs+zOZQXblDbBQAAAJ6n+WOyyTVLUJuWxF2ufXxIVHemIS93Ld4m1b/U90vus5QFXs4wPAJx7f3Uv7tzTqJ0kDz9COtU/vnIJksJ8JoN9yh9hPVIbO1VLbR+DN4VPia7M2a5H4kzW7ut/TKPj8xGY3emH7vMgmtj67wE+LN+VRB6u/crzLXl3qndInGp9CvNfNPeT93fBj8VlxcEycXQRf3ttQ41rJOb31xLgJdeNijtAgAAAM9R20kCGIbhudS+T6HnrhRAJ86VTwcAAIAuIJKginFBailw3wQiCW5G7RwgAAAAvAhEEqSkKUGl1KBvYpM6hViCd5CnOlPaGwAA4L0gkgAAAAAAACIQSQAAAAAAABGIJAAAAAAAgAhEEgAAAAAAQAQiCQAAAAAAIAKRBHv8xHeSvrC/39IPAAAAgLeASDqHk6lU76cGosb5IIqSw78WbN+9v33GLS3z3rO/TsYwinu7nQAAAACeIhFJ+bc6Pvk7OcYFuThYM05uHVDv2mb8ke+wvMAPPnncevswIgkAAAC+gtpO0scKgAVEUh3rfyeQ/SaRdMG49fZh6/kgLwAAAHwBTSJp2WkS/0g38zYYu6QASXDzW27r510ob7MUIQneFoIyY4OXgzSiaKfL2yEY64Js0t7SVKIUH2z2u9ZLco14F0zhTf2jj3MfnHkywDTBJb8twTu/DeiP7LKOiQtD3MaS/YxLU7WqO4X6dCyT/aYzWSpi3L7It5Y+u1Jfdsd3sYlk42GDGep92PeDhvSznuOh5YJx253nJ+bH43pEEgAAAHwBzTtJc8Am3k4B4xJ0mjn4jYP8OWAUiQMrE6zP7m1ckDyInANhVwjIrB+DiEwB23xPl1+r2EEwTiaRF//Nzm3Jr4v7YCaBI3JWJE12kySwN8Hm9tPaxbipLdG1kxDxmXCIxkW5I7EXRC/jndhFJrtoxmIzZurxNZtAvRqcN+4k7YqGq8ZDS6dxaxlfzfxQjQMAAADAJ3FKJIlbAyfro7fZeUBqfSUwtMFHf7e+HCwP1hcDLusVb8kPg2MTvNRFxOP+JvjCDtQUuJ879K4NYNV2MS5IvitTEo7xv3862K7YpdSWMyKp1a618e4oki4bDy0vFUna+XHudwEAAABuzVmRtPz/Q5FUeav8CBhtRYTU/1vymzWOguOdFKYlTfDoPqeCeW37W+zSKEK6BNs7dtHu6u2JpH375KmKYxhFyn3qJpIuHA8trxRJ2vlx8ncBAAAAbs1Pi6RoR+zMfRBJ7xBJ8w5elgY22Kt3kn5QJGnmBwAAAMA3crlIUqXbVYLinXS7p0WSOv3pmnQ7zbkNtV3eIZKeTrezwW9S0hTj25pW1zXd7qLx0PLidLun2wsAAADwqVwukiQrejAXbkiCzROFG1QiKQ7CjZkrdUWizfqpwlpSbW8uoBAFvcXCDfJ84Yakyp8xwTqffgenqVDAq0VSZJesbZvCDZkgMtZtqiHqx3e+12q7xW6V7/No/EDZ38vGQ8uLCzdo50f835ZCLuxAAQAAwEfT9DHZ5L9PuwhLqW9xJjrHMO8wzG/YN+WzT5YAX8uK51QCx/x3xdtt+WLjst+dykkf3WspAb53PmMXY4OTtAT4JoVMY5fCmOSloFfBUR3fNHiv2rnQ13IJ8K0YSMrAZ6XCl/apxzcZi6UsdeZ7DX7Q0t+u46Gl87i19Vc3PyYQSQAAAPAl1HaSurBzJgm+F9K0AAAAAOCjQSRBT8ycEsZOAgAAAAB8LFeJpE1KD2LpO8lTwQppkgAAAAAAH8WlO0kAAAAAAACfBiIJAAAAAAAgApEEAAAAAAAQgUgCAAAAAACIQCQBAAAAAABEvEokOZk/OHvT+939dwEAAAAA4EX8tkiywUflqzX3e7dIcqJvK/wa7f58d5yMYRT39nYAAADAj5GIpPybNxHeXtwQ44K8MRgyTj4mqDzbVuOkOLbin/j4q7HBS/qdJBe17/G9LAlu+X5S7mfereJv8yFa44Jk39qiH9/lz3sgkgAAAOAt1HaSXh5kIZJe01brNx/2Nc6ftL0NXiLRMAzBWB8k28UwToKIbILdtB82+FE2gtw4CaPItn304zofuRHW8yFqAAAAeAPNIml5ey4uDHMgubx5tya/jyb9J70mxQfbfL9h3hWQR9tGCd7Z3bfz+0GlNo2p3pd8J8562e4ebOz3CNYf/TDdRdIwDMEtIiHeHYkC9WTXY/n31hff8ltfEBfOBV8QDqm4mHZvHvc0U3qjL4iGo3602uQb+qH1Z838aPEDrT9H9/R2CMa6IAfpo4gkAAAAeAundpKMCyISJBJGU/Dkq0LkMLBv3Enav5/ZBGhHwZZWeByLqVTYmTlYNvk9fBqUTgHj9t+KRMGmMcH5aTejr0gySVBeanP897S/4yTcFDbL71sSF9a4IGMs2Oa/qcSFOSkuvqUffeeH1g+0/hz/lohEaYX1/iKSAAAA4C2cFkljHtTsB3avFUnt9+8jkjKW4Dj5uwleKmLS+ujeZiO4HnZ+4lB+Jb0r/Zvd7JaU/zaEwdhJuMVneazJ7r/YzCT3KIqL4REYrwGyUlxs+9HAt/Sj6/zQ+IHWnx/kO3Rd+wEAAADQg/M7SVvBcR+RNO24JClvhbMkTe1rvK4sJIf0AH+JJTjesUdLkLmhUJwj3wVY+rlJsyrsKuR2N3bqXzUdbU5tMxtbRrtwWVpWVVwo+nGOz+9Hr/lx6Adaf878V1sIBpEEAAAAb+H7RNJy/iM/Y/HKnaRtIYC8n4dB8JUiSbVLEe8YmPIu0o6N4t9IbfbYCauKi2EpdT7vUKjT1Pryyf3oNz8O/EDrz5n/Xl4tEwAAAOAZvk4k1e7zsnS7Ke2wHgRqz5u8Lt1ur6+juGCiXZP4v9eC3dxGG5staYg74uJw7DqKi2/ph8pPT8yPfT9oPz+FSAIAAIDbcyuRFKenGTNXzCqfd6jfbyrB/DhPYoJ1c4W4y0VSWcCUg2vJzryYYEs7F3nhBrmicEONR7W+2tmSTT9MoZx2wWZOxqwf7xVJ39CP6+bHvh9o/Tm2t04kmfl36wVhAAAAAC6h+WOyyTVLMJiWvl6ufXyAU3dWIS93Ld4mVbjU90vus5QjXs5OPAJY7f3Uv7tzPmMTXBqXfbx0KsN8ZJOlBHjNhnuUPl56JLb2qhZaPwbvCh9h3Rmz3I/Ema3d1n6Zx8dZo7E70489vqkfPeeH1g+0/lxtX1WcIZIAAADgTdR2kgCGYXgutQ++BvwAAAAAfgpEElQxLkgtdQx+B/wAAAAAfg1EEqSkqZOb9DL4EfADAPgd/us//3P4r//8z29vBwDcCEQSAAAA/CL/69/+Fv7nv/xL+I+//z38x9//Hv7HX3+Ff7pBuwDgBiCSAAAA4Bf5tz//XAXSwv/1xx9vbxcA3ABEEgAAAPwi//cff2xE0v+JSAKAYUAkAQAAwG/yvwxD+Mdff60C6b/99dfb2wQANwGRBAAAAL/Mv/35Z/i3P/98ezsA4EYgkgAAAAAAACK+TSRZP5cr9vblv22cTL8t7rrfsf4tfYNvIi3vXf9IrPa63r/7Pqy/Z7sAAADgxawiybgghe+irFwZ+PfmnULCuCCX2coEf7dv1Vza3w/mQ+xinKhEgfa63r/78vHgw7kAAAAwDJlIioII66Ng/EMCvpUvFUnGSRjFBfNu+76ovx/Nh9gFkbTFCbtJAAAAP88pkWT9usPk7RCMdUGkkEJjbPAi0Q6VBO9sJcg3wXmJdq8keOc3gY1NrhmDeBeMye41iyRjffrbNgt8LmhfyY69duM2wdsyDuKDW+yf9FuCy21jbPASt8kHm18z9yO+TrwNLvaJLHUq5eSbeK1faf2gp1+ttnZhiP1qY78L7KLtR5M/T9xSJLX04wI/Vb+M2JtnAAAA8Nk8s5Nk/RhEZAoohyEMgwlO4oDBbAJX60vnhaZARpJAyAQ7ByvLdcbJJAKifzsF0lmwMwe0EgewszhIA7O+7SvZyjgJ0mP3Z06H3KTazX8Xb6c+LsGfeQR7aduyoH4OSNMgzwSfi0pjgpfK73feMTnyK7Uf9PYr46Z2RTaczqH57fh2tYvW/7T+HPXzjiJJ3Y+L/NS4IBrhg0gCAAD4XmqFGxKRVOHUIedCsKILwEzwUghGh2EKVjY7LIW3xPN5g13Bcrp9+b83wfop+O4yUNZXdoZcIsL2xK31lWBuk55og9cGfleJpJ0AWusH3f2qGDznLwb62+UpgXLQjnuKJG0/rvJTe7+zfwAAAPBanhVJ+9fkKUJjGGW7+6L5rcPCEnGQv3MmKd/p6ta+uJ0ihV2rJ9kTfqodQBt8Nd2r8N+StDzZ7kBVfr8Hu/Zu8IPuflXp69UiSe9/On+OuadIaujHJX6KSAIAAPh5rhNJZjpDk6UxDXYbrKiDWW3amkokdW5f3M5Rgu+5i7T0aWcnqdjWZ0TSpl9TWt4mAH2HSFL6QXe/urVI0vtzzP1E0rl+POzew08RSQAAAD/PZSKpFpRU0tmOq9FV0ppKaNLturdv+++PzoM0sXcmSXmWrDpeymqAxTS4V4ukBj/o7ldvEkmqfjT4c37vW4mkk/3I/ecpP9WeSQIAAIDv5bqdpPm8wHqo2gTr5oPOxbMF4+YA9nR9lD6z7KYkVermA+x5ul2xcINkVa86t28YsmDMdC0nXLxXS8ENZeGGKSh32+tqO1nx342ZK8UdnP067VcNftDbr1pFUje7aPrR4s/pWN9KJDX04yo/pbodAAAAbESSk+25jG35ZeUHZ5MS3EtZ5eUMyPYMjJO0xPEm5WYYNiV/R5nKA2/apikB3rl9U6Wz2A5p+eFn03c2wVtUMntp79J/cSY6bxP1RVECfApgbXA+KsMsuYiIrs/sLN5WynHvo/YrhR/09quSrY/Gt5dd1P1Q+nPVzoUzXaqzWs+Ob+FMoaYfV/mp+sUGIgkAAOB7qe0kwR0xnJUAuJI5Jff896wAAADgK0AkfRjW9y0IAQArpz5rAAAAAN8HIgkAAAAAACACkQQAAAAAABCBSAIAAAAAAIhAJAEAAAAAAEQgkgAAAAAAACIQSQAAAAAAABF3E0nqDzkCwNfDenAvGA8AAPgZPksk2eDHMYwzr3xYO4l+0/q5DXx0Ej6T9/hz+/y9c1BurAtexjAefLdMe92EmcemPhbGSZDFht4F82K/uet4XN3v88+c9z23AADgCa4UScbJ+mAo8sRHUY2Tlz5srJ/a7O3wCCrFba81Lkjp73Bvfmzc1P58Ea+ev10xLohIcM4GY319HdNeF2N9GEWCVERSbrePtuOH0cPWjBcAwAdx9U6ScVIODrRBw859Xy+SJDgzTMFPTeT9WLD9NfzYuKn9+SK+JlhsET+H15ngxzF45yoiyQS/+bsJTn5pR9sE6yWMo3/pDtow3EckOZl3EM27xwIA4Mu5h0hqT0c4ethMD9Lonk8+VKZdsTmoXNqb9CvtQ0oWxKzpTdObfGNdkFI6h7HByyO1ZhwleGeT4GDZERi9Dcb59Fp7/mFsbHQv8cGZcsrJoZ3jXYrsnrYwHqpx62i/pnFb7xldU+qHtn0K1OMb/Wa8I5Ts5kb+euzP17I/fxXrwRV+dYaOIsk4mfpjKiLJuCCFe1g/7wheNl79x+OUz8z3FT/P4fU3/WNt8jZauxb/jm2omL9Dtv6NErwzqc8Wdl8fc63wuyq/1/rpIhSn9ey6cQcA+HFeKpKUgcKzIsk4eTxIl79ZF+SZN67WR28vTT03v2FHwvoxiEh0rsAEJ/ED1mwekNYXgtn5gS0SP1CnB+mZt5ZLsLbey0ztEku6I7sAACAASURBVEkf/mo7z2lHEgUkU0CRvg1uHbdu9tOOm3FJH6a/TUKsFBQdt6/F947Hdx23ynie8ueL6DHPr/Kr5rHpIpJs8MnOXqFtlXtcL5L6jkfzby5nukqCZt4FFW+nubi83DAFv1fOX+MknWvGBOen9S99CVNeM/bmeNfn1iL4xAf3xAsxAACo8BKR1HAO6fngyQQvlYey9dcHgq0iqbU9pfsnAW+MDb45QCml9My/O6YCRG3nzb+d/n0uaFrHrZv9lONmfSX42Qleu/ibenynIDENmEt/ez/dRNIFftU8Nh1EUiLeP1kkHY5HA7M42d0Vn+ftMr6JLbI5rZu/lfWv9CKhq0g676ePHTZS8AAAuvJ1O0nL+YoLikWoaBRJ+8HNEiTE6SGVXYFKv5oDlJ32J/dqsbMmmDgxbt3spxo3Wwme6v+tW/DaML752/Pa7tK76beT1N+veo2N+rpcXHyySGoUDVWWcasJh8pv1kWScv7urAOblx49RdLTfrqkEZ4UpAAAsOVtZ5J2rn9aJL0zKOwmkuY3l1n6xWArO0nvEElaO2uD2cZx62Y/1bh9hkhKd47MLXeRhuHFIunK9aCHSIrPk+2diav09ytF0jA8dpL20sm+SSSd9FN2kgAALuLrRNIz6R096CWSWtLC3pRup7azKphoH7du9lOOW/X3rn7D3zi+6+6R9V12kdaU2Y67sC8TSVevB12r20X9qlW325xPqaWHvWHceouk5TfnM0lFEaAWSdr5+2y6XXS2rMl+J/yUM0kAANfyfSJpmINKyR4cJtjGtpxikzpTL1m7H0TPD9u1DybYpbpZSSRJdth4Pth/JkhfDy6vfZqrxOUPca2dtcFT47h1s5923E4UblDZf68a16nxfVQj63Emyl2QxvM6kdTuV028VCRN9/HK7yS9fNwuEknrb1sfZMyKGzSIpKcKN0ihcEMmiIx1+/P4yH4NfjqtZVS3AwC4lFd/TLZ2AF+Ti629bhiGMBiXlXp93QMlLx8r3iZvQKv9KIifOE99epO6PIijIGoOwDZla7uXAC+V1D2wc5JKtLQ5LSmcBPqKcetuP+W4Te07LiGsbt+mnfsHy1vGt0dVsWU8en1Dqes8v8Cvmm1SIP9N1XURLm5jRSjFZaJLJcHfMm6t43Ga+eXFslOa/ebSVnEmsn9kxydLgOe+mpTlzz6VsPS373PL1nfVAACgL1fvJMELePLDvFremsb4y5wY324lvZe324z7Z8G4AQAAPAci6Qt4gUjqdb4FXjC+e+lajVS/KwW3hnEDAAB4EkTSZ7NJ5egVGOUVtyppKXCX8U1Tm/qmOAEAAAD8GIgkAAAAAACACETSD3D0oUJ2HgAAAAAAHiCSAAAAAAAAIhBJAAAAAAAAEYgkAAAAAACACEQSAAAAAABABCLpHMtX1bt8sBNg5mv8qvJtJ+u/oG8AAADw/SCSzmOcEPAdcVRZT9zb22icFNsm/j0fz/18vzLB1yoldvzQLQAAAMBlIJLO8/nB7AswLkgkhKyPgufsv72Vws6Hcf4t7ft0vzJOwih1gemE3SQAAAC4OZ8ikqyf3/B7OwWv6xt/Cd5mAZf1yXd/jHVBamlMxgYv8c6GD9Zsf9/Y7DedSYPZ5TejoPqxQyHBbe5pgvPxDoYEXwjKrZft7kZ+r5b+vpoWkaTth7HBi2TjYZOgvMlflt8upIc5icYOv1L51ZEIOhJRAAAAAG/nU0TSMAxr0CYSB3QmWF9+8279GEQkSpsyadBrXJA8eJ0D8Dj4NE7S3zRTICqS/W5lZ8RJHsza4McxSBLYm2Dn4DH5XZ8G/1OgWk5XOuxvg427fXD2xE7ScT/MJqC3ftyKnBZ/KYqksv3wqx2/mtMrd33EuCBFgQcAAABwEz5PJPnCG2gbfOHvR4fEra8EaknAbIIvnqEw2zfmymBWl05lgpdSX6f2VUXhu3eODkhE0s41zf0o2b7FXyrpdmeKD/y0X1lf2eHK7d8otgEAAABeyceJpELQOgylt+pHAbmtBKnZf9s5N7MJHpXBrEYoHBY8qATvdw88tSJp/5o8pWwMo8i2CESLvxR20PLdFvxKwSxM9wszIJIAAADg5iCSDv7bO4PZxnMbXURS73S7E23cv2beackFjK3sJLWIpMq1be37cb9iJwkAAAC+gY8TSY3pdnuBWPW/d02LssGP27So44C8/TzRT+wk1cTFBel2Z/vw037FmSQAAAD4Bj5OJIkUD+KXgrLD4O6ZA/ZSOGCfBa7GLqlN5QP2SZU1Y4J1fvqGTFJNTYJLqrHNB/F/Nt1utvFqk8VuhW8utfhLR5H0635FdTsAAAD4eD5OJHm7LZuclXReyz9rPlz6ZKnm/BxHUm5afHBmCho3aWrGBidpqebiGRjjsvZN5a5P9/dNONm2Lw+k1f1IxmIpX70Ih2h3RukvpY/J1goY4FfHfsV3kgAAAODj+USR9PZ2wGeAv7wJUz9zZNy0q/X2NgIAAADsgEiCrwV/eavt5UT5dAAAAIBb8CkiaZP6Q/ALO+AvAAAAAHCaTxFJAAAAAAAALwGRBAAAAAAAEIFIAgAAAAAAiEAkAQAAAAAARCCSAAAAAAAAIu4mkvjQJAAssB5g53f241vsAgAAJ/gskWSDj8o6v/Lh5ST6TevnNvBRTPhM3uPP7fP3zkGqsS54qZeX35ShX9mzs5nH5rVry53t/M5+fItdAADgBFeKJOOkEiQ8/+0a4+SlD68l4PF2eASV4rbXGhek9He4Nz82bmp/vohXz9+uGBdEJDhng9n5YHH5w7k2+D0BZH0YRYLwAuYz+LF1AwDgp7h6J8k4KQcRO8GF9r6vF0kSnBmmB2NN5PHQ/Ex+bNzU/nwRHy2SYlrXsd3rTfDjGLxziKRP4cfWDQCAn+IeIqk9DecoyLI+3cUS74IxT/ZjCSqX9ib9Svuwm16zpjdNb/KNdUGk0HdjgxeZAthxCmq9s8Ek/Xzsyhnn02vt+SDU2Ohe4oMzWYqW1s7xLkV2T1sYD9W4dbRf07it94yuKfVD2z4F6vGNfjPeEUp2cyN/Pfbna9mfv4r14Aq/OkOjSLJ+3r2r2GQUN4vWV4ik/nZ+D737oXkeNa4bAADwebxUJCkCCu0b5r3rjJMgPg2Gp0D1iYeX9WEc/XxPU89Vb3izaP0YRGQK2Nb7LoHr9P/zQM76QjA7BwAiceBngvXn3tYvwdp6LzO1S5K2Ndh5Tk+SKCCZgnSf/tvGcetmP+24GZf0YfrbJMRcMTA/al+L7x2P7zpulfE85c8X0WOeX+VXzWOjFkkm+LE2/vbx314mkvra+Q707sehn7KTBPBW/suff4b/8uefb28HfCkvEUkN55CeD55M8FJ56Fl/fSDYKpJa21O6fxLwxkznH9oCGVM+M2FckDEVIGo7b/7t9O9zQdM6bt3spxw36ysBbiVQPtW+Sv914zu93U53Kkp/ez/dRNIFftU8NlqRZH313Fci3u8okg7tfA969wORBHBP/vjb38L//Jd/Cf/x97+H//j738M//vrr7W2CL+TrdpKW8xUXFItQ0SiS9oNXE1yWJjRKZVeg0q/mQGan/cm9Wuxcuefp+/W2n2rc9g7cl//bcfuUNIxvvmtU2116N/12kvr7Va+xUfclD97vKJKO7HwTevcDkQRwT/79zz9XgbTwf/zxx9vbBV/G284k7Vz/tEh6Z1DYTSTNKVBZmtBgKztJ7xBJWjtrg9nGcetmP9W4fYZISneOzC13kYbhxSLpyvWgQSRV52J8nuxNZ1sQSSfut3NPALiW/6cgkv53RBL05utE0rvTQHqJpJa0sDel26ntrApO2setm/2U41b9vZ10u24iqWF8192jOb3rWYGwpsx23IV9mUi6ej3QiqTWlwo7Aunl44FIOhzXd/cb4Nf43/72t/A//vprFUj/jXQ7uILvE0nDHFRKcEl1NxNsY1tOsUmdMXNlrW0wux9Ezwe51z6YYJfqZiWRJFI82H8mSDdO0oBuqRKXBxNaO2uDk8Zx62Y/7bidKNygsv9abWtnp6FpfB+Vt3qciZqqGvYNiF8nktr9qgmlSGpaBw9E0svHA5F0MFa69R7uy7//+Wf4dw7/fyT/+c8/w39m7OAqXv0x2doBfM2ZAe11wzCEwbisVPNU/vkVRk3KZ49zZS2j6G9B/MTnKaayxcsZiyiImgO1/Hf7lwAvBBNHdk5SiZY2p+Vzk0BfMW7d7acct6l9xyXA1e3btHO/METL+HarPtbxG0pd5/kFftVskwI1UawVzC5uY3VH94Xj0WrnN9C7H03PmUG5bsAt+adhCP892o3473/9Ff7pBu0CgJtw9U4SvIAnP8yr5Y5vjn+CE+PbraT3sgvDuN8DxgOgG//pjz8251r+E+daAGABkfQFvEAk9TrfAi8Y347V0arflYK3wHgA9AORBAC7IJI+m01qSK8AKq+4VfwyPdxnfNPUobukQgEA3BXS7QBgF0QSAAAA/CoUbgCAIoikH+Dog5rsPADA1TSsQ1puvV79Wn8BAL4NRBIAAAAAAEAEIgkAAAAAACACkQQAAAAAABDx7SKp2/diAOC2/No8/7X+fguMG0Ad5sdn8tXjhkg6YCmFLe7tfXkrL/lgbVrGWjNuxvn0cPSlpcrb21djLe3d1ab92vdp3H2RNk52y7g7icZsLb9f/9bV3fv7a2jXof1x+6H52/hc1c6P+JMJL7ff2q5OH3tW3M/67/IT1rV7wbo2fL9IOsS4IEcLteaar8YE/+LKSsbJ8WRaPpr6hu83qdp3xIXCs0v7rkA7l75szh2NxxLceTv8xouZbxrfC9ah287fnuPb4AOt8+Mt9lurGfb5kLfqfh0/HA6dxox1rcpHrmuIJETSEcZJGMUF8+LfPJxM1r8tkEQknQSRVGQKAuc3xktwdPnO7Qf4wSdwwTp02/nbc3ybRZJ+frzHfvMb826+oLsfuy83gnVtl49c1z5FJC3b7Zu3KvG3KNYB1WzvpdekFH5DXLr1+Gxal7HBS30bM07HSrc8JXi77Y/1kvRBvAsmbl/89s229WN3ETYu6Yd4G5zf7jodti9jdzLtfH/k7G6XyWziTJbi0dI+xfiuY+Jt+tul8TU2eJH0Gmd3RWu3xajb+GrnW8O81MzzRr9X+4HSLtrxmNLxlrSauV+bILBff+O0pHXe5PMqekD2W19axrdhHkX9MNYFyccsuibu11Ea5NHc0K1DZ9KIj0R123pav0/Dc0a1Dl3zXNXND739rsLJTrs0ftpyv9g2PV5itjxnGte/fVjXWNduzKeIpGlAatvKJjgp/7fjYFb5xitz5KcWJuOC5JNiXqBcYYKKxBPXBOvTPhknQXy6mE0TqvRQkuS3p8nk6/2Y+15e/Ezw+cPUmOAlvV7dvpZxW+zT4U3HOpaLjY0JTiRIPh7a9jWPb3TtvHim9zabAMj6VwQJF4zvRTtJx+Nx7Pd6P9DZpWk8rI/aYw7fDvfob/qbD/LfvmR9Ue80KOZRNCdEZAp0Vjs+rq2t2cvfT8+ThnVIOy/3rjuznh62X/GcaVqHej9Xe86PCzlalzV+2nq/yY49zkFpx7d9/dPCutbuL9+yrt2WzxFJQ3Uh2XPMfiIpfwDVF7YjrK/8uzz9qjLZF8G4TBgvFZFj/ebt93YxPeiH9aF+cNQGf7g4N7SvZdyWtj0tkkxZfB88ePba1zq+5d/eEa4Kv+2zGF0wvu8SSYd+3+IHGrtcMR49+7v8LQtsNmvdReuLYnzV82i9/uhtpi2crSz9rZGXBhPn1tPD9h8+ZyrUxvENz9Uzdn4H/YstdPDhpvFtX/+6jBvrWsP4f9q6dmM+SSQZJ+ugOxkf6nnnbEc3kVS45txivrcjlv23nX6tv72zNbrZaj3Tj1ogv94z3jaWwhuShva1jNvStmdF0s7479ml3r7O4zsMYRhMcFlawCj7b4n6pdt1Ht+37SQd+H2rHxzZ5arx6NXf6D5p+klhzbhifTkc34Z5FLX9KCjI+9slVemVwcTJ9fSw/b3XoZc/V8/Z+R1o/LSNXiKpZXzb1r8u48a6tmu3j17X7swniaTB+iDeTo7o/fo2Y8+JfkIkaSfDaZHU0M9529hmwWfrZEUkLb89p5ZkaQGDfcVO0gXj+y0i6cguF49Hr2AifUtaqGJ51frypmAiDSg7Ve18tUjqXUTninUIkVTlniLp3HPmMZb761+XcWNdU/rAB65rd+ajRNJggxe3GnrahrQng9mZNyzmVac/mW6nbseZfuyeSar372Hzc+kTn51u1za+u+l2J9NZrlyMnhrfu4qkk35Qt8u149EtmIjbPc+ndL25aH1RpaUo59HR9QXbjeKCKfb3BC9Ot+shIjbtP3rOtK5DHyCS1sPtL64i2V0k9TiT9Mw4Rv16do1jXfvVde3GfJZIGtKD1PGB07ODki8wxswVT6KHRu/FvOVgv0jxQG0yaZbdnqQakQnWyfPpdkO9up1xEkbvtv3IF2xt+1rGbbWPYhKvVWnK/TROUh9aqvy8rXBDPL6zPe1DlNilGtTFIumS8dXMt5br1ONx7PdaP1DbpfN49O5vOn6+UDCkcXxPv+mtjO+JA8664PNRlanLmLw6mDixnh63/+g507gOveO52mjnqWrlNWdr9ugtkvpUt9OP75n1r8u4sa4pxvCD17W78mkiKc29NMVSoHkZyKOc7bwEs3j7eFjEJRbXN81p6cNTC17PEtHDEAbjsvtN5TuTe53sx171FHE2OB+VDZV80VG2r2Xckr7E1BfLPZG08YG19HN6fZNftZR4Pxpfm371eipTuuRUP3Y/Wv1eM9d6jq9qvjVcp+pvo99r/KDJLsm/ee7hcEV/k3V0L8i5YH1R+YFinaza5eAlwm5VTw3KdUg7L9vWF/18U/Wj4zqkGt+rnqva+ba0+4W7SGf8VEO37yQpx/fM+nfKLqxrv7eu3ZFPE0k/xYUfG22jU47rh9E9rQU+km8/I/GL8AHOiNs8Z/qhK7n/Bet7sUIg/CqsaxeASLoxd3p4LUUz3t2OF9Etrxc+ml5+sJ5/+JS3Z98MgWXKnZ4zTxK/td7/GO93zMP+5cThY2FduwZE0j3ZbFF+wYJ+a/It5k4lTeHDwA++lDRFpkdK1zfAcwbgk2FduxxEEgAAAAAAQAQiCeBHOPqAHm+i4Jf5lvnxLf0AgOdhPXgORBIAAAAAAEAEIgkAAAAAACACkQQAAAAAABCBSAIAAAAAAIhAJAEAAAAAAEQgkgAAAAAAACIQSQAAAAAAABG5SLJekrrp4l0wtS/OWz/XX5fg+Co9AAAAAAB8A7FIMk6CeBtMdIGxLoj4YEv/GJEEAAAAAADfxkMkmeDFJwJpxfogzry/sQAAAAAAAFeziiTj5l2hCt6+v7EAAAAAAABXk4gkceWdJAAAAAAAgF8hTrdzwtkiAAAAAAD4cZLqdtZPRRhsfP7IBOuknG5H4QYAAAAAAPg2Nt9JMi54ic4iiQTvKueREEkAAAAAAPBt8DFZAAAAAACACEQSAAAAAABABCIJAAAAAAAgApEEAAAAAAAQgUgCAAAAAACIQCQBAAAAAABEIJIAAAAAAAAiEEkAAAAAAAARz4okJ2MQZ97fEQAAOAXrOPYDDSb4UYIz727HtbT782/YBX6Qf/3Xf33qBvuTyQY/jmGc4SHyOpxg8zMYJ6u/jt6+vT1vx9jg5GET8S6YwnXWM89PYf1kN3GX3N84HyRag0fxwRYCGdbxfY7WU0TSjVjm1AVBu3HyE8+FVn/+BbsY64IXZVxgbPDxc9Nt/41xsq7NtefqZe0DPfFOUhIglnjC+MbJUw+RRxAWLXzrYvhE+4wLchCgXGmXK0lsntsqw9v3t/cOVP30J+1ngk8WeBOslzBKfUG/7Ty/M4o16PR9x7IoOsuz4/vJfGTfr/KtO2PcHHz6YLve2wQn+Vofv0CY16z1969owx05skuMBG8Lc8jYKcCPXua40nw7vE4zHmZ96bF5lsXXLs8Z44KIBOdsMNYfP3+sn64v9XMmX0ueWlta26e6pwnOS2rn6Dmifk4nti/wCWtTnm5XfSPwpPF7PGCMkyAiG8M+72DHA3WVXa5kYxfri05p/bcG+R1slo/1L9mv4tvbB6LSfi1j0Hue35mrAtmKvz49Nt84Bt/a918USUug3Lvf1flkg9+IodLfvpSddcZJvptXEVTZdcZOO+DpfGu47nA8bPCjbF5wGidhFKnPmcN4zwYvR+NuCu0zwR3+O+VYPB2PTvNHvF0F5GLn3FaHz+ls/UlipU9Zm/7f/++MSGpPvzh6wFif7taId8GY0j1c8KXBUrxxSN+o1t50lN/+qEXS0e8W0mseO1UFVS5uejNxkC5j4mtGCd6Z8yIpeiPg7bSNK6V0E+11qvFovN98vXROq+giknrar9EPVHZ+kpeIpG7zvBHjkvuJt8HF46udvyvZG7lRgnc+fTjMD4skNe6Zfuy8vdt72/uqdbytLxesGxof1KynWvs1tE9vvyO/anu+dbNz/Da5OEfG7XP0gnXcdU87KgX3sR8cBOUt68acqpX6n012PNadkPx347mfBKcavzqTVrtnl5JIethm7c/Oc1Ubv5wTSdMu1OOeU1/E+9MiyTg5fmFqXJDCPbq8bO0gkqyvzB3rwxiNm+o5/Q0iKT+TlIgBhcG1QdHedcZJolqHYVmAU0df7mFcmvKzubeZ/21h4dlM2DM7STW7aH+38pubBWXeRo3vOS2sPrWVm958rIvevFUqsiOSFP22fpzusebLmuKid3hdy3g0/O5bRdLL7XfsB612PsVsg6vS7eJ7dJ3nKqbDx0k6iDHB50GAdv4ub+SSAMcE67K3b0tgk4/vjp1bxuppv1dep13H1Vy1bmj6qFlPG+131D69/ZR+teOrV9q55rum1L7ZT3uv49VA7yy7655yJ0m9bpiNgNn2Z2+nKt2VODMv1ev4wfOgNv9SQTD5s3fmYL1ruU4nkqxxQRa/m0WA3ZszBzHx1N/4Bcb0gkVzj3uIpP0d0FgQq57T3yCSiul28Vuny0WSCV582emtr+RtmkS95ve2vrLYlhyoRSQd2EX9uy0iafPgyB/8pa3b5br6zoUmH3T7hubcdU3j0fC7V3Aokt5gP50ftNu5mVIw1WK/5jHoOM9VWF2FJuX8VdtiOTuU/P1cgL+xw8tEkn4d1/KedaNhPW203377zjwHFf1RvczpbWe7ebtc/tvnsLdbUt+1OyuSdONY/XfJtefmpdbH9u2yL5LSF152ehER7WQWz/SortOMx0MMLAJ0FaKnRdK0Zk8vEOz6AsF6v800uatIOlgvYr/QPqe79/HV7J5JesVO0tHBruj3N4UIZvWa3ntPCevf7pTav2+Xht9t2kk6uG6n/bvb1cqdEI1D71/XOB4Nv3sFvXeSnref1l/a7dzEvJt1lALWVyQN/ea5up9x2pGURaFy/qr9+JngaY9XiqSGdVzHm9aNlvW00X677WuwX1M/D9epa+yc7xp12Rl9F/NLjHrb++8kuSw9bqyc/VjGwcn4sG8cn5ycl6r14NAuDSJpSPtvrNucgdFf17CTtNgrSiM9L5IeZ+FM/vf433ydSBp2ntMX9PHVqAs3KIx26rolH7/5tx5v9l4ukrT3rv23O4ikmCcLEvykSHqZ/bT+cqFIsv5wB0llv1Nj0Gmen2VOO7Kt87Jh/L9GJHUNgn9QJCnt9wkiKd05St80fxq6nf5eImk5F5Omxw228G+tn862GBfE+3UXvJTS1Dovn98ZLfWtzYe0sejmOtV4pP9/OuM1C74ndpJ86SxXfr/K/W8hkk6k2yV+Wzy72bmPr2b3TJKCHmka2mCgWIhg9MFu0nAqA/Fsut2BXdS/W/zNQqqPclFtSrd7Q5DfNB4Nv3sFnyuS2u2ssscikHrY7+w9eszzJ9imhujmr3ot/QaR1CM9sGD3168b16bb1dvX9hxU+/czO95P2nndPTo4t3JrFLslz4mkbN2ojVft34pbfW9ap2xBdJ08l6cQhkdjule4YbFNzZ+26dW6686IpGNbzygKNxRjzORvplABr7buNPLywg3Hz+n83h8nkt6+k7QaN68rPx9EraXbzTgZtwdqWws3JIvU/C2YQnGEQ7uofzddGJct422Vm4azD/lB4yU39gYi6czBYNVEukl1u7uIpN6FDFa/amjvJSJp6DDPlb87ere938a/lPN3fZueFoKwzqffL/oKkTSo13E1V60bmj5q1tNG+x22T20/pV8tNjx6vl1m58fZkF3bXLCOq1D8ruqcm1YkqdaN+Zp1bJdxLZ+BXfzyUXhg3K7ZJ+blkT9rz/9tn1HTXIr9Z/rmTta+gv9pr3unSNrMzbl9m/lifVLQocdzU9c+DQ0lwDXP6cxvPlokbYoTVBa3x4ekjnOn1bmwWendUaayl7V75SV5t1uc+tLAeblX8TapLqO1S8vv5uV+nXmU9fT20a/0wGF6IDFx2ErJ2tXWedGBnKwCydE1Lddp7dJ0v3nsXyaS3mW/Rj/oWRJ7b/5eJZKunOe6sc8PBpc/Cng4f6P2OYnXj6zSVOv4aqj6ainoeO063swV64bGF47W0x72q+wYqOx35Fc7fcmfb1fauViFs+CvtxRJxWB7b66VPl6aB5aKdSMZr6Vc93LPbcXfuIS1L81JpV+p57nGLrXiCYX11PoxeLf1v1IV2MPrNOPhsnNaa9+ij8zGtlZ/UqE0lwrV7db+POZvqSS4mtb2qe6p/Zjs1ndLz+nUrmPxmtuS7yQB/DLd3uj8KNgPABb2UhTvDmsZdgFAJAFEJLuGXT9G+N3Eb5Z4gAKAbscBAODGIJIAAADgecppVh93DgEAYBgQSQAAAAAAAAmIJAAAAACAN3P0AeDWHdre9/s1EEkAAAAAAAARiCQAAAAAAIAIRBIAAAAAAEAEIgkAAAAA+/rhuAAAAbpJREFUACDiI0XS+lXlF3+hGwAAAAAAvp+PFElrtQ4+VAcAAAAAAJ35SJG0fLBO3A3aAgAAAAAAX8V5kWSC8xLVWJfgnQ+SCxfjgpdHHXbxNjj/qMdufaFOe17XvSCGnIxh9Pb9BgQAAAAAgO/inEiadnLE2WDWv5lgnWSCxgQ/SvDWPP5mTPCSfbTK+jCOPrrXhJMxiDPFNliPSAIAAAAAgAs4I5KMk6p4SbHBq4ormOBy4WRcEM4cAQAAAADAqzkjkqzPBM0exkbpdhJEfLAF0WSyXSh2igAAAAAA4C1cLpJyjA1eZCuUjAuy7jqZ4McnfgMAAAAAAOAsZ9Ptntnlsb581mj9u/VhFLc5owQAAAAAAHA5RZFk/VxdrnaeyM47PWlBBuv8dI5o/jeTmHLprpHZOac0F3DwOwUbAAAAAAAALuWcSBrCYGxwkpYAF2+T3Z+pwIMNzsujpLdIcLYmgKY0u93fBQAAAAAAuJLP/JgsAAAAAADARSCSAAAAAAAAIhBJAAAAAAAAEYgkAAAAAACACEQSAAAAAABABCIJAAAAAAAgApEEAAAAAAAQgUgCAAAAAAB48P8DP1EIqyf4JvEAAAAASUVORK5CYII=;" vertex="1" parent="1">
          <mxGeometry x="25" y="1400" width="760" height="217.79" as="geometry" />
        </mxCell>
        <mxCell id="6FGdKVEJK4fvtbT7j42c-24" value="" style="shape=image;verticalLabelPosition=bottom;labelBackgroundColor=#ffffff;verticalAlign=top;imageAspect=0;image=data:image/png,iVBORw0KGgoAAAANSUhEUgAAA+8AAADxCAYAAAC6ToZTAAAgAElEQVR4nO2923NbSX7nif+k/4EJR9TLPmBjXvttHsYP1r5sTGyEFzu+wPaUyzNt2e3SjYIulARRVSpJ1AWUSE5veyJmI9oBGbVrb8Q4Yl27vjWm7VLJcDcJglSh1dXuttQtkYTYv304F+Tll7/MxDkgQeL7icjoEk+ezDx5EqfPJ2+nQgAAAAAAAAAAAJhpKkddAAAAAAAAAAAAAMhA3gEAAAAAAAAAgBkH8g4AAAAAAAAAAMw4heX93U6Lfvp3v03/8ne/Sa+7v00//9779PbZ79Hu82/Q/j/9IY1+cIYONs/TL7ZvlFFeAAAAAAAAAABg7ig+8v6j/0K/+NF/pdd/f5pefbdOP/ve79Cbf/hd2v3iP9F+7zSNvv9HdLBxjn6xdbGE4gIAAAAAAAAAAPNHCfL+baKv/g+in3xKb3tXk9H3v3+f3n7+e7T3j79Po+9/k95tnKFf9BdKKC4AAAAAAAAAADB/lCDv/zvRj76VCvz/Sa++W6eff+8/0NvPP6C95/+JRv/0B/TuBx/SLzbPl1BcAAAAAAAAAABg/ihB3r9F9PJbRD98QvTjp/Tq736Tfvbff4fe/MP7tPvFf6T93ml694M/ooPNc9FJ95pVqtTa7LF2rULVZq9o6adCu1ahSqVGfMlVetSsVqhSbRJ3JbN8jQAAhW6L6vV6HhqdoSPikDqNOrW6nrQaHRrm/xynq/6dAo+z6RrlrTMFEtMNOD/4ekPim/mJefryTv4ens78Mew07PoW23W5JG2vRdO+M8NOo/D9H9dVUt7wsvt/G4dVDwAAAI4PxeX95X8merlO9MMVoq++Q//yt79Br7u/RW/+/j/Q7rPfo/1//H169/1v0sHm2eikj6u8B9NrUrVapWqlStylnIhrBGAO6LbUF+wuter2S7kqw+4Xdv2FfthpKOKcSqdyciIO47y7LZeMqukOqdNSZTwprypmcr7+88OvNzB+txUlWe60mGtpQOBNeKlN7vNJksnC8j7sUKPeoMn6NGI7tgAAAIBS5H2d6IerRF8+IvrRf6Wf/s2vp1Pnf4fePvuA9p5/g0bf/0M62DgTnfRJl/fsGtq1CnudJ+EaAZhHLInutlLp4cU+Z9ihRi5HTFxNFpiXf+38gL/nh1VZ9+XrOz/iegPjR0mWlBZXD566mUfc9X2yOjvKkfdJ2w7kHQAAQDwlyPtaMur+5X2il39MP/nrf0//8ne/ST/7779Nbz//Xdr7Iln3frDxYXTS4fLeppo5et1rUlWdut5rUrVSoUoWlKnqtjy3qVapkPonsyy9ZnWclpF3mHQrZTbL6kpHuIZsCn6tnZQ9m7afpNFOpuen59XaZlpG3u2a89oAAH66LdcUY1lmNZlgxUA9P1zevZKiTqn35us5P+a8wPhi+Z0dC0xaudib8SYdPT2ZiPXN1KE1zd6edqIcV+ra8Xfu96Pnod6v7HfgnxlgLgXpMtfpzoepI+aa/WU3f7/qMg49v1LqwVX3AAAAjiXF5f2HT5JR9xf3iH74Lfrnv/rf6F/+9jfoZ93fojf/8D7tffEfadQ7TQc/+KPopMuU916zphxP15pnabdrughn8qrk3a6NZb7XrDLxx3kFybuWZybe0jV6riH9d7VaszoSVAHPOx2MvCvji9On8bebkHcAYmAFMT8oyKwhkawQG8Ju5MVPm/fLqXZeSL7S+VbeJcm7Sw5j5H2Sjok5JKazxFy6YY3Om/en20n+2/V3sqXVPbNjnF+j0fK3cSsNZhmKMx9XXejH2bKrcYYd6ijybnZamPtdFKoHoY4BAAAcT4rL+7CVjLq/uEM0XKV//v9q9NO/+fV83fveF79Ho3/8fTr4wTeJXn83Kml9dNsOUSPvJqo8G8LarlWo1mxSNRdcNX0mL0O+Q+TdFnO7o8KbDtMBYMYPmVVg10XIZnsAgDHZaJdn0zhJFE1pFiTalgNh8zXnqLh6viIXgfk6z9czL0XeuTj+6c5cWva072w0FvI+Rp6poXYGOTqGVKmdYCmHLq1cHsYeDo62yZdZz2d8nb58GLzyLrVnptxGeoXrAUtCAADgxFFc3r98mIy679wm+rJFP/5/a/TTv/k1evXdur5p3Q++Sb+I3LSu1GnzxHQGsCPfbapVatRW01TlVptSrodgeTdHtx1/49IJuwYpDaaumE6Aiin4AIAwhh1qOHfmdr/MW1NkvSPg/g3s2HSNY5Z4R4y8+3fDnoa8k39EVExL6WipZ9OMMZ1YJXjk3Xkf1DodTwtnO1Icmzs2xsPR7M739vRz8YL8y0m8+YSla5fd1U5dy14cywcmqgd3HQMAADielCDv94l27hBt3yJ6cZ+++ux/pZ/89b+nV9/9Tfr5936Hdp99QPv/+A169/2jlPd0Hbg51V35d55Xbzzink2V7zWr47yMKfL+sjmuyzubgLtG6RrKkne1/kI/eQcA0BClxiWUjERLU7zZ4+boG5OuEs85Uu+dWh66cdmU5D1oRLHMtOYL75p37ZODPnnPE6UGtyad+Xu4ABMFf34xSN4j28Ghy/uE9eCqewAAAMeO4vKejbpvf0y/GHxMP+Lk/fk36N33//Bw5V2VbNcovCqsqbS3TVGvNXUp5kbNxbJZV8VOb+fKpKXjvYaS5d1TVgCAQKS8uz/NxQmQuhGVLO8uCXOvUQ/I13u+mdasjbzrlPGt75OGu06MOnXtN+DsEHFNcdf/rkmr93NsoSPvnmnzk3z2zSfvYpqR8l64HkKWFwAAAJh1isv7zifJqPvgFv34r3+LfvSXv6rI+2/T7rPfPQR5Nzdv03dct4Q7G1XWhDU7x4hXrVrSnGwCp/6tR82aQ7rti3LLf1oudvq99xpKkvd2TUmDTxMAoNKljvZCzH/3XD3GTW11TaU3v7durqe1p80Ln5JLInklRcw3SnLKkHfju/LmsoSYDeusKC3swM3Ayns2emv83V46YbSXbsuasZHNHGH/TvZSDzaPlt4+fW0sZMM6OR+GgA3rrDSNDeuC5X2SehDqGAAAwPGkuLxvf0w0uEk0aNKXf/G/jOX9736Dfva939ZH3rcuRSUd9533TL5TsbZ2m6/q68SZ0eZ2jf/8musb7GHT3Znz2FFuOz92UzvnNZQk78bn6DDqDoAP9VNPSXCPbjl2QBc2lNM+b8WOzqt5N/Sdprl08ym08tpeZ76B5zuvV0TYZM6VT5S8m2lhGjGHtbu/p67M+Pamacwx19+J36dBa49a/FApNe59q8t2UrjzYS/cK+92mkLnmkfeo+tBqGMAAADHk+Ly/s//F9HWDaKtxRKKAwAA84W0odwspgsAAAAAAI6G4vJORPSzvyfavFxKUgAAMD9Ma6dz7KAOAAAAAHDSKEfeiYhGPy0tKQAAAAAAAAAAAIwpT94BAAAAAAAAAAAwFSDvAAAAAAAAAADAjAN5BwAAAAAAAAAAZhzIOwAAAAAAAAAAMONA3gEAAAAAAAAAgBkH8g4AAAAAAAAAAMw4kHcAAAAAAAAAAGDGKUXe//PaWlD4L9/+Y/rJP/9zGVkCAAAAAAAAAABzQ2nyHsLKw0cQeAAAAAAAAAAAIJJDlff11TXa+MEPIPAAAAAAAAAAAEAEheX9853v08Kd63T9Tx/T++tX6Vc+/oD+1el/S197/+tW3PXVRPIh8AAAAAAAAAAAQDgTyfupjz+g//HC/0xfe//rYjDJ5J0IAg8AAAAAAAAAAIQykbz7pF2SdzVka+ABAAAAAAAAAADg5lDlnSNsvXyPmtUK1dr2kXatQpVKGqpN6kVdScnptmvjcyoVqjAJFytvlkeVmj3zb+N0q83oVA+F5NprxFT3HONug+AY0W1RvV7PQ6MzdEQcUqdRp1bXk1ajQ8P8n+N01b9T4HE2XaO8daZAYroB5wdfb0h8Mz8xT1/eyd/D05k/tHufhqyakmMt8tea/96HpxXPsNMwrkHPx7rGtKDdlrtNeI/VG+T86VOXWkZ7m+b1g8Mm7Fk37DTsNpQ+39z/vwEAAGMKyfs3vt0kIqJ/vfDv6Gvvf536X72g23/2rVLlXZVdU3B6zaoiwIkEccJ8OOn2qFlTZbxNNUOki5Q3z6NaseS9XVOFOMn30GSwXZusE+KomYFyS20QHC+6LfUFPHlJt9/PbBGy0V8Ah52GIs6pdConJ4IyztstF2q6Q+q0VBlPyqu+OMr5+s8Pv97A+N1WlGS702KupQGBN+m2yhCJ2I6bssg6Zwwp7rbG7Z+5592O2rHFCTX/ux4nL3fcDTsNajQYcQPHnphnnSXvww41Ap+RAABAVMLIe/+rF7T2l39C3/h2k3765jX90h/8cnny3q6lI7WckDJ/6zWpao5KH2a6BrqsF0+316xSpVajmuecdi22U6AAMyDBE3HU5RbbIDjuWBKdC4EsAMmLXCYOTNxhhxr56B4jR9r5AX/PD6uy7svXd37E9QbGZ0erJkmLqwdP3cwjx1nerbZoRxDbslPSnVKfHa4ncs7GSeoC8n4CiXzW6c8yvuMTAAAkCsv7r62cJyKi/lcv6Bvfbk5p2rxLfM0p2LEiNK10s9MUQSyabn5+O0jeQ6fO95pVYap/NqU7G/HXR/21JQCOZQLucgWkbaSnd4aYZVfrZPJyh9VHct8qlRrVAsopE9YGzHLl8bUlE8k1htQdmC5u+ZFf8LQXO1Yq1fPD5d0rv+qUem++nvNjzguML5bfKWNMWqyAdaklytz8Ick7d8ycoq63T3WZgl7P/rTU+Fl66fTzCUbHQ+NwM1ikKfPja+m6l300OtQ12nF8XdrXbi0PcEzJ5uoflEmsvKcdOsJMjbhlQgCAeaGUNe/9r16wfw9hYnlnR05j1w9PK90sKUWiCqWrxvPIez6i6ycRQjWuOZXfnqbfrhlr9SNGsDl5d6ZtpavXlSWj2nVPVu7Q+qhWa+P695QzoFa88m6Vq9ekZpvsmRvtZvLfhcsECiGO0EkveIZEskJsCLuRFy8YfjnVzgvJVzrfyrskeXe9yMbI+yQdE3NIjLybSzdo2KGOOj1duTfdVt3az8G9XIOM9p2NXrfcbdkzOq6XWRjxtNIJW7/f6AzZkX/tmCDvvro0r92Kby4JMH8b3Q7kfWrEybvUGeS9rwCAuaawvGfT5X/65jU1vnOflffvPPsLWvjzR3n44esf58emIe/hG7ZNK11GuAqkq4+kcvKejQTHbILn6ATQZggw5TNnEBSUd3faRvmkY0p6STVNUu4J60MsZwg+eReOO/MqWiYQTzYi5tk0TnrBM6VZkGj7hV8YnXGOiqvnKy+Kgfk6z9czL0XeuTj+F1kuLfslOFuvivfiMfaGdXoH0bgdSPeLaTNG54mdltkJY+zVIIxUpgmGbwCXrjXmJd4oS8DSivG1uM+V5T2yLl2dcmpZsSTkEImQd3EWRMB9BQDMNYXk/Zf+4JdzaZfWvPd/oj+Frv23sbCfxJF3dlf1SdMNlcw8ySZVQ3acd47Qq+kz5bNGe4vJu5S2Gj9Z76/MYqhU2KDKe1S5J60PqZxBeORdnEkxXhZQbplAIVIpiJ02b412ekfA/RvYsekax7iNvUJH3v27ZU9D3ilQ0lxpKR0t9WwqMqYTqwSPvIv3wbWsQx+J19Oyd7m3p46LBY/fvT3Ll5kmn5UtZM8FNb7rXFHeY+tS3FhP3xcDnVOHQdzIu7PTM+i+AgDmmULyfvvPvkX9r15Ym9dx0+bN0feMQvI+jTXvhdIVdpCfKF11zTYTXCeGTJ0/BvI+TtuI672+w5V3ZzmDKCLvKWmHDT/TA1Pmj4ToHau71OIkWprizR43R+iYdJV4zpF679Ty0GmcU5L3oFGoMtOaL45O3qX7ECDv3s3oIs7LO7HCNt7TriVvU0PqNMbpHr68q9eHz9JNl/gN65ydp5B3AIDAoXznXZV1898Tyzs3Al3KlOXJ05V3eS+jvI507IIECl/YNPEjk/fsWttGPXl36Z+g3JPWh1TOIDzyHvxFAnNKf5EygcJEyjs/sud6CU/TDZB314ihvPmWJ1/v+WZaszbyrhO1k/2cECzvoixHyrtXvEMketK1wVxbSX8H3bDOHb3O0rK29FksorwXrEv978KO97C/KTHJ8yZtr+pMp+j7CgCYNw5N3rOp89kIfMbk8m5uQha/Lr3UdAMkq3h5szLrgtu01mCHpWtP7zfLFCjBgXIYL+/pOdWqdT1s2Wt63caWe6L6MMoZPz3d/wlBq1zZhnXtmnKeXTZX3YGy6VLHWosaM23eLSX6Bl/cqDo3bV74lFwSyTs6KeYbNbpZhrwb35U3lyXEbFhnRWlhB26GmA3rrNFDY5O1YHnn0tLufein59Lfhbn0I/vO+7BDDSMR1xTmfO1/QANml70YzwHfhnVRdcnFN3+r+bftjTTU++D6bxDJpJ2F9nPce18BAHPNRPJ+6uMPouRdnTJfprwTGZ/9KkOcJk03n7rsWoddRnmzMtufRVPzi99Yz3VuiGAr+U/0qTgpbUolm+8UMT/5Fpc2X+7o+pDKHoRf3u1rTY8Zbc6670LdgTJRP4Xl2gArw7EDurChnLZ5GDs6r+ZtbJTFpats1MWvLfbkG3i+83pFhE3mXPlEybuZFkayOGI/FadvcCd0Hnnk3U6LGc0OumF2mxnLvPmbEdpBKuAhedrXYi9Z8cm7ff2ejrgsTdezx/itsh1ekPeSKDDTJ7tP5iyNoP9PAQDMGxPJe8artz+jz/6pSx8snaPrf/qYfvXBh/QritiHECbvAMw4EcsHAFCRRGkW0wUAAAAAAEdDIXnPKCLg05F35dNpwig40i2bw85vVnB9Qm4e6wLEMa1NiLC5EQAAAADASaM0eS8SADiu5NPZYeQAAAAAAACAKVKKvAMAAAAAAAAAAGB6QN4BAAAAAAAAAIAZB/IOAAAAAAAAAADMOJB3AAAAAAAAAABgxoG8AwAAAAAAAAAAMw7kHQAAAAAAAAAAmHEg7wAAAAAAAAAAwIwDeQcAAAAAAAAAAGacwvK+trZGq6ur9PjJE1pZeUytVosePXpEDx4+pPsPHtDy8n26e+8e3bl7l1orK/Ts2RdllBsAAAAAAAAAAJgbCsv76uoqvfjySzo4OKCDgwN6l4V3aTg4oNevX9P6+jptbGzQkyer9PmzZ2WUHQAAAAAAAAAAmAsKy/vjJ0/oxYsXtD8a0f7+iPb295Owt0+7e8l/v3r1itbX1+nly5e0sbFBK48f08uXL8soPwAAAAAAAAAAcOIpLO8rK48Ted9X5H2Pl/fFxUVaXFykm0tLNBhsl1F+AAAAAAAAAADgxFNY3lutVi7v5qh7EvZod3eP3qZhNHpHN5o3aTAYlFF+AAAAAAAAAADgxFNY3h89ekQ7OzuauLvlfZdGo3d0/UaTtqLkvUfNaoUq1Sb1mKPtWoWqTe7IYdCmWqVClTTU2u6YvWY1jzcOVTqyonuR6/24065VqFKpkXDLLOx7GHd+GUxS7onzcTRo6ZgVz2zzzvOS9qYdbteY34z/t3bodFtUr9fz0OgMHRGH1GnUqdX1pNXo0DD/5zhd9e8UeJxN1yhvnSmQmG7A+cHXGxLfzE/M05d38vfwdOYP7d6nIaum5FiL/LXmv/fhaUXSbVnpWtfka/Pi761B3E982GmgPR03fM+yyOPuZ38C20bSNHznAgAAUQny/uDhQ9re2cmlXRp1f/s2kfdr12/Q1laEvPeaVK1WqeoQ3aOUdz3vNtUEGe81q0HCMxXatXgJ99T7VPKcFoXLknZkmNLcrk1XIo+yDts1RydB0mEVct225Cfnmr9XVfK96c5Su0rptlRR6FKrbkuLKgbu93tdeIadhiIQqXQqJw87DU1Sui2XjKrpDqnTUqUkKa/64ijn6z8//HoD43dbUVLkTou5loarzuaXbqsMkYjtuCkRTd75e9zt2G3YlHWucyFvW4zYQ96PG75nmf9ZF/Ls13I028iwQ43AZyQAABCVIO/3Hzyg7e0dQ9pTcTdG3d+k8n712jXa2toKziMTZNdo39HJe4+aVVVszX8bsY+ZvPvqfRp5To2CZek1q0dzLUdahw5Jd0o9kwLTdqy6zNML6RRgRudnEEuic5nwvNwNO9TIZYGJO+xQIx/1Y+RIOz/g7/lhVdZ9+frOj7jewPhRUiSlxdWDp27mkRMl7562m0R3z1oxf8tJ3XTYDivI+/HHepZFHnd3oCrn58f5jk8AAJAoLO/Ly/dpsL3tEfdk1D2T9yuLixHyroxm95pUZaTBkvdek6rqFFtNfrKX/2y6e5JekkY7HV1VRgC1tDx5G+XrNatauSR5D5Ecfcq22WlQoVq7p5R/fNyauhxkPr56Z2YZKPGkPK2p50Z5JroXwj13lYXr9DHLlkSNkUq9XdlpcnVWfrn1OpXbhwTXLtW/Jfmq9yLNQykr267Zygyo51nqEBJwy48ss9qLHSuV6vnh8u6VCnVKvTdfz/kx5wXGF8vvlDMmLWY6dRJPlrt5Q5J37lgyA8Sc7ZC1T3WZgl7P/rTU+Fl66Si51OGi3WdfGwzpUBuXIy8z05Yg7ycA57Ms7Liv42vcRpL27Ipr/qbQrgAAGYXl/e69ezQYbLulXRH3TN4vX7lK/VB5117W+VE3U2Z6zZoltmNZSP5drdY0eUlEaSw0uQwZedvSoQiRIRUx8m5LiX6t7tFKtQyGsJvxY6THW++yvLvy9MleXvbIeyHfc74sdrsxytZrUrNNgSPNfLuS79uUyu1o82L7cGFdu9kW0utOEzav15L3XlNYhuGX96Pd3yIQVhDzg4IoGBLJviQawm7kxY/6+OVUOy8kX+l8K++S5N31Ihsj75N0TMwhMfJuLt2gYYc6irzXDfE193NwL9cgdvp7o9Hyd7QYv4us/bDXJP5eicz2oZbZbPeQ9+OPb+RcPO5tS+M2IqVj/aawvAcAoFBY3u/cvUuDwYB2d/fy4BL3N293aX80okuXr1C/3w9KnxUVdqRWeKFnRJRdc8uszbU2z9KEJx1lrbXzjbXUdNs1/Xx2w7o8PUOGNRHm1tKrEsVcU4BIS/jrfRJ5d+wJYJw32b2wLsDbeWHvV+AQxxh51y7Od9/KKrevTgPahxOpXZp/s8tizR4Q26BH3oPLfBRko4GeTeMkUTSlWZBoW56E0RnPSJH1ohiYr/N8PfNS5J2L43+R5dKyX4KzNcx4Lx5jb1indxCN24F0v5g2Y3Se2GmZnTDGXg3CSKVxAXabTNcWWxJfQN7NjiPI+/FGfpa5joc++9U03JseOjtbsbwHAJBSWN4/uXOHtgYDXdjTNe6muP/8zVvaH43o4qXLYfLOjdIxfwuaRhw5es9KkbcTQP1bm2qGaPjWvKtl0OJ6d9xmrsmspxh5D6r3CeRd3ABNHxWOuxdZ9q57zsfX8pEEPULeJ9kpfTrlVussoH0IONulEce1BGL8N9/Iunz8SPeMiCGVhNhp89Zop3cE3L+BHZuuccx6GY0YeffvFj4NeaegES53WsrLdj2bho1p8yrBI+/ifXAt62CmoOdp2bvc29Pwgy7AXa4sH3WmyaTyTvpsAcj78cX3LAv6MoL47M+iJG3E2VHgbI94TgEAEgrL++3bn1B/ayBKeybumbwvNBq0GSDv/KfVKuwItzmC6hagkuTdKT/jT8exHQrynOA0faOMXnksV97D6n2W5N13z/nrD5b3INF1ybt036ZZ7vLk3dkuteSqbJu3ZlGIdSLJ+/HYqC5HfAFzCSUj0dIUb/a4OTrJpKvEc47Ue6eWh07jnJK8B41ClZnWfHF08i7dh0h5l0ZB1XL4NrSTypz8Jd90DPJ+HPE9yyKnrHvasdpGnJ2nkHcAgEBhef/o49vU39pihd0U90zeLyxcpM1Nn7zz09uJ+HW1rk3j7PjTlndyirJ/5DDNs21cg1e0ypT30Hp31I8k767rYKbNx98L6Z7z12+3G1cdu/Y7sONECfI0y81Mm59Y3l3t0szLMSuG2zyPX+YiyPtMT5lniJR3/qWfeVlTRTNA3l0yIa/r9OTrPd9Ma9ZG3nUgXDbB8i6Kb6S8e3eFD5d3347g3Gi6qw3wu80PzUhUr7eog7Z07Ci0xp0/IVje844Bta26fgfoZAQApBSW91sffUT9/hYv7oq0q/J+7sICbW5uyglLcpHu0D2eVS7ITLabd+nT5vlNv7LN1qqM7IVM+23XKsm31dnvYBsbh9WEa+LkPUR+guvdFFp7l3UuT/Y6qtJMiiztiI4U6567y2Lmy25Yp16f2QGSf+fd3a6c921a5bbqtKi8u6fFR29Yl1+Te9aKc2Q/ZsNF9fpc/10aXeo4RuK4uK512K6p9Ob31s31xva0eeFTckmkyE9nGfkGnC9fb2x841vL5tTUmA3rrCgtYe3p/BKzYZ01emhsWBcs71xa2r0PlXcj3rBDDeMke8oyv4+C6zvvXN3k+wRA3o8PkbMubGKe/VmSZgeP3fbY30Hofg8AgBNPYXlfunWL+v2+KOymvJ89f4E2PPIu74Ztf47K3n1bWT88jWnzajnZaeXKLvTaZ7Xk9c9usfHnJcuZXR6OmHpXlwhU8pFXZtdzz6fiuI6K2Hsh33O+LNxeCXod85vNxeylYKcZ01bDyy3XaXF5z9bvs50TzCaOWf6svGfXZLUzt7xH7zJ/qPKufgqL2RBLw7EDuu+7wc4N6fT125qIutJVNu7i1xZ78g0833m9IsImc658ouTdTAsjWRyxn4rTN7gTOo+8U9DtzfLGx33yPv4tcNPaXRvwKYWz2plr1gpbN9nvAvJ+fPA9y7zPuphnf5YlMzsjy0d5Xptf2IC4AwAyCsv7zaUl2tjs0/5oFBzOnDtPGxuekXcAAJgDfN8FnrV0AQAAAADA0VBY3m80b9L1G026dv0GXb12ja4sLtLlK1fp0uUrdPHSZVpoNOjCwkU6d2GBzp6/QGfOnacPz56ljY2NEooPJkMdMR0k9asAACAASURBVBdmAYA54Di3heNc9oxpbUKEzY0AAAAAAE4aheUdAAAAAAAAAAAA0wXyDgAAAAAAAAAAzDiQdwAAAAAAAAAAYMaBvAMAAAAAAAAAADMO5B0AAAAAAAAAAJhxIO8AAAAAAAAAAMCMA3kHAAAAAAAAAABmHMg7AAAAAAAAAAAw40DeAQAAAAAAAACAGaewvK+trdHq6io9fvKEVlYeU6vVokePHtGDhw/p/oMHtLx8n+7eu0d37t6l1soKPXv2RRnlBgAAAAAAAAAA5obC8r66ukovvvySDg4O6ODggN5l4V0aDg7o9evXtL6+ThsbG/TkySp9/uxZGWUHAAAAAAAAAADmgsLy/vjJE3rx4gXtj0a0vz+ivf39JOzt0+5e8t+vXr2i9fV1evnyJW1sbNDK48f08uXLMsoPAAAAAAAAAACceArL+8rK40Te9xV53+PlfXFxkRYXF+nm0hINBttllB8AAAAAAAAAADjxFJb3VquVy7s56p6EPdrd3aO3aRiN3tGN5k0aDAZllB8AAAAAAAAAADjxFJb3R48e0c7OjibubnnfpdHoHV2/0aStKHnvUbNaoUq1ST3maLtWoWqTO3IYtKlWqVAlDbW2O2avWc3jjUOVjqzo45KJ9XvcadcqVKnUSLg1Fva9iju/DCYp98T5OBqudMyKZ7Zt53lJe9MOt2vMb8P/m5oZui2q1+t5aHSGjohD6jTq1Op60mp0aJj/c5yu+ncKPM6ma5S3zhRITDfg/ODrDYlv5ifm6cs7+Xt4OvOHdu/TkFVTcqxF/lrz3/vwtCLptqx0rWvytXnx99Yg7ic+7DTQno4bvmdZ5HH3sz+BbSNpGr5zAQCAqAR5f/DwIW3v7OTSLo26v32byPu16zdoaytC3ntNqlarVHWI7lHKu553m2qCjPea1SARmgrtmlvOPfVbKO3DpnBZ0o4MU5rbtelK5FHWYbvm6CRIOqZCrtuW/ORc83epSr433VlqVx66LVUUutSq29KiioH7/V4XnmGnoQhEKp3KycNOQ5OUbsslo2q6Q+q0VClJyqu+OMr5+s8Pv97A+N1WlBS502KupeGqs/ml2ypDJGI7bkpEk3f+Hnc7dhs2ZZ3rXMjbFiP2kPfjhu9Z5n/WhTz7tRzNNjLsUCPwGQkAAEQlyPv9Bw9oe3vHkPZU3I1R9zepvF+9do22traC88gE2TUKeHTy3qNmVRVe899G7BmVd1/9Fkn70ClYll6zejTXcqR16JB0p9QzKTBtx6rLPL2QTgFmdP4YYUl0LhOel7thhxq5LDBxhx1q5KN+jBxp5wf8PT+syrovX9/5EdcbGD9KiqS0uHrw1M08cqLk3dN2k+juWSvmbzmpmw7bYQV5P/5Yz7LI4+4OVOX8/Djf8QkAABKF5X15+T4Ntrc94p6MumfyfmVxMULeldHsXpOqjExY8t5rUlWdeqtJUSYF2XT3JL0kjXY66qqMDGppefI2ytdrVrVySfIeIj/6VG6z06BCtXZPKf/4uDWl2RohleqXmU2gxJPStqaeG9c3UZ0L99ZVFq5zxyxbEjVGKvX2I9+f6ZVbr1O5HUhw7U/9W5Kvei/SPJSysu2XrcyAep6lDqEJcMuPLLPaix0rler54fLulQp1Sr03X8/5MecFxhfL75QzJi1mOnUST5a7eUOSd+5YMgPEnO2QtU91mYJez/601PhZeukoudThot1nXxsM6VAblyMvM9OWIO8nAOezLOy4r+Nr3EaS9uyKa/6m0K4AABmF5f3uvXs0GGy7pV0R90zeL1+5Sv1Qedde4vnROFNyes2aJbZjiUj+Xa3WNKlJBGosOrkkGXnbMqKIkiEbMfJuy4p+re5RTLUMhrCb8TkZ8tavLO+utH2yl5cxss7le8uXxW4fRtl6TWq2KXCkmW8/8v2ZUrkdbVtsBy6sazfbQnrdacLm9Vry3msKyzD88n60+1gUhBXE/KAgCoZEsi+JhrAbefGjPn451c4LyVc638q7JHl3vcjGyPskHRNzSIy8m0s3aNihjiLvdUN8zf0c3Ms1iJ3+3mi0/B0txu8iaz/sNYm/VyKzfahlNts95P344xs5F49729K4jUjpWL8pLO8BACgUlvc7d+/SYDCg3d29PLjE/c3bXdofjejS5SvU7/eD0mcFhh3BFV70GUFl1+Iya3atTbU0EUpHX2vtfMMtNd12TT+f3bAuT8+QZE2QubX0qlwx1xQg2Fzd2fU7ibw71v4b501W59YFeDsp7H0JHOIYI+/axfnuT1nl9tVpQDtwIrU/8292WazZA2KHgUfeg8s8S2SjgZ5N4yRRNKVZkGhbnoTRGc9IkfWiGJiv83w981LknYvjf5Hl0rJfgrM1zHgvHmNvWKd3EI3bgXS/mDZjdJ7YaZmdMMZeDcJIpXEBdptM1xZbEl9A3s2OI8j78UZ+lrmOhz771TTcmx46O1uxvAcAkFJY3j+5c4e2BgNd2NM17qa4//zNW9ofjejipcth8s6N3jF/C5peHDl6z8qStxNA/VubaoaA+Na8q2XQ4np34mauyawnToKD6ncCeRc3QNNHhePqPMvedW/5+Fo+kqBHyPskO6VPp9xqnQW0AwFn+zPiuJZAjP/mG1mXjx/p3hBlkEpC7LR5a7TTOwLu38COTdc4Zr2MRoy8+3cLn4a8U9AIlzst5WW7nk3DxrR5leCRd/E+uJZ1MFPQ87TsXe7tafhBF+AuV5aPOtNkUnknfbYA5P344nuWBX0ZQXz2Z1GSNuLsKHC2RzynAAAJheX99u1PqL81EKU9E/dM3hcaDdoMkHf+02oVdoTbHFl1i1FJ8u6UovGn49gOBXmucJq+UUavVE4m72H1O0vy7ru3/HUGy3uQ6LrkXbo/0yx3efLubH9aclW2bVuzKMQ6keT9eG9UlyO+gLmEkpFoaYo3e9wcnWTSVeI5R+q9U8tDp3FOSd6DRqHKTGu+ODp5l+5DpLxLo6BqOXwb2kllTv6SbzoGeT+O+J5lkVPWPe1YbSPOzlPIOwBAoLC8f/TxbepvbbHCbop7Ju8XFi7S5qZP3vnp7UT8elvXpnF2/GnLO7EilpdD3qUrybNtXINXwCaR99D6ddSDJO+u8jLT5uPrXLq33HVy7cNVl659Dew4UYI8zXIz0+YnlndX+zPzcsx+4TbP45ezCPJ+LKfMM0TKO//Sz7ysqaIZIO8umZDXdXry9Z5vpjVrI+86EC6bYHkXxTdS3r27wofLu29HcG403dUG+N3mh2Ykqtdb1EFbOnYUWuPOnxAs73nHgNpWXb8DdDICAFIKy/utjz6ifn+LF3dF2lV5P3dhgTY3N+WEJelId+4ezyoXJCfb5bv0afP8ZmDZJmxVRgJDpgO3a5Xkm+vs97GNDcVqwjVx8h7aIaDVrym09i7r3CgrW96qNGMiSzuiw8S6t+6ymPmyG9ap12d2vuTfeXe3H+f9mVa5rTotKu/uafHRG9bl1+SeneIc2Y/ZZV69Ptd/T50udRwjcVxc1zps11R683vr5npje9q88Cm5JFLkp7OMfAPOl683Nr7xrWVzamrMhnVWlJaw9nR+idmwzho9NDasC5Z3Li3t3ofKuxFv2KGGcZI9ZZnfR8H1nXeubvJ9AiDvx4fIWRc2Mc/+LEmzg8due+zvIHS/BwDAiaewvC/dukX9fl8UdlPez56/QBseeZd3ybY/U2Xvyq2sK57GtHm1nOx0c2UXeu1zW/K6aLfw+POSpU0vT0z9qksBKvnIK7PruedTcVyHRGydy/eWLwu3J4Jel/xmczF7JthpxrTJ8HLLdVpc3rP1+2znBLNZY5Y/K+/ZNVntzC3v0bvMz4S8q5/CYjbE0nDsgO77brBzQzp9/bYmoq50lY27+LXFnnwDz3der4iwyZwrnyh5N9PCSBZH7Kfi9A3uhM4j7xR0e7O88XGfvI9/C9y0dtcGfErhrHbmmrXC1k32u4C8Hx98zzLvsy7m2Z9lyczOyPJRntfmFzYg7gCAjMLyfnNpiTY2+7Q/GgWHM+fO08aGZ+QdAADmAN93gWctXQAAAAAAcDQUlvcbzZt0/UaTrl2/QVevXaMri4t0+cpVunT5Cl28dJkWGg26sHCRzl1YoLPnL9CZc+fpw7NnaWNjo4TiAwDCUGdPCDM/ZpLjXHYf09qECJsbAQAAAACcNArLOwAAAAAAAAAAAKYL5B0AAAAAAAAAAJhxIO8AAAAAAAAAAMCMA3kHAAAAAAAAAABmHMg7AAAAAAAAAAAw40DeAQAAAAAAAACAGQfyDgAAAAAAAAAAzDiQdwAAAAAAAAAAYMaBvAMAAAAAAAAAADNOYXlfW1uj1dVVevzkCa2sPKZWq0WPHj2iBw8f0v0HD2h5+T7dvXeP7ty9S62VFXr27Isyyg0AAAAAAAAAAMwNheV9dXWVXnz5JR0cHNDBwQG9y8K7NBwc0OvXr2l9fZ02NjboyZNV+vzZszLKDgAAAAAAAAAAzAWF5f3xkyf04sUL2h+NaH9/RHv7+0nY26fdveS/X716Revr6/Ty5Uva2NiglceP6eXLl2WUHwAAAAAAAAAAOPEUlveVlceJvO8r8r7Hy/vi4iItLi7SzaUlGgy2yyg/AAAAAAAAAABw4iks761WK5d3c9Q9CXu0u7tHb9MwGr2jG82bNBgMyig/AAAAAAAAAABw4iks748ePaKdnR1N3N3yvkuj0Tu6fqNJW1Hy3qNmtUKVapN6zNF2rULVJnfksJDLd9xp1ypUqdSoHXFOr1mlSqWihLjzy2CSck+cT43PRTpmxasYwXle0t60w+2afX4avNmb5zInaOUz23nA+c5ye4sm5Fsg3dLptqher+eh0Rk6Ig6p06hTq+tJq9GhYf7Pcbrq3ynwOJuuUd46UyAx3YDzg683JL6Zn5inL+/k7+HpzB/avU9DVk3JsRb5a81/78PTiqTbstK1rsnX5sXfW4O4n/iw00B7Om74nmVFn5UGbBtJ83D//wYAAIwpLO8PHj6k7Z2dXNqlUfe3bxN5v3b9Bm1tRch7r0nVapWqlSpxjn7k8u4pn5d2bXbEv3BZ0o4MU5rbtenK1VHWYbvm6CRoUy1EnomT/ORcs12rMhsk5d466VGzpsax8+01q0o66f3NM/efH13uoHwnT3cadFuqKHSpVbelRX3Bc7/f68Iz7DSUl8FUOpWTh52GJindlktG1XSH1GmpL5hJedUXRzlf//nh1xsYv9uKkiJ3Wsy1NFx1Nr90W2WIRGzHTYlo8s7f427HbsOmeHGdC3nbYiQN8n7c8D3Lij4rmRzNNjLsUCPwGQkAAEQlyPv9Bw9oe3vHkPZU3I1R9zepvF+9do22traC88jk3DWKedTy7itfQAInRt514TpEjrQOHZLulHomBabtWHWZpxfSKTD5aLSeL5NXryl2VBUrd36SP9+J0j0cLInOZYIX+5xhhxq5LDBxhx1q5KN+jBxp5wf8PT+svoD68vWdH3G9gfGjpEhKi6sHT93MIydK3j1tN4nuHjE1f8tJ3XTYDivI+/HHepaJxyd8VuYn8B2fAAAgUVjel5fv02B72yPuyah7Ju9XFhcj5L1NteyFvdekKiNDlrz3mlStuKbbZlKTvPBncpWk0U5HjZWRPC0t1+iqVD7luFa+cb6uKcfW1HNm1DG6zELduMrCdY6YZUuixkilXv92mlydlV9uvU6zsvWUOg2bTcHJt/q3JF/1XugjyU55ZyszoJ6LdGao5zrbtJC/M+8IyY7KdzblnX8hk2VWe7FjpVI9P1zevVKhTqn35us5P+a8wPhi+Z0vy0xazHTqJJ4sd/OGJO/csWQGiDnbIWuf6jIFvZ79aanxs/TSUXKpw0W7z742GNKhNi5HXmamLUHeTwDOZxlzfIJn5biNJO3Z9Tszf1NoVwCAjMLyfvfePRoMtt3Sroh7Ju+Xr1ylfqi8ayLAjyaaktZr1hThYqb5VitUrdY0KUsEcCxqueR5pu36yyfLu52Gmr9b9iYts1w3fFns+jXK1mtSs02BI818/btHa6dYbkfbUOu0XQvcy8C6drMtpNedJmxeryXv4ui2X1aLzEbRysKKuDyq756BEiHZUfnOmLyzgpgfFF7sDIlkXyINYTfy4qfN++VUOy8kX+l8K++S5N31Ihsj75N0TMwhMfJuLt2gYYc6irzXDfE193NwT0Emdvp7o9Hyd7QYv4us/bDXJP5eicz2oZbZbPeQ9+OP+1nGHJ/gWZm1ESkf6zeF5T0AAIXC8n7n7l0aDAa0u7uXB5e4v3m7S/ujEV26fIX6/X5Q+qyAsSPQgqgwgs2uyWXWHFubgoUIopVOrLwz5zDnTVpm48JtaRavURClGHnXLo67Xs+074nK7atTpmyO2R5MgfT0ufPyv9llsWYPiB0GHlkNLjN3qtHBIUg095uzO0giyq1Fjcl3FuQ9Gw30bVgkiKL5Iii8GNryJIzOeEaSrBfFwHyd5+uZlyLvXBz/iyyXlv0SnK1hxnvxGHvDOr2DaNwOpPvFtBmj88ROy+yEMfZqEEYqjQuw22S6ttiS+ALybnYcQd6PN/KzrPizcpyGe9NDZ2crlvcAAFIKy/snd+7Q1mCgC3u6xt0U95+/eUv7oxFdvHQ5TN650Ufmb0HToyNH71nZM4UiqHwTyLu4AZo+KhxdZrFu+PhaPpKgR8j7JDulT6fcap0xZfOs79Yv3xhZl3ZtF6bY+2VUPu6ebu8vP7fRYOgIuH93/zkZeU8lIXbavDXa6R3V8W9gx6ZrHLNeViNGk/y7hU9D3ilAuKS0lI6WejYNG9PmVYJH3sX74FrWwUxBz9Oyd7m3p+EHXYC7XFk+6ujppPJO+mwByPvxxfcsK/qszI+mbcTZUeBsj3hOAQASCsv77dufUH9rIEp7Ju6ZvC80GrQZIO/258bGQZVWbmTYLXblyXtY+WZJ3n11w/zbzEcS9CDRdcm7X/qmU+7y5H1cBvesgazNeGd+iHUiyeokG9U5loQ4y2HmL5wfXO5J8p0g3cNCfAFzCSXzYihN8WaPm6M+TLpKPOdIvXdqeeg0zinJe9AoVJlpzRdHJ+/SfYiUd2kGjFoO34Z2UpmTv+SbjkHejyO+Z1nRZ6WRmtJGnB0CkHcAgEBhef/o49vU39pihd0U90zeLyxcpM1Nn7x7puYa64XzeMyUYe6TU8XlPbR8jnQkeXcJIzNtPqrM3rphymLmI8psiMRNIMjTLDczbX5iec/qv+2Ytp7l5Zg9wm2exy8HEWR1ginz8lcS/J1P4V9ZiN1t3tPpNVG6h0SkvPMv/czLmiqaAfLukgl5XacnX+/5ZlqzNvKuA+GyCZZ3UXwj5d27K3y4vPt2DOdG011tgN9tfmhGonq9RR20pWNH1Bp3+6j3WWmiP2/SjgG1rbp+B+hkBACkFJb3Wx99RP3+Fi/uirSr8n7uwgJtbm7KCUvSlO48Pt5TS5C0bJfysuU9uHym0Nq7rHOjjPYUZFvmCpfZqht3Wcx82Q3r1Oszpzzn33kPnXKtfD98WuW26rSovLunxUdvWJdfE5e3W1ajP9UXcH36pn1GnUV3boRLtpivL121XK7/Lo0udRwjcVxc1zps11R68xvC5npje9q88Cm5JFLkp7OMfAPOl683Nr7xrWVzWULMhnVWlJaw9nR+idmwzho9NDasC5Z3Li3t3ofKuxFv2KGGcZI9ZZnfR8H1nXeubvJ9AiDvx4fIWRcc8jOaS9Ls4LHbHvs7CN3vAQBw4iks70u3blG/3xeF3ZT3s+cv0IZH3uVdvu3PbNm7iivroqcwbT6mfGNhT+XRGkFUPk0mfCqOm2pdaKq/VTd8Wbg9BfQN1vjN5mL2HLDTjLmn4eWW67S4vGfr99nOCWtTwnH+/Oh1ek1WO3NLcPQu8+Yn+Bz7DWj3xtoV33++r9wunPn60j1UeVc/hcVsiKXh2AFdGCXUNg9jR+fVvJUXTVe6ysZd/NpiT76B5zuvV0TYZM6VT5S8m2lhJIsj9lNx+gZ3QueRdwq6vVne+LhP3se/BW5au2sDPqVwVjtzzVph6yb7XUDejw++Z1nRZyWbJTM7I8tHeV6bX9iAuAMAMgrL+82lJdrY7NP+aBQczpw7TxsbnpF3AACYAyRRmsV0AQAAAADA0VBY3m80b9L1G026dv0GXb12ja4sLtLlK1fp0uUrdPHSZVpoNOjCwkU6d2GBzp6/QGfOnacPz56ljY2NEooPwGGhzp7wjTDPGrNa9lkt12EyrU2IsLkRAAAAAMBJo7C8AwAAAAAAAAAAYLpA3gEAAAAAAAAAgBkH8g4AAAAAAAAAAMw4kHcAAAAAAAAAAGDGgbwDAAAAAAAAAAAzDuQdAAAAAAAAAACYcSDvAAAAAAAAAADAjAN5BwAAAAAAAAAAZhzIOwAAAAAAAAAAMOMUlve1tTVaXV2lx0+e0MrKY2q1WvTo0SN68PAh3X/wgJaX79Pde/fozt271FpZoWfPviij3AAAAAAAAAAAwNxQWN5XV1fpxZdf0sHBAR0cHNC7LLxLw8EBvX79mtbX12ljY4OePFmlz589K6PsAAAAAAAAAADAXFBY3h8/eUIvXryg/dGI9vdHtLe/n4S9fdrdS/771atXtL6+Ti9fvqSNjQ1aefyYXr58WUb5AQAAAAAAAACAE09heV9ZeZzI+74i73u8vC8uLtLi4iLdXFqiwWC7jPIDAAAAAAAAAAAnnsLy3mq1cnk3R92TsEe7u3v0Ng2j0Tu60bxJg8GgjPIDAAAAAAAAAAAnnsLy/ujRI9rZ2dHE3S3vuzQavaPrN5q0FSXvPWpWK1SpNqnHHG3XKlRtckcOC7l8x512rUKVSo3aEef0mlWqVCpKiDu/DCYp98T51PhcpGNWvIoRnOcl7U073K7Z56fBm715LnOCVj6znQec7yy3t2hCvgXSLZ1ui+r1eh4anaEj4pA6jTq1up60Gh0a5v8cp6v+nQKPs+ka5a0zBRLTDTg/+HpD4pv5iXn68k7+Hp7O/KHd+zRk1ZQca5G/1vz3PjytSLotK13rmnxtXvy9NYj7iQ87DbSn44bvWVb0WWnAtpE0D/f/bwAAwJjC8v7g4UPa3tnJpV0adX/7NpH3a9dv0NZWhLz3mlStVqlaqRLn6Ecu757yeWnXZkf8C5cl7cgwpbldm65cHWUdtmuOToI21ULkmTjJT84127Uqs0FS7q2THjVrahw7316zqqST3t88c//50eUOynfydKdBt6WKQpdadVta1Bc89/u9LjzDTkN5GUylUzl52GloktJtuWRUTXdInZb6gpmUV31xlPP1nx9+vYHxu60oKXKnxVxLw1Vn80u3VYZIxHbclIgm7/w97nbsNmyKF9e5kLctRtIg78cN37Os6LOSydFsI8MONQKfkQAAQFSCvN9/8IC2t3cMaU/F3Rh1f5PK+9Vr12hrays4j0zOXaOYRy3vvvIFJHBi5F0XrkPkSOvQIelOqWdSYNqOVZd5eiGdApOPRuv5Mnn1mmJHVbFy5yf5850o3cPBkuhcJnixzxl2qJHLAhN32KFGPurHyJF2fsDf88PqC6gvX9/5EdcbGD9KiqS0uHrw1M08cqLk3dN2k+juEVPzt5zUTYftsIK8H3+sZ5l4fMJnZX4C3/EJAAASheV9efk+Dba3PeKejLpn8n5lcTFC3ttUy17Ye02qMjJkyXuvSdWKa7ptJjXJC38mV0ka7XTUWBnJ09Jyja5K5VOOa+Ub5+uacmxNPWdGHaPLLNSNqyxc54hZtiRqjFTq9W+nydVZ+eXW6zQrW0+p07DZFJx8q39L8lXvhT6S7JR3tjID6rlIZ4Z6rrNNC/k7846Q7Kh8Z1Pe+RcyWWa1FztWKtXzw+XdKxXqlHpvvp7zY84LjC+W3/myzKTFTKdO4slyN29I8s4dS2aAmLMdsvapLlPQ69mflho/Sy8dJZc6XLT77GuDIR1q43LkZWbaEuT9BOB8ljHHJ3hWjttI0p5dvzPzN4V2BQDIKCzvd+/do8Fg2y3tirhn8n75ylXqh8q7JgL8aKIpab1mTREuZppvtULVak2TskQAx6KWS55n2q6/fLK822mo+btlb9Iyy3XDl8WuX6NsvSY12xQ40szXv3u0dorldrQNtU7btcC9DKxrN9tCet1pwub1WvIujm77ZbXIbBStLKyIy6P67hkoEZIdle+MyTsriPlB4cXOkEj2JdIQdiMvftq8X06180Lylc638i5J3l0vsjHyPknHxBwSI+/m0g0adqijyHvdEF9zPwf3FGRip783Gi1/R4vxu8jaD3tN4u+VyGwfapnNdg95P/64n2XM8QmelVkbkfKxflNY3gMAUCgs73fu3qXBYEC7u3t5cIn7m7e7tD8a0aXLV6jf7welzwoYOwItiAoj2OyaXGbNsbUpWIggWunEyjtzDnPepGU2LtyWZvEaBVGKkXft4rjr9Uz7nqjcvjplyuaY7cEUSE+fOy//m10Wa/aA2GHgkdXgMnOnGh0cgkRzvzm7gySi3FrUmHxnQd6z0UDfhkWCKJovgsKLoS1PwuiMZyTJelEMzNd5vp55KfLOxfG/yHJp2S/B2RpmvBePsTes0zuIxu1Aul9MmzE6T+y0zE4YY68GYaTSuAC7TaZriy2JLyDvZscR5P14Iz/Lij8rx2m4Nz10drZieQ8AIKWwvH9y5w5tDQa6sKdr3E1x//mbt7Q/GtHFS5fD5J0bfWT+FjQ9OnL0npU9UyiCyjeBvIsboOmjwtFlFuuGj6/lIwl6hLxPslP6dMqt1hlTNs/6bv3yjZF1add2YYq9X0bl4+7p9v7ycxsNho6A+3f3n5OR91QSYqfNW6Od3lEd/wZ2bLrGMetlNWI0yb9b+DTknQKES0pL6WipZ9OwMW1eJXjkXbwPrmUdzBT0PC17l3t7Gn7QBbjLleWjjp5OKu+kzxaAvB9ffM+yos/KQEOF0QAAIABJREFU/GjaRpwdBc72iOcUACChsLzfvv0J9bcGorRn4p7J+0KjQZsB8m5/bmwcVGnlRobdYleevIeVb5bk3Vc3zL/NfCRBDxJdl7z7pW865S5P3sdlcM8ayNqMd+aHWCeSrE6yUZ1jSYizHGb+wvnB5Z4k3wnSPSzEFzCXUDIvhtIUb/a4OerDpKvEc47Ue6eWh07jnJK8B41ClZnWfHF08i7dh0h5l2bAqOXwbWgnlTn5S77pGOT9OOJ7lhV9VhqpKW3E2SEAeQcACBSW948+vk39rS1W2E1xz+T9wsJF2tz0ybtnaq6xXjiPx0wZ5j45VVzeQ8vnSEeSd5cwMtPmo8rsrRumLGY+osyGSNwEgjzNcjPT5ieW96z+245p61lejtkj3OZ5/HIQQVYnmDIvfyXB3/kU/pWF2N3mPZ1eE6V7SETKO//Sz7ysqaIZIO8umZDXdXry9Z5vpjVrI+86EC6bYHkXxTdS3r27wofLu2/HcG403dUG+N3mh2Ykqtdb1EFbOnZErXG3j3qflSb68ybtGFDbqut3gE5GAEBKYXm/9dFH1O9v8eKuSLsq7+cuLNDm5qacsCRN6c7j4z21BEnLdikvW96Dy2cKrb3LOjfKaE9BtmWucJmtunGXxcyX3bBOvT5zynP+nffQKdfK98OnVW6rTovKu3tafPSGdfk1cXm7ZTX6U30B16dv2mfUWXTnRrhki/n60lXL5frv0uhSxzESx8V1rcN2TaU3vyFsrje2p80Ln5JLIkV+OsvIN+B8+Xpj4xvfWjaXJcRsWGdFaQlrT+eXmA3rrNFDY8O6YHnn0tLufai8G/GGHWoYJ9lTlvl9FFzfeefqJt8nAPJ+fIicdcEhP6O5JM0OHrvtsb+D0P0eAAAnnsLyvnTrFvX7fVHYTXk/e/4CbXjkXd7l2/7Mlr2ruLIuegrT5mPKNxb2VB6tEUTl02TCp+K4qdaFpvpbdcOXhdtTQN9gjd9sLmbPATvNmHsaXm65TovLe7Z+n+2csDYlHOfPj16n12S1M7cER+8yb36Cz7HfgHZvrF3x/ef7yu3Cma8v3UOVd/VTWMyGWBqOHdCFUUJt8zB2dF7NW3nRdKWrbNzFry325Bt4vvN6RYRN5lz5RMm7mRZGsjhiPxWnb3AndB55p6Dbm+WNj/vkffxb4Ka1uzbgUwpntTPXrBW2brLfBeT9+OB7lhV9VrJZMrMzsnyU57X5hQ2IOwAgo7C831xaoo3NPu2PRsHhzLnztLHhGXkHAIA5QBKlWUwXAAAAAAAcDYXl/UbzJl2/0aRr12/Q1WvX6MriIl2+cpUuXb5CFy9dpoVGgy4sXKRzFxbo7PkLdObcefrw7Fna2NgoofgAHBbq7AnfCPOsMatln9VyHSbT2oQImxsBAAAAAJw0Css7AAAAAAAAAAAApgvkHQAAAAAAAAAAmHEg7wAAAAAAAAAAwIwDeQcAAAAAAAAAAGYcyDsAAAAAAAAAADDjeOX9+fPnCAgICAgICAgICAgzGAAA8wPkHQEBAQEBAQEBAeGYBgDA/AB5R0BAQEBAQEBAQDimAQAwP5Qi783r14PCR0u36K//6q+O/CGHgICAgICAgICAcBICAGB+KE3eQ1i+cxcCj4CAgICAgICAgFBSAADMD4cq7+ura/T5P/wDBB4BAQEBAQEBAQGhhAAAmB8Ky/vT/+fP6YPGN+n6nz6m99ev0q98/AH9q9P/lr72/tettNZX14iIIPAICAgICAgICAgIJQQAwPwwkbz/m6u/Tv/Dh/8Tfe39r4vBJJN3Igg8AgICAgICAgICQtEAAJgfJpJ3n7RL8q6GbA38UT/0EBAQEBAQEBAQEI5jAADMD4cq7xzN69edD6NPT79HlUrFCu+d/pSNv3zKiHtqOfj4p6ffs+Kr56l5Jum8R6c/dT1Il+kUk38SPqXT71Xo1DJ3XnIsL997p+lTV/mNY0Fh+ZRd7uVTdh2r5fYdL1gu654w50v1rd43Ky2hzAgIpYanS1Sv1/NwZu0zR9zPaO1MnZaeetI6s0afpf9+ujROV/3788DjbLpGeetLT634YroB5wdfb0h8Mz8xT1/eyd/D05m/oN37NGT1mBxboqeT3ksrn5C04sNna2eMa9Dzsa4xbQdPl9xtwnusfobWPnOV6SktGe1tmtePUFIIerYbzxThOfzZ2hm7DaV5uP9/wx8AAPNDIXn/xrebRET0rxf+HX3t/a9T/6sXdPvPvlWuvFvSlYpx5RQt539LpdeUytOZCPqOTyLv7k6ET0+/R++9Z6enyqUt70kZpTTHYstfjxyyjgFG3qV0PMcnL1d6H9kOCvXeKvXGiL3rvi2fgrAjHF54uqS+gCcv6aa0qLLgFhpdeD5bO6O8CKYviMqLXyIo47zdcqGm+xmtLakvl0l51RdHOV//+eHXGxj/6VKUZLvTYq7ljFvI5jU8XSomElxbPryQiZQhxU+Xxu2fuedP19SOLU6o+d+12eZc9fbZ2hk6c4YRN4SZDv5ne9KeQn8vlrx/tkZnAp+RUgAAzA+FR977X72gtb/8E/rGt5v00zev6Zf+4JenLO/PyZLET0/Te9JIuO+4mBcv7++9954lmWrZLHlfPpXGT6TVlHcp/+fcOQHXZKd/ik4Z58j5Tq9cy6fco/SmeCf1f5pOMR0mkHeEWQyWROdCIAtA8iKXvSwycT9bozP56B4jR9r5AX9Pgy7rvnx950dcb2B8drRqkrS4evDUzTyG4yzvVls0g6ctOyXdKfVKnZ0544iTCh7k/dgH89ke9Wyy4vMdn5MEAMD8UFjef23lPBER9b96Qd/4drP8afMuActl+DmxEqkF3/EJ5P30Mj/9ffkUVd47TcvO9LiySFPpn6dCbHYU+K/JPn+5XHmfuFyeOEYHQF7/2j2Xyxcq7+bSjLxM2nKBpCxcmvrMAwSEJLjlR5ZZ7cWOlUr1/HB5975gqlPqvfl6zo85LzC+WH6njDFpsQL2lJZEmZu/IMk7d8ycoq63T3VKsV7P/rTU+Fl66fTzCUbHQ+NwM1ikKfPja3nqXvZxZo2eGu04vi7ta7eWBzimZHP1j1D0txHfQTV+lskj9t77agQAwPxQypr3/lcviIims+ZdFMex4GUSJk479x2PkvdPWXHTjoXKe3Yty6fpPUMYnz9/nncI6ILoEX42nkPehbXh4vFJy8VIuFRHav2bAl1E3pNrU8rx6Wk6vWy3refLp5P/tq439B4gzFUQR+gkcTAkkhVi42XRyIsXDL+caueF5CudH3y94fUjvsjGyPskHRNzGGLk3Vy68fyzNVpTp6cr9+bpUt3az8G9XMNs39no9ZK7LXtGx8325BzxtNIJW79/Zu0zduRfOybIu68uzWu34ptLAszfxtM1yHuRYLaLrH6fJlPfQzpIsjYgdQZ57ysTAADzQ2F5z6bL//TNa2p85z4r79959he08OeP8vDD1z/Oj00s74yIJtIlrEcXjrs2x+M2yRvLpFEGZSQ6Xt71aeSaWAqS7OqMUMs6LgdTZ0zZfNPk8+OTlquAvLOdNhPJuzD6z84oYOrPGQ9h/kI2IubZNE4SRVOaBYm2X/iF0RnnqLh6vvKiGJiv8/zQ6504vr3xV3ha9ktwtlYZ8j4O9oZ1egfRuB1I94tpM0bniZ2WKT7GXg2+tcWB8j4ui2udulGWgKUV42txnyvLe2Rdujrl1LJiSUgJQXi2Z21I+bv8PFSf1y7JD7ivTAAAzA+F5P2X/uCXc2mX1rz3fzLU0rz238bfey9r5F0L2ZRnccp9sd3m1ZHg7L/VNCYaedeuRZHgIiPc2nk+eX/uF2v1+BGMvOd1m+Y7sbyLZRjv+m9eh+t+IyDkIX2hi502b412ekfA/RvYsekax7iNvUJH3v27ZU9D3p8HSporLeVlvJ5NRcZ0YrEtuo6J98G1rEMfidfTsne5t6eOF20X3Dn8NPmsbCHrmtX4rnNFeY+tS3FjPX1fDHROlRTMZzs76ydgOvzSU7fkB91XOwAA5odC8n77z75F/a9eWJvXcdPmzdH3jEJr3qW1xpGb2E0q7+PR10/p9Hsh6U0o79Fry43PzoV+Os03mqwen6hc8ffGrP8sD2l5QjF5V8th7H6ftztMmUcQQvSO1U9piZNoaYo3e9x8cWTSVeI5R+q9U8tDd2mfkrwHjSiWmdZ8haOTd+k+BMi7dzO6iPPyTqywdc3ateRt6jNaOzNO9/DlXb0+fJaulKDWewF5z+4/23kKeQcACBzKd95VWTf/PZm8l7ApmnF8YnnPJO7UKXvae6EN6+S16pNN2S555L1AuSS55neb/5Qtx+lJ5T14t35zGUB6zcuYMo8ghEh550f2XC/haboB8u4aMZQ33/Lk6z3ff72F4xcaeQ+p+/kOwfIuynKkvHvFO0SiJ/30H9dW0t/B07DOHXYjs6Ule0q1S94L1qX+d2HH+xJ2Np/rwOzDwC3NCdqUNGuv6kyn6PuaBADA/HBo8p5Nnc9G4DOi5T0bDVX//ulpeo/daC2VK99xV15pkOX9eT4N35raHdHxwJZH6QzQP60Wtt6dz1sV1k/p9Cll9kJat1rHhHi8SLn49fWu77xzaebffw+Vd2ZEn92wbvmUcn/sjpXsU4Hx9Y9wMsNTWrPWosZMm3e/7OkbfHGj6ty0eeFTcs+fB41OivlGjW6WIe/Gd+WDpq4G5v10CTtwO+5/6IZ11uihsclasLxzaWn3PnRn7/R3YS79yL7z/tkanTHk3jWFOV/7H9AZwC57MZ4Dvg3rourSVV9n9NF8c7ZMXgfZfXD99wy0w6MP/me72XZ8nyq0Owvt57j3vjIBADA/TCTv/+bqr0fJuzplPlrerSnfro3EpHi+4wXl/fkynQpOzz0jQL9e+zpzWRU3lZMCI+/G1Hpu9N99vGi5mKn9DhEXNyCcUN6tsmfHPlV3/XeN+oeM2iPMR1A/heXaACsLjh3QhZc9bfMwdnRezdvYKItLV9moi19b7Mk38Hzn9YpB2GTOlU+UvJtpYRqxq83FfCpO3+BO6DzyyLud1qSf5bLbzFiozN+M0A5SAQ/J074We8mKT96j6lJN0/XsMX6rbIcX5D2qHbk37Qx7prAzfZwb34X8f0oSAADzw0TynoW//d536Y//7z+h2oUP6PqfPqZfffAh/crHH5T2qTgEBASEkx4kUZrFdBEQEBAQZisAAOaHQvKeheb16xMXAPJeNHCzCtyj5CgXAsIshWntdI4d1BEQEBDmJQAA5ofS5L1IOOqHHgICAgICAgICAsJxDACA+aEUeUdAQEBAQEBAQEBAOPwAAJgfIO8ICAgICAgICAgIxzQAAOYHyDsCAgICAgICAgLCMQ0AgPkB8o6AgICAgICAgIBwTAMAYH6AvCMgICAgICAgICAc0wAAmB+88g4AAAAAAAAAAICjBfIOAAAAAAAAAADMOJB3AAAAAAAAAABgxiks72tra7S6ukqPnzyhlZXH1Gq16NGjR/Tg4UO6/+ABLS/fp7v37tGdu3eptbJCz559UUa5AQAAAAAAAACAuaGwvK+urtKLL7+kg4MDOjg4oHdZeJeGgwN6/fo1ra+v08bGBj15skqfP3tWRtkBAAAAAAAAAIC5oLC8P37yhF68eEH7oxHt749ob38/CXv7tLuX/PerV69ofX2dXr58SRsbG7Ty+DG9fPmyjPIDAAAAAAAAAAAnnsLyvrLyOJH3fUXe93h5X1xcpMXFRbq5tESDwXYZ5QcAAAAAAAAAAE48heW91Wrl8m6Ouidhj3Z39+htGkajd3SjeZMGg0EZ5QcAAAAAAAAAAE48heX90aNHtLOzo4m7W953aTR6R9dvNGkrQN57zSpVKhUjVKnZK1rqovSoWa1QpdqkIy/KFGjXKlSp1KgdcY59r+LOL4NJyj1xPjU+F+mYFc9s287zkvamHW7XmN9GErzZm+cyJ2jlM9t5wPnOcnuLJuRbIN2p021RvV7PQ6MzdEQcUqdRp1bXk1ajQ8P8n+N01b9T4HE2XaO8daZAYroB5wdfb0h8Mz8xT1/eyd/D05k/tHufhqyakmMt8tea/96HpxVJt2Wla12Tr82Lv7cGcT/xYaeB9jRvBD/7E9g2kqbhOxcAAIhKkPcHDx/S9s5OLu3SqPvbt4m8X7t+g7a2AuX9qN7Q2zW3PPSaVK1WqTppR4KU9mFTuCxpR4Ypze3adOXqKOuwXXN0ErSpFiLPxEl+cm7VaFCqzAZJubdOetSsqXHsfHvNqpJOen/zzP3nR5c7KN/J0z0Mui1VFLrUqtvSooqB+/1eF55hp6EIRCqdysnDTkOTlG7LJaNqukPqtFQpScqrvjjK+frPD7/ewPjdVpQUudNirqUBgTfptsoQidiOmxLR5J2/x92O3YZNWec6F/K2xYg95H3+CHn2q1htZNihRuAzEgAAiEqQ9/sPHtD29o4h7am4G6Pub1J5v3rtGm1tbXnTnlV5b9cSWQkdZY1J+9ApWBZduA6RI61Dh6Q7pZ5JgWk7Vl3m6YV0Ckw+Gq3ny+TVa4odVcXKnZ/kz3eidI8GS6JzmfC83A071MhlgYk77FAjH/Vj5Eg7P+Dv+WFV1n35+s6PuN7A+FFSJKXF1YOnbuaREyXvnrabRHfPWjF/y0nddNgOK8g7cHegJuhthO/4BAAAicLyvrx8nwbb2x5xT0bdM3m/srhYWN5D5Eefyq3KRyY62aixftya0myNkKZxe02qWrKmHB8XLI8npW1NPWdGHavNtlLmVGB6Taq6pqtrx/SpyK6yZJ0TVt1aU7NjpDKJq5bPfX+mV269TuV2IMG1P/VvSb7qvdBHkp3tl63MgHou0pmhnuts00L+zrwjJDsq3+Mh7/wLmSyz2osdK5Xq+eHy7pUKdUq9N1/P+THnBcYXy++UMyYtZjp1Ek+Wu3lDknfuWDIDxJztkLVPdZmCXs/+tNT4WXrpKLnU4aLdZ18bDOlQG5cjLzPTliDvwNfxNW4jSXt2xTV/U2hXAICMwvJ+9949Ggy23dKuiHsm75evXKV+0ZF3Sxj0kUf3aOA4riXsZnxOSLS/c6Odsry70vbJXl5GJe1cTIWpxr1mzeq00OqUKYspwVbZek1qtilwpDnJs1qtaXUi358plZubAu5rBy6sazfbQnrdacLm9VryLo5u+2WV67gIRSsL2+7lUX33DJQIyY7Kd8blnRXE/KAgCoZEskJsCLuRFz/q45dT7byQfKXzrbxLknfXi2yMvE/SMTGHxMi7uXSDhh3qKPJeN8TX3M/BvVyD2OnvjUbL39Fi/C6y9sNek/h7JTLbh1pms91D3uccb1satxFphN76TWF5DwBAobC837l7lwaDAe3u7uXBJe5v3u7S/mhEly5foX6/702b3bBOm96ryI4myIxAayKgi5V9PjnlnRVE18h8cNpcee3zXOukrY3MJPk0j3slWBClGHnXLs53f8oqt69OA9qBE6n9mX+zy2LNHhA7DDyyGlxm7lSjg0OQaK5zwO4giSi3FjUm31mU92w00LNpnCSKpjQLEm3LkzA64xwVV89XXhQD83Wer2deirxzcfwvslxa9ktwtoYZ78Vj7A3r9A6icTuQ7hfTZozOEzstsxPG2KtBGKk0LsBuk+naYkviC8i72XEEeZ9HQp/9CePntatD1dHZiuU9AICUwvL+yZ07tDUY6MKernE3xf3nb97S/mhEFy9dDpd34Q1dlTUtrncnbkYUufW1pkxwo6PW3yaQd3EDNH1U2CvBzlF9hyj6JFgS9Ah5n2Sn9OmUW62zgHYg4Gx/RhzXEojx33wyKh+fdG8Idnf+iBFw/+7+czrynkpC7LR5a7TTOwLu38COTdc4ZolLxMi7f7fwacg7BY1wudNSXrbr2TRsTJtXCR55F++Da1kHMwU9T8ve5d6ehh90Ae5yZfmoM00mlXfSZwtA3ucc8dmfRUnaiLPT09ke8ZwCACQUlvfbtz+h/tZAlPZM3DN5X2g0aLMEeR+/8Bsv+V6pnEze+U/XJUEc8T0yeU/XmUvSW0Teg0TXJe9+6ZtOucuTd2f705KrGu1jXFZrGcBEI9iTbFTH7+TuLoeZv3B+cLknyXeCdI8K8QXMJZSMREtTvNnj5ugkk64SzzlS751aHjqNc0ryHjQKVWZa88XRybt0HyLlXRoFVcvh29BOKnPyl3zTMcg78LVjtY04O08h7wAAgcLy/tHHt6m/tcUKuynumbxfWLhIm5slyHsmYm1Djr0CNom8e6YOu6bzZ2lJ8u4qLzNtPkremenU7FpzSYLFugyRuAkEeZrlZqbNTyzvrvZn5sWkaS+BcLcvUVYnmDIvfyXB3/kU/pWF2N3mPZ1eE6V7RETKO//Sz7ysqaIZIO8umZB3RPbk6z3fTGvWRt51IFw2wfIuim+kvHt3hQ+Xd2vtvH0V1mi6qw3wu80PzUhUr7eog7YEIuQ97wRV26rrd4BORgBASmF5v/XRR9Tvb/Hirki7Ku/nLizQ5uamN+2Q6cDtWiX55jr7nWljQ7H8+9SB8h7aIZDujK5OyTenRFvybkgJW15D5iaTd3NdNjOizZTFzJfdsE69PnPKc/6d99Ap18r9mVa5rTotKu/uafHRG9bl18Tl7ZbV6E/1BVyfvmmfUWfRnRvhki3m60tXLZfrv6dGlzqOkTgurmsdtmsqvfm9dXO9sT1tXviUXBIp8tNZRr4B58vXGxvf+K68OTU1ZsM6K0pLWHs6v8RsWGeNHhob1gXLO5eWdu9D5d2IN+xQwzjJnrLM76Pg+s47Vzf5PgGQ9zki5tmfYHcW2m2P/R2E7vcAADjxFJb3pVu3qN/vi8JuyvvZ8xdoI1TePeui3cJjbwoWJ23K58Nqbc8u5C5hT+XRGkHU03ZdL9chEbvmXUuz2qSeY0aB75Nrel3ym83x69Pd07rd96e8cst1Wlzes/X7bOeEtSnhOH9+9Dq9JquduSU4epd58xN8jt+Vdm+sXfH95/vK7cKZry/dI5V39VNYzIZYGo4d0IVRQm3zMHZ0Xs1bEVFXusrGXfzaYk++gec7r1dE2GTOlU+UvJtpYSSLI/ZTcfoGd0LnkXcKur1Z3vi4T97HvwVuWrtrAz6lcFY7c81aYesm+11A3ueImGd/egY3OyNrO8rz2vzCBsQdAJBRWN5vLi3Rxmaf9kej4HDm3Hna2PDLOwAAnHR83wWetXQBAAAAAMDRUFjebzRv0vUbTbp2/QZdvXaNriwu0uUrV+nS5St08dJlWmg06MLCRTp3YYHOnr9AZ86dpw/PnqWNjY0Sig/AtFBnT/hGmGeNWS37rJbrKJnWJkTY3AgAAAAA4KRRWN4BAAAAAAAAAAAwXSDvAAAAAAAAAADAjAN5BwAAAAAAAAAAZhzIOwAAAAAAAAAAMONA3gEAAAAAAAAAgBkH8g4AAAAAAAAAAMw4kHcAAAAAAAAAAGDGgbwDAAAAAAAAAAAzDuQdAAAAAAAAAACYcQrL+9raGq2urtLjJ09oZeUxtVotevToET14+JDuP3hAy8v36e69e3Tn7l1qrazQs2dflFFuAAAAAAAAAABgbigs76urq/Tiyy/p4OCADg4O6F0W3qXh4IBev35N6+vrtLGxQU+erNLnz56VUXYAAAAAAAAAAGAuKCzvj588oRcvXtD+aET7+yPa299Pwt4+7e4l//3q1StaX1+nly9f0sbGBq08fkwvX74so/wAAAAAAAAAAMCJp7C8r6w8TuR9X5H3PV7eFxcXaXFxkW4uLdFgsF1G+QEAAAAAAAAAgBNPYXlvtVq5vJuj7knYo93dPXqbhtHoHd1o3qTBYFBG+QEAAAAAAAAAgBNPYXl/9OgR7ezsaOLulvddGo3e0fUbTdryynuPmtUK1dpFS3g4tGsVqlRqVEZxQ9LqNatUOS6V46DMOjuK9AHI6baoXq/nodEZOiIOqdOoU6vrSavRoWH+z3G66t8p8DibrlHeOlMgMd2A84OvNyS+mZ+Ypy/v5O/h6cwf2r1PQ1ZNybEW+WvNf+/D04qk27LSta7J1+bF31uDuJ/4sNNAezpp+J51wc/CBLaNpGm4/38DAADGFJb3Bw8f0vbOTi7t0qj727eJvF+7foO2tk6WvB82J0HeATgpdFuqKHSpVbelRRUD9/udLjzDTkMRiFQ6lZOHnYYmKd2W6+VRTXdInZYqJUl51RdHOV//+eHXGxi/24qSIndazLU0/C/c80a3VYZIxHbclIgm7/w97nbsNmzKOte5kLctRuwh7ycN37Mu7FmopWi2kWGHGoHPSAAAICpB3u8/eEDb2zuGtKfiboy6v0nl/eq1a7S1teVJGfIuAXkHYHaxJDqXCV7sc4YdauSywMQddqiRj/oxcqSdH/D3/LAq6758fedHXG9g/CgpktLi6sFTN/PIiZJ3T9tNortnrZi/5aRuOqykQd5PPtazbpLjeRvxyz4AAJgUlvfl5fs02N72iHsy6p7J+5XFxQh5T/63UqlQpVKlZi873qaa9m8i6jWpqk6T7jWpWsnOrVCl2qQsertWMeS3TbWK3llgCnKvWR2nZeTdrlWoqhVGuDItHbMcfFrJFPDxdbQD5T1Jq63UYXqNWt0YU8uFelPLp11HgThppp77HV8PVj22a877J9+TsLIBkOGWH1lmtRc7VirV88Pl3SsV6pR6b76e82POC4wvlt8pZ0xazHTqJJ4sd/OGJO/csWQGiDnbIWuf6jIFvZ79aanxs/TSUXKpw0W7z742GNKhNi5HXmamLUHe5wDnsy7s+LiNJO3Z9Tszf1NoVwCAjMLyfvfePRoMtt3Sroh7Ju+Xr1ylfqC8q5LUrqkC6Jf3XrOmHE/Ty6SsXdNlMhM7RdratbHM95pVJv44r1B5TyRRlWWjXExa+nXzZXWRyO64nnJJzdOz8xfrjcYCbYr3JHGs4877HV8PWvq9JlXV9tJuGnVz3rCYAAAGCUlEQVQi3RN/2QDIYQUxPyiIgiGR7EugIexGXvy0eb+caueF5Cudb+Vdkry7XmRj5H2Sjok5JEbezaUbNOxQR5H3uiG+5n4O7uUaxE5/bzRa/o4W43eRtR/2msTfK5HZPtQym+0e8n7ycT/rwo5nbUSKZ/2msLwHAKBQWN7v3L1Lg8GAdnf38uAS9zdvd2l/NKJLl69Qv9/3pJwIU1UfHlXkPGDk3UQVdkPm2rUK1ZpNqrKdA0xexrT+MHnn0rHLrafFn2PPHHBdsn+GgdWRYSfimbVAbH2GxDHlPep+u/JRjunyzrWNkHviKxsA2WigZ9M4SRRNaRYk2pYnYXQmZCRIfVEMzNd5vp55KfLOxfG/yHJp2S/B2RpmvBePsTes0zuIxu1Aul9MmzE6T+y0zE4YY68GYaTSuAC7TaZriy2JLyDvZscR5P1kIz/r/MfHcdybHjo7W7G8BwCQUljeP7lzh7YGA13Y0zXuprj//M1b2h+N6OKly8Hyrs9eVuUvTN6t6dDGiHOSfptqlRq11TRVYdWmW+shSt6N0XrlgHYtIdIZuubdLhdTb4y8u+vNda3CNQTF8dzvCeqBH9lnOi6898TXFgFQSCUhdtq8NdrpHQH3b2DHpmscs142I0be/buFT0PeKUC4pLSUjpZ6Ng0b0+ZVgkfexfvgWtbBTEHP07J3uben4QddgLtcWT7qTJNJ5Z302QKQ95OL71kX+uWErI04Rd/ZHvGcAgAkFJb327c/of7WQJT2TNwzeV9oNGhz6vKejDBb06yVf+fi1xuPuGdT5XvN6lj8nII3Zmry7jhnevLur7cjkfcJ6oEtQ76eP00L8g6mgfgC5hJKRqKlKd7scXN0kklXieccqfdOLQ+dxjkleQ8ahSozrfni6ORdug+R8i7NgFHL4dvQTipz8pd80zHI+0nE96yLm9KuthFn5ynkHQAgUFjeP/r4NvW3tlhhN8U9k/cLCxdpc3MK8q6KmGsUXpXSVNrbpqjXmnreAaIWJO+udKRp845zYqbNR8l7QL2xeTN7AITEiRt5LzBtXkOZBh90TyDvIJJIeedf+pmXNVU0A+TdJRPyukxPvt7zzbRmbeRdB8JlEyzvovhGyrt3V/hwefft+M2NprvaAL/b/NCMRPV6izpoSyeOomvcTfTnTSr+alt1/Q7QyQgASCks77c++oj6/S1e3BVpV+X93IUF2tzc9KTsEyZzU7F0xFiTd0WushFXbXp4do4Rr1q1BDbZgM3Y1KzmG422YdMx1lOXvWFdvLzL9ZZtRjfOPqlHq8wBcYLlPbvfUj1Ia+rbNSVte78C+Z5A3oFElzqOkTgurmsdtmsqvfm9dXO9sT1tXviUXBIp8tNZRr4B58vXGxvf+JayuSwhZsM6K0pLWHs6v8RsWGeNHhob1gXLO5eWdu9D5d2IN+xQwzjJnrLM76Pg+s47Vzf5PgGQ95ND5KyMsCTNDh677bG/g9D9HgAAJ57C8r506xb1+31R2E15P3v+Am0UlneisXyn8mXtNm98poxZ223vGm7viq7FVdaBS8ItXpmxnpz7LJz+N/UTZUnZprnm3Vdv3Ofn+M/dhcSJEWRPPUjybnz+zqxz+Z5A3oGE+iksZkMsDccO6MIoobZ5GDs6r+atvEi60lU27uLXFnvyDTzfeb0iwiZzrnyi5N1MCyNZHLGfitM3uBM6j7xT0O3N8sbHffI+/i1w09pdG/AphbPamWvWCls32e8C8n5y8D3rop6FWZLM7IwsHeV5bX5hA+IOAMgoLO83l5ZoY7NP+6NRcDhz7jxtbPjkHcwqIR0VMZ0Z0yrLYZUBgCJIojSL6QIAAAAAgKOhsLzfaN6k6zeadO36Dbp67RpdWVyky1eu0qXLV+jipcu00GjQhYWLdO7CAp09f4HOnDtPH549SxsbGyUUfxZRZwPwO9Mf7/xmSN6ljQQxMg6OBdPahAibGwEAAAAAnDQKyzuYP45K3s1lC6y4K5/1m1bnBQAAAAAAAAAcNpB3AAAAAAAAAABgxoG8AwAAAAAAAAAAMw7kHQAAAAAAAAAAmHH+fwQK+gsPYBHyAAAAAElFTkSuQmCC;" vertex="1" parent="1">
          <mxGeometry x="17.5" y="1680" width="762.5" height="211" as="geometry" />
        </mxCell>
        <mxCell id="6FGdKVEJK4fvtbT7j42c-25" value="&lt;h1&gt;Indeed the file is missing&lt;br&gt;&lt;/h1&gt;&lt;p&gt;&lt;br&gt;&lt;/p&gt;" style="text;html=1;strokeColor=none;fillColor=none;spacing=5;spacingTop=-20;whiteSpace=wrap;overflow=hidden;rounded=0;" vertex="1" parent="1">
          <mxGeometry x="254.38" y="1634" width="306.25" height="46" as="geometry" />
        </mxCell>
        <mxCell id="6FGdKVEJK4fvtbT7j42c-26" value="" style="shape=image;verticalLabelPosition=bottom;labelBackgroundColor=#ffffff;verticalAlign=top;aspect=fixed;imageAspect=0;image=data:image/png,iVBORw0KGgoAAAANSUhEUgAAAx0AAACnCAYAAAB0IDEdAAAgAElEQVR4nO2d25XjIAxAve3QCpVQCIWoDhfHfvgRnrZwnLHj3I97zu4MgwUIkEDAMAxD+HOsD96Z9f/GSZDo/3laGccwjhKcIb9hMMFJ+jtjfRBvD3737Pz0WOeDjBK8q3zrg/JZP+rkNi5I3A7GBOsljKMPZk1ngx/H4G2UnzFz2Xyw5iXbKBJEXDDmVTbrJXh7Qp+CSzFOwujdq72HIQzGBr8xLuyNA+MowcV6NZhgnYQx1v2edF36N+n1OCr7Sgvjgogrfp736SmdL+sv7/suK4OZxgeRtC7XdFlekn+3kNEEJ9tl3mw3bXkBAH6Taz48GW/zpFYzIBc0Rv3P5WeDkzQ/89Z3z85vDxu8jEF8bABtpz9NPuMmZ0Apq1nbY2oT8baU2aTyremydh29LfJLnBX4WiZD1Abn5dW+kjsDk8P70pOMXF+NC16i30vDQdekO6B/xuUOdifWR+Vb+tzLmRnHMXV4jM3KkTkhi1x5GZyZZU3rMEknPjhTGv/r362OQl0+Vbv1lhcA4Pe4XACAP+Pd3ZnDzEbf1eWHH+WA/u2t+H8j7DgAAFzK5QIAPB+cDriSXv3r3BH8Boz1YYxDrgAA4K+5XACAR1OEZuB8wB+i1780FOjrQ4KScKd2uBYAAPwZlwsAAAAAAADP5nIBAADgGzAuOsS9zdfukAAAwKe4XAAAAAAAAHg2lwsAAAAAAADP5nIBAAAAAADg2VwuwE9g3OuhKvFc2wgAAAAAP0X0KuvJ13m6+XXZ2gNTxoneCDc2+PhF6vm13fUqyJtfQbq87Dtd12gmuU+QOXZkbnUlpMlfEP9eJ8vY+bXnP9Sx+IpTzeNsn3rwcKv/nla/xYvQAAAA8FA++0pzLe/8Z5vftz6ISHC2/ft7Ox0m+Pwml/nhrbcM8eXxrjs4GZXyLo7h5GTJ9z3KZdykd85Oj4pdoGO7/dLYySFKHM9zjfc/ecHduCA4HQAAAE/nr50OE3zx0q0JTmqv39rgqz+PuLvTMRtUqcFtK3XQyfy67uXlU7aHky++QvOWTocJPnPGjROcDgAAALgrO4bFHNr0CuOR4J2trlob67N0pszbuCAVA8760ig1TvYN1dkgLL6d74x0lGMYTHA+CjkbJXjnI8MofrlXgjNDdn99tIuRGKxx2FHF6TAuWbkWb4PL62Xjnvw03U55l9d6xb/CaJJ6nMvVVS9tYqcjDotLQ8TSdtOmczLW6zSuq1hGTT1XdOyvO+d2vzzfUFf131W3NGF9Sn3JypK8oJ38XBJ9F++Cyb8bvULt7RQeJwfDxLT6d1ivAAAAfov9FdV8Yq+dSTBOphX9Ja2ZDA6RLO+GAVdzOpxIcCY2XCZDKPnb2ciQ2PCZjaJ8h0VTjsWhkMQhMcEWq8iTUe8rK80ml2/+hpMl7Ki202GCz40ZY4Jv7RDs7nQoyjsb5eLtVGeL4W5qq+baemnLWtTLOKY6M4diFfqym25r5yjfReus5w2d/TR7/XLpH6d9S9N/jUv72trfcie1Q18yp2OVJZfPp4sEk0NRb3frx0n29TzRUl+ddaPV0yN6BQAA8FscCKEoVllrIVPTz11u/KudjslImAwHuxoO1vs0nfXNXYPdcxOV1eK+urDzeQ1TNZTS8saGcc1ItsFXdxcaHAmvysubhX4lbVAzBI+E2dSM1KjdyvaZ6sZ0pmsalEUbd9bzhs728XKeazt9Nfbr3ATr3LSjtfSTQ2d89P3X+kbdZXXUpS9rG83GfFE/Jnhp9GXrq9+x/qQD8Fo9PaJXAAAAv4ViRTULaxhFinCVVqhHMfmrnY555b12HiL++w2DMDVEFeWoyrFHtENQ+/0qn1kdlObKfBK2InVjPc53Z6ejt922nI7+elnykHoZtO2mTBeH4jmJ9Kb29z31vCODFuNkCtNZbi+b5dsyjo8uBnQf2Ff3360dpfR3Xfoy60m5Oxn9vhFS2Lq97pC+drZ94ej26hUAAMBvsWXczCudWVjDYOsr5rUPFEZVI21tp8PX4rDzv1cZBcpyVOXYxlg/GRj5mYqafFnM9+535rCVptHedDqOtdupTof1+07TiU7HYP0cJuaCeL+uOqvk3qrnHRmOYqNdj5aTcGR36VAI0R2cjlGCr+5yDIecqUucjl69AgAA+C02jJuWMfJOeNUcKlGeZyj/flkdLr6d73TshVepy9H4Zov422Y546GsQyXNlfAtp0Nb3g6no6dezOJwKOrurPCq6YyNW3V5qjerNsI3w3FueKbjtXOS1vuxq4l7wqsUznWnvsS6Vj9n1X8e41SnQ6V/B/QKAADgt9gybuY45fVwpAl2ucWldhYiP4gqlYOowxAG65MD4dvfH1+HM2uGffMgeZxOX47im3NZpvTRNxaHIwuvkMI4MqpY78lIc+UB3dbfbu50KMvb4XRo66V1tqUwAq0Po2Q6M8f0H0o3DKu+ORPrRXkguaueFxnu6HQkt5NNZT26qq7uv50HyXf7UaFrtYWKpT3z93rmg+mfDq9S6N8hvQIAAPgtFI/zFddULjHW6epo68rNWtx1fP3l5sHaLE7aZ6uu65WWe1fmdpQjf1F7HLObc6JrOV87HWnceWGQRIZazVCa2sBONwZFZzCKRxGTb4+JjIlxs1feShmW+hRnovJEdbNXL3GbVCicCWW7qdKt9fwyXn1F79T1rL2a+INow6vOMrDV/Vd7Za5CX8oXyePrqMvrotPvTtdA53VR1b+ju41K/VPrFQAAwO/yRw+A/TjJGwN7oUe/gHb34O6PP36Qv3Y6oMIP6x8AAMDJRKuNjZtgAE4Hp6NJvFqP03ExP6h/AAAAH+JyAeDHKEJgGkadNh3AJ0D/AAAATuVyAQAAAAAA4NlcLgAAAAAAADybywUAAAAAAIBnc7kAAAAAAADwbC4XAAAAAAAAns3lAgAAAAAAwLO5XAAAAAAAAHgyXrKXso0NfsxezDYmuOxFbWdev3/dZy+vn1tf3nFvXJAxu/s+Rtyap5P89z6YWgHy70QsD6ap5dvIK84veUwxkf+Nl8YV5RgGG3w1jQRvb/Ki/G45zKttxaVtGuvH/CaCWg+GIQzGBi8SRF7t4awLsuiVsn0fx1wv7/Vzbbu509tX3X+/oX8AfIqdfq6etzrGSdX4rJ331d+ln98SY4OXVK+ck9cDt2fbf8r80veW5jmkOn8oywHvYeNOahbDIh6Epg4u3q6NbqwPkg0+xkkQkURx1p/HShf9PnlJOftdnGb0VvXqstlQDJV8w6yMDTmS71fSWS+loXWArXIMwxCcSOL0LQbh3Yzmdjls8KMUE5hxEkaRY3pgXJBKvZi8nbTt+xSMCyI+nNPPte12fvuq++/wPf0D4DS0/Vw7b3WOk5v9t2fe7/gu/fxOTA5v3B7L/PEx+68jv5YtUv5cUQ54l4ryRIPU0uhFOusT73NqPBd8zRk5rHTmlZ/1uy8C7zode/It5TrodEyDXj4Q9tPvdLza7V2H50y2nY5p9eBVh9OEId4f0gO10/BjTof1LX080s+17XZ++6r77/A9/QPgLLT9XD1vdY2TO/33z5yOV3np53/MRrt9zP77hNOhKQe8y9YvKyEYEfGqwtJ4xqWrJm85HRWDZyt8ad/p2JEvV7qG991WziudjvsZzntOhzUuSLLdOf+sWw/2daO7fR+Btl60/Vzbbme3b0f/Hb6nfwCcw8Hxb2XH6dgbJ/f671GnY+e79PM7Me2Ue2c2wp9Ptv8+tdOxVw54l41f7nT6uMFe/zbJauSWAb03OOSrr3vepsbp2JUvj/XTOh3LVvbOboyGd5yOO3nju07HkG6frud+iu3/HT3ocR607fsEtPWi7ufadju5fYe+8eVb+gfAKfSOf5p5q2Oc7J2nN+f9ju/Sz2+GscF5eZ2zEB/cxhmbs+2/rfz0Tkd/OaCbLSU64nQM68BmNhp7T0mGeJV0+Vlj62tPsbrk69npyA4uiXvf4dgrxzB8z2CrcTrievS2UucaPSjaqTxomLe9Rr+/ng86HdvtdnL75rq0M758S/8AOIV3Fl1a85Z2nDwwT+86HSfsdNDPr8YEY11x9letByfrVZfT0VkO6Gbrl/3hVUtDORnXcIgjTkfzpo1cEZUKpJavpdg7B5Kng65v3F6lLMdU79+xraxyOoZhPexohqG6LbqvBxt6qowZ3hvQvpMPhVftttvZ7ds3vnxL/wA4h+PhVc15SzlOHpmn1U7Hzs/p5/fHOGlGf5xt/33G6dgvB3SznaDvIHkepuSDPeh0LEZFj5J0/a4l30GnY/nGNbdXDaFr4vkjtE5HQmaUavWgeWvJTzsd0wFTzQTcc5B8v93Ob9+e8eVb+gfAWWj7uXreUo6TR+bpzzod9PMr2Lx18I/sv129UlxAc6Qc0El6r7UJ1vls5aPjytxi8h+DyAElqW2txb9rGPa9DklVvjecjqVM7ypnt9NhpoOAd1vdedvp6NGD5crILK32ytynOh3LFYDn9POTnY6O9u0ZX76lfwCch7Kfa+ctzTh5cJ7+mNNBP7+M6S0MSc8+mPL6WZUefEKv1uuUo4WsbOH8aDmgE+vTbazY6HhVuvZxwOwRnzl+tGYslHGlJvmb2qMt6XfKmPHWY0Jq+XYeJ1oGvXzrrzjUfOSA8juPA4rc56DTXjnyB33W9jVVvVDrwTCUj/qMYxDvgmk9KNdo3+dhwtv9/O12O96+Xj2+fEH/APgY2/1cPW9pxsneeXrYmfeHoWN8pp/fDevH4F3lUb2KoX6q/afRq1XHU/kS2+BAOeAwlwsAAAAAAADP5nIBAAAAAADg2VwuAAAAAAAAPJvLBQAAAAAAgGdzuQAAAAAAAPBsLhcAAAAAAACezeUCAAAAAADAs7lcAAAAAAAAeDaXCwAAAAAAAM/mcgEAAAAAAODZbCcwToon5tcn5PP0xgTnpfl8fCuvUV5P2k/5uCC1dGt6l3238my9kyDOXF25AAAAK9Yvc5W85kfr0znO2zAMQ3CSz38+m3fNK41kc3I8j3pbfiPD20xW5lUAOB9FIuvXQXDBOB8kMf5t8OMYxNt14DPWB8kHM+sLp8F6SQdM45K8rY/yyH43DDZ4kdS5mb/L4AgAAHfDOAkiUsyFpmHUWz85DslcuGKDH6VwHIyTMIqk82Vl/l3yT/NlXgWAj6BIVHE6hmEILhqUlkGx+rfx6kx10DNJXl1Ox8YgyuAIAAB3Y3IuXPAVR6Gct8wrXXUutsGP0y7Eay6cdkDE+2NOB/MqAHwGRaLqQBc7CtOgZxt/7yQa0M52OuYdFu9MGe4FAABwMxbnwrh0l7/qdCQLd7W5dv6ZcUGWkK35b+zWIl0xl+Z5Mq8CwOkoEjXCq9afbQ5e2UCaOx1mjkmt7ZLM1LeUI4wNzssrflV8cJbVGAAAuB+vOdEkux01pyOPIih3G16OSByGNXpbjwzYOh8Zw7wKAOejSFQ5gBaf3eh2OvK8XNvhGAaF05FggrGuPEsCAABwA2oLcSb/+TDMh8HTsxVltEC0+xHNr94O2+HIO/N2CvMqAJyCIlHjTMeL4+FV04G69t8OQ6/T8cp3W2YAAIC/J3Uu5vMXc7hV7HQ0b3xMHJF0/p1us5rDsZRnIJs/r8jNvAoAb6BItOt0vHeQPI9rreXdcjpav2vdAgIAAHAlxfy0nMHIfr44I9t/v7Hod9DpYF4FgA+hSKRwOt65MncYtm/F2HM6xlHSWFNTXvcHAABwB2rGu5MxiEQ/r4VWLczORPtweZpu/X+H08G8CgAfYDtBbXu3udLR+ThgGbuaHmwrH0Yqv239GLyrPGLEwAgAADfj9Thg9ijffB5DnGk+Flj7+3o6k82fPtidxwGLnQ7mVQA4n8sFAAAAAACAZ3O5AAAAAAAA8GwuFwAAAAAAAJ7N5QIAAAAAAMCzuVwAAAAAAAB4NpcLAAAAAAAAz+ZyAQAAAAAA4NlcLgAAAAAAADybywUAAAAAAIAnY6MXxMW7YE7JeHkN1Qcb/Xx9STV6XVWFscFLJKfTvM6afltLV37GBifn1t9WexyuP/hplpeJ05eOX/p8mV4tskQvIb9TDoDfxgSXzB/2pPn8WSTjyA3kgXdB7zXcRu9HccGY6T/G2ODPMDysD6NIkJpBYH2fcWN9EJHgbL2irK9Vog3+DadDl58JPnGAzOQwyHHHw7j577fao7f+7oxxQZQGJxxncSq8HdqG/lV61aEDqnIA/ChOJPhonjROrjcwbgp1cx7pQq0EZ4ZoUejzC1rovZ5b1I0zuVA+5D/rYzLGvXMnOB02eDngPJxtQNXya3zDyWwUHag3J1LUfdEeOB3QyTQpzLplXJDaJPA1TsdOOQB+kWo/mhbLWPUtuYXx9SBa9fnxekbvT2mnPyU36GtCxSE/a9hPwzFZVusno6DtdBjrJ6Nh9o59ZSfDODlkwFvfMvzTbbhxlOCd3zV62vmV1JwOXf3Vd2eK9uiov8swNniJVjnEB5uU1wZfDWGrh8skZZXJCbvNVuEXYJy8jPWl7htOx65ezaGOSRrX2M42LtED8Ta4vC/Nk4ZxaRvbyviiKgfAL/IJ40vTf4ce+0A5/+7NH/Eup1WMG/mY5kzd+FKWV1d3+nFSPb/tzqvXoXE64jDeZLx/x35B7++l9xrKlXVJJnLjpIiRM9YFqe5A2OCTlciG0zGO098v354rO6+MaeU/brCp4rYLZV4yFLJN4VAmSmsXJ6k7vwrWF+FV+vpr7XSk7dFTf5dgXCrbKl+lDhWr3HnI2WCmepJaflDH+jCug/B03qrQFbVemWJgtb5m/E/9JplMjAk+d8qXHYvou2ubHykHwI9ivRS74scXo3T9Vz+/Kedf7fxhXBCRJO20KOHL+TefP/w0f+Tjmmq86qg/zTipnt965tULUO90rPNMbKBPoelHx3L0/k56r2BV+EWoZPXQBC8Nj9H6yo5I9LebTkftUPaUPm6YpfO9GtcE6/12ZcyGv7ZT7NLIr6CmNJ31lwxA1fboqb9rKAaAWO7cMN11Okz9bI5xQbSOIOh4R6+aq02KNqqOE3UHHAA2iFbXJ8PknYtNNP1XP79p51/1/FGdA/JxozF/VBcslOPVW+2Tj5P6+a1rXr2APqejpjNv7E6g9/fW+7JM2an/uJDLKmSLrcrYCa+qCZNW3Bw+USjQ9mH3ViP3hEhp8kuVfvI+iy2unvqLlK/ZHl31dwVbB/grv9tzOjZ+f31ZH4Zar/Kt4jGM0tgtTLaLpeKUt9uY9gXowZTnH981SPf6b8f8ppt/O+YPzbixMX9UL4zRjFcd7bE7Tqrnt8559QK6nI5T7Rf0/l56r2JDSZZ4a01G+W0FrRj9DuPG12L2dwzVluIedTp2O4L17Ubqqb8Gn++0Z4LT8bWo9GpeKcmvJLTKw+DzilQxgON0ALzHRmz7aQZp3n875revML72yqtGOU7idGyUWauT6H1Rd5fpvZqsgInX+EaYw9vhVZXzDEu6lhe7oQzVvDRl2FAuszgczTzeDROp3N51+/CqRicjvOreaPSq1V6dN1ClhyNxOgDepjEvuiO3P26Q9l/9/Kadf9Xzh2rc6Akz0ZS3oy1U42RPeFXHvHoFDTkKuc8Or0Lv5/LeQO/1LIWZvJui4NZPN8YkB3PmgzBbldl9kLx2U9UUYrUecmmm0zRwltcwhMGYYJ2f5GzdltPIbz2os6c8PfVn8psqWu2hrb8L6D1InoTkzW+dRINPUc9L/CZG6bmo9GqO/7Svwdcut5BkA+HUd1ypB7mziNMBcAKlIWSsby/Q7aDuv+r5TTn/dh2o3R83qgdqpTxQqy6vir5xUjW/3fwg+WLQJu9l1ByM5Q23ykHys54aQO+v0nslmmtw8yu1Rpmuf2tl6qQeXpVcmaa98jWLN9u6vWp3Kyt7QXwcyxsItPm1Xy6v/I2q/kxSb7X2OFR/V9BxtV9eDvG2KHf9SsG7DLbfT5deJb9f9HSJcX319Wlb3b4uQ5j1Phmkk5DM5W/T65Rv4UgDfAXp/PbOy8yq/rugtQ+086/26lDluNG6OjSOv+8qrwblOFnItzW/3fjK3Jp8VZvyI1f+o/e30XsdN1BWgE5wOgAA4Ik8dn67SzgYXMnlAgB0YSrvoQAAAHw7j57fcDrgBgIAbJPfjHa3bWUAAIAj/Mj8VoSk43z8KpcLAAAAAAAAz+ZyAQAAAAAA4NlcLgAAAAAAADybywUAAAAAAIBnc7kAAAAAAADwbC4XAOBDmM++rAkAB6BfAgD8KLqExr1eLBT//h3SP5efnV+v3LkmTptuGIb5BcvoJc7Ka5hd+Z3IHcphnJxa7uXFeHH3ef399np/9/yu6Jcmf0H37+7kv0M5fqFfAgBAlf1E01Pppvn/Xn4qP+OCiATn7PToT2uy1aZbsH5K33quvje/s7hNOUxwMgZvzy3fu7r1SVlupfd3z++qfjmY4BMD3gTr5fOPgd2mHM/vl/o2McF5Sd5nSHZ/jFsd7CrisvwmJ1Ekys+6IHk6AIDr2Etggh99sNnPnOQ/0/Jr+UVojebddDb4HnlOcDqczCuZPSERV5ZjftX1rfaqcB/j5u56f/f8DujVGfrcyOOoIX5Zvzxajsf3Sy12ctq8XZ00Y32QMao/kzoM1rd/tzqViR6Y9XXr68sLADCEYTeBcUEqk0syAPbwtPzmiWLUxCifZNwYJ31lO2WnY17JHCX4SvjTvcrRWE1dXn6NJmHjlpXGsv3M2rbjXG6TGDfrC6veBuOytM0V4pO4Wu/vnt839MuI46v/N+iX6nL8QL9UYn0jxM36MI5+ckQ6nI7D/QoA4G/ZSdCYoA4Pck/L7wLjxokEl2zNTxPv29/VYOwUEy5+I/Ti4nLMq3vVMI98hTCR5fV/4ySIRCvIs5wi2YrqbDAlaWdD8KMrr1fr/d3z+4Z+qdFXLVf2S205fqFfqrCVXbu4zLNOq52O7fwAAG7EToKrjYdvz0+Rd186E5zMk+y6NW+C9b4t3wfOdCyrjZuhHReVY3O1VWXc1EJ5FpnHinHjK4bUZAh8LE7/7np/9/wO6NXp+rzqow/2pJucLumXynL8RL/U0Cjr2oaNULGmru/kBwBwI3YS3N14uHt+irz70k2xwOWKoQ2+9Tcb+a2hCDV2ZZ1XV1uryX9YjhXjgmwZFRrjZmMSt75i3DRkyldpT+Xuen/3/Hr1ajfdAX2e4/BrhvpX9cuNciRpfqFfavi40zG3YcT1uzsAAEMYdhM0Bsi3YrN/Kb+Yk1ZUfW0S2ZrIbrrT8YlyFMaHsn2/zri5u97fPb9OvdpP16nP1p+6w7Hw5/1SWY6f6ZcqlOFVlTLWdX0jP3ZBAOBe7CUwlZtMWtvcGn4tv4gTD6wWv28ctO36roYTY8dPL8feauqSppiEbfZY2efCONYDsicc7L+33t89vw69UqbT6rNZDPV35U6+8/f9Ul2OL+iXf43qIHnlb1oOdjN0DacDAO6FIpH1yUHCzesJNQc4fy2/KO1pV3OO4+smlvl+9k+f6bDOBznxlpyzy7G7mrp+89VWxrpq+1UPrErjwKpkaecDq7VyuK2wl17urvd3z6+3f5ygz6teVXT36I7NFf2ypxzf0C//HsWVuT060jhTw5W5AHAzdAmtj1+e3ZiwlJP9z+S38cBTMoFo063pl7jtxu0yvfltMn1L9R7AVeWYV1M1q8fJNZrzg1zLq8aJYdW4mjPZqZgNuCJtbbV5KcuJoW631fu753dRv9w6q/FN/VJdjm/ol1ex9zjgjJOyjqtOXNJmSx/pfMMFAOCzXC4AwNtc9jhYzy6S9eftcgB8AV/RLwEA4K+4XACA76XDuGnGcQPAueB0AADckcsFAPhKihATjByAy6FfAgDclssFAAAAAACAZ3O5AAAAAAAA8GwuFwAAAAAAAJ7N5QIAAAAAAMCzuVwAAAAAAAB4NpcLAAAAAAAAz+a8zKqv1IoLJk9rbHAi6aupjTyNddMrq5VrD9fvdVyJmL5o3P7uJfWSsbxEe8njWhewV97kxeL5BV/LQ3t99Wr9XH+vV6KP9KNTWGQRd3kdUd4FG/zey9c/yl4/uhxjkxfO/2p+O5P1Zflb9xG4Fej9t3FeZtaPwdu9dCb4cQzi7Pp/66U0wo0LIhKcs8FsPfTU8QiUcfN3ZkPVGBv8Hxhaunppy/xLE3+zvMYFGXEyjrA4Fd4ObcP3qsfUjAvyGwPt9eXt/PbfjT2po/NCgrfHvr9O4i0O6LqqH12mVzb4pL7MJO9d5Osqy4+NCV9OuqgqwZkhcso/vKCF3n8j52WmMq4bxo2Tjb89xekwwcncIaKfG+eLn50NTscJ5bX+OweSGzBNCrPuGzftFuV9Bqfj+eW9rdMxUY7PZnteUMhf1emDuq7qR7fCBD+Wc97t+bUx4QG0xopr7Bf0/tYYG4es1FeW4pCkdfuq0qDvGNfvOh375bDBV7bCa51CX95z66UogzOlfMYGL5Kls9dvJ64rf/4VhpC0S8XhU5XXpSFVEUd17deYVn2X+p9XlRtOx24/6tE/M4dGji99cHlfmAfaJHTunbA5hXxxOFkasvdmeQeTbPNPaX06kXSUVzu+7H+3tZOwHR50vdOxyO4PjW9nOx2qfnQrjhlfThq6EY/FkU6fPV/mxleykp71pd3xRUtHP0/GSJkWLauhwcYm8j05HFjjdHSNu+j93+j9FUjcEeZOEiuPcTIZj7EiWRdEysmqOLsgyl2EeRW7ObHsOR3jGPbK0d7pSCcmbXnPrhfjZDJG1jJMhoRI3plNobDW32TymzuneDtve84d2LxC2/rLm+rI5WX8RqwP42q4TavHRR139COd/pls23tqY58vLiwDevTdNQzyUHmV8q3ljSeAKdTzWHntGjZqor+1md5ry6sfX5TfXb79VTsdr/o+MqEmY/sZO3mafnQjbMvp2qW+QLfolot08BPzZa6n61yRyaEaX+KLuGYAAA9XSURBVNTo+nkeoj2Yya6QXHeNS8fSYVgdm69bgVeg3ulQj7vHQe9vTrXg0cDqpbHKZP2+kmg6Wa1zVr617XQ0GjBbIUsGjMXITVartOU9u15MQ9mVE9tdtuWWVdz5/4mxkMh4oLw4HZ+lox+12j39udWtNi1ndQo9OHFyrsmXGJC53P3lVRvoqvLqx5cux+CLnY4jchTnOu6wMPMn9fhaHT26A97sf/k4/on5cv3GbIxW2005vrxD0V8a85ZxQTJZrG/IdlUY64fpczoOjrs7oPdfw0bFb4S2aAfxzYlrPiy+u+V48ExHTYHS26uyQ+ra8p5dLxvGQDnh5qEUYxilsqp5BZXtwarT0VXeqJ3vUManou5HHfqXhBdIfXGhoQvHnQ6lfCeXV70arylvx/jStQtwgdNRvbmvMU5+xOk4c6fjq5h2u8qVUn3dLXrlJDLk/mK+nO2Ccpc112fF+NJRX7v9fKP/pLq7tWK+9bvvpcvp6LDX0PtP6/0lbDR+tnJ9pjIO1usr60SnY1M+bXnPrhe1ET7vBGTbdYO9105HLDtOx5eg6kdv6t+8w5eGHJzpdHTId3J5T3c6lOPL3Z2OHj4aXvWjHHXYBuvnMFkXxPt1dbU2pp8+X847B7652tv6u8r4okLZz3E6mtzH6ZhA72/MXnjVu4pQa3yzOBwdinBGeFWJDT6RQ1ves+tFGW7UGvRuFl4Vl5Hwqi9B049O0L9iPDjT6eiRT7PN35Gf2sBVlVc/vnQZ1l/pdBw30nA63jC+Bhu8uFUHpnzsQT3tnC8jPe09r3iovOp+3hNe1XCUn7rj1ihXUQ8fDK96Ww8WOX5F76+iPDgqFSWR4Gwa4pMf1pnOS/hgzSuddVIYMvXDMTurWYcOkkuZn4mNnUYaZXk/Vi+VA2ovZZrj+eI7qZdbIO5gkKudDm15s3a5Qxmfiqof6fVvMvhceZAyj0c9daejo39YH0bJdHCOpT1S3uVAd37Ab0of16myvNpxSPvd5dtx/Zv5jaTGZH+50zGPCadfmZvUx+vNqCkUbB6X1999x0SunWd622M9IB0fAI7TnTxfru0SLVDVFqLU44uKvnEtqYPl1qsfP0j+ut46Om9WczBU4y56/zd6fxGaK3PzK7pGma6TKxTAZld5iSu2fLZifKu32mykS65g2y2Hia5E27p+Ul/eM+tl6aS1K2ST+L8kzVKOpa4u3LZNHgOa5FjaR5yJ2jO6AUJZ3rq+fFEnuzld/Uipf5PBal+XNcz9Ixl8KzqTX+/aPRFp+4f2iuCe/mamFbFYR5OQjd7yqsehne9G5OUVb5NxsOcMxnk0rvTN9aWD2uOA1YObD3E6prZ1QU68ojW9cdC0rwg+cb4sX2au9w/V+NJDRz+vX5lbmY9+6MrcWnmrNpb6iQP0/k/0/houFwAA4G95apgDAPw5p96292QYd+EGAgAA/C1MfgBwAmbvnTF4wbgLNxAAAODPKEKImAQBQEse8vv0sKmTYNyFmcsFAAAAAACAZ3O5AAAAAAAA8GwuFwAAAAAAAJ7N5QIAAAAAAMCzuVwAAAAAAAB4NpcLANCJ+a4XOAEA4CepvSwN8MPoEhr3egFR/Pt3Uv9WfiY4L9FLnfXXgvXfPTu/s/msfMYJ1+0BwA+Qvkz8aON1uYp2fZX5Mzg5Xpfly9G67z263QD62E80Pb1umv/v5dfycyLB2/38tN89O7+z+ax8JjgZg7eV3xkX5MMTFgDAFfzV+H0pfzSGv1WXzDMA77CXwAQ/+mCznznJf6blx/KrDlA2+NFnq/rK756dnxIn807EXkjTp+WbX3/VfxsA4PvB6bhJXTLPALzDTgLjglRCWaxvrDb/Wn7Wz+FBjTMGWiNc+92z81NjgvUSxlGCdxuhTR+Vr7XLkYYgpNScmDT8ayqTX+VeX071Nhjn1/CvcUx3cAAADmNc8DImYahuY/zbM5RtMqa1F4n20qnHv/hl7mjMX0OQjrw6Pc8fyXdbL34bm9RfK52xWRmcqdZlkk58cKYRipXNcclL2+vPFWFxcTiZVZQX4BnsJLC+OnAcNl6flt+e0zFMg3zyO+tL47Xju2fn18Uy0IsPrmGAf0y+eZejee5DtQI1TQbi4nMmJlgn6Q7KPCGIxBPy5Hg9frURAD7MdBlGMi4aE3wrdHTYdjqMk+LsnLEuSLZzrE2nHf/MPG7mY7LJx1Mtxk3zaWR4V79hZpnjecbY4CWde4yTtAxmWnASaZQjTidTumJez+aZ9RuNMm06i8ZNsuTlLSIDAB7DToKrjfpvz28Y1sFQxnEeYCoDVM93z87vAMuqUHU17UPyNc9yrN/ddzrU2+rWNwb+WqgYAEAPtvsGvvbYZYKXxphkffQ32nRDx/g3LeKk43LtZ0qMC1INu03rqljYiuVe55VaCO+S35jWSy2dcUFqbbTOM7MTtrObs+t0FN8oywvwIHYS3N2ov3t+80BfrCLl31B/99z8kq3hnN2t8WV7Ox4gzy7vzDwZbRr7CqdD3Y4N+YZhYEIAgPdJwoOkXLnPaBqvy+7A3jiuTTcMXeNfvqvR2v3Q1Ul9DE+/aRvORPa7jfnA+sjp2EhXHevn3QmvvJVqf6djr7wAj2InQaNTvHVm4ufzqwya2u+end9BmjsdH5IvmSQ62+5Q+XE6AOAvmXeIW47HptOhMfK16Yahc/yLdzbM8V2OSMbtb97A6RgleMUux2a7qcsL8Cj2ElRWrpvblhp+LL/Ggenylibld8/Or7s8O2c6PiGfZpdjSacIr1IdbiS8CgD+mK3Fla3wKp2R2hG20zn+rbsbe+fu9lAa4VtnLP8uvGqOFHg3vAqnA34LRSLrg9e+p6A4WP1b+ZUDvbG+vkKi+u7Z+emxzk8rPFu3V31APtUuxzCUk4RZbtyqxSCnBzinskXhDdaHUbJDiHMM7xk7RQDwu0yLH648CL0xL+3NQ+Mo2ULQfEFGHjalTdc1/r1ua3rrog2tEf7OQXKpHyRPdoGWc4m7B8lzB6az3XA64PfQJbTZC9PNtBqj/ufys8GJ7oVu3XfPzm+PaXdD9U7H2fJVDxa2ya9HFG+rB91j+dZ0WbuO3pbXLXJlLgC8yWSI2ukmpfWq1NwZ6Dxzl13BO0pjgUiT7sD49/atS/EVvOuYn149m4Yav3dlbl6H9StzK+dXNq7GXeRTtVtveQGeweUCADS57EGsjZhmAIBHc2D821vx/0bYcQA4ncsFALgfOB0A8Kv0jn+dO9LfwNvnUwCgxuUCANyKYmsc5wMAfgT9+JeGAn19SFAS7sTL4AAf4nIBAAAAAADg2VwuAAAAADyNvQcJn7BDAgA9XC4AAFzIv6DjajkBAADgq7lcAAC4EI1DgdMBAAAAb3K5AABwITgdAAAA8AdcLsBPYNzr4SHxXMMH9wGnAwAAAP6A6JXNk68HdfNrobUHg4wTvRFubPDxC9fz66nr1X43v9J0eal1un7PTHKfIHPsyNzqij+Tv0j+vU6WsfPrvX+oY/GVlZrHtt59QBGnAwAAAP6Az776XMs7/9nm960PIhKcbf/+3k6HCT6/mWN+SOktQ3x5jOkOTkalvItjODlZ8n2PLBk36Z2z0yNRF+jYbr80dnKIEsfTdX8HpwMAAAD+gL92OkzwxculJjipvWZqg6/+POLuTodxQQqD21bqoJP5tdTLy6dsDydffCXiLZ0OE3zmjBsnOB0AAABwV3aMmzm06RXGI8E7W121NtZn6UyZt3FBKgac9aVRapzsG6qzQVh8O98Z6SjHMJjgfBRyNkrwzgdZDbr4JVYJzgzZfeTRLkZisMZhRxWnw7hk5Vq8DS6vl417z9N0O+VdXl8V/wqDS+pxLldXvbSJnY44LC4NEUvbTZvOyViv07iuYhk19VzRsb/unNv90qnqXQNOBwAAAPwB+yuqJjM+a2cSjJNpRX9JayYDVSTLu2HA1ZwOJxKciQ3dyZFJ/nY2niU+zzCHneQ7LJpyLA6FJA6JCbZYRZ6Mel9ZaTa5fPM3nCxhR7WdDhN87iwZE3xrh2B3p0NR3tkoF2+nOlsMd1NbNdfWS1vWol7GMdWZORSr0JfddFs7R/kuWmc9b+jsp9nrl0v/ePc7OB0AAADwBxwIrypWWWshU9PPXW78q52OyagSkWkFfv6Z9T5NZ31z12D33ERltbivLux8XsO8nK48zVre2DCuGck2+OruQoMj4VV5ebPQr6QNsrSHQ/CMSx3CrN3K9pnqxnSmmwxwTRt31vOGzvbxcp5rO3019uvcBOvctKO19JMDZ3xwOgAAAOAPUKyoJiE1YxhFinCVVqiH9UedjnnlvXYeIv77DYMwNUQV5ajKsUe0Q1D7/SqfWR2U5sp8cjBY6sZ6nO/OTkdvu205Hf31MqyHsatl0LabMl0ciuck0pva3/fU844MWoyTKUxsub1slq/oH9nfHFkM6D2wj9MBAAAAf8CWcTPvVPjs7IOtr5jXPlAYVY20tZ0OX7syNP97lVGqLEdVjm2M9ZPhmp+pqMmXnSXY/c58LqNptDedjmPtdqrTYf2+03Si0zFYP4eJuSDer7sZKrm36nlHhqPYaNej5SQc2V1q7vhsgNMBAAAAf8CGcdNyJt4JrxpM5Uaq+t8vq8PFt/Odjr3wKnU5Gt9sEX/bLGc8lHWopLkSvuV0aMvb4XT01ItZHA5F3Z0VXjWdsXGrLk/1ZtVG+NaOwx3PdLx2TtJ6P3I1MU4HAAAA/AFbxs0c/74eujXBLrcI1c5C5AfJpXKQfBjCYH1yIHz7++Pr0G/NsG8eJI/T6ctRfHMuy5Q++sbicMQGrbHT2w6JkWtUZwgmI9IV+TX/dnOnQ1neDqdDWy+tsy3FjoP1YZRMZ+YD4ofSDcOqb87EepHK0l3Piwx3dDqS28mmsh55twWnAwAAAP4AxeN8sWHjXTDrVaTpanbrytzaq+HWxy9Wbxh0Wfx97KwkV6ruXZnbUY78Re1xlDQMZrluNv7b7Crb2CCeDMSXYW4ruwZTG9jpxq/oDEbxKGLy7TGRMTGa98pbKcNSn+JMVJ6obvbqZUhf09680ld71bE23VrPi6M0hecdrmft1cQfRBtedei8TQROBwAAAPwBn30cECZiJ2vcCz36BbS7B3d//PGD4HQAAADAgxheuxGVlWGAj4DT0STeLcLpAAAAgIdwuQDwYxQhWA2nQpsO3gOnAwAAAP6AywUAgAvB6QAAAIA/4HIBAOBC/gUdV8sJAAAA38t/W22CQlqa2V0AAAAASUVORK5CYII=;" vertex="1" parent="1">
          <mxGeometry x="19.25" y="980" width="770.75" height="161.5" as="geometry" />
        </mxCell>
      </root>
    </mxGraphModel>
  </diagram>
</mxfile>
